<mxfile host="app.diagrams.net" modified="2023-10-14T07:21:09.778Z" agent="Mozilla/5.0 (Windows NT 10.0; Win64; x64) AppleWebKit/537.36 (KHTML, like Gecko) Chrome/117.0.0.0 Safari/537.36" etag="meLyWxSeICFDl82JYAHG" version="22.0.4" type="github">
  <diagram name="第 1 页" id="29tlro9RbnzhvvZHltBY">
    <mxGraphModel dx="1931" dy="2383" grid="0" gridSize="10" guides="0" tooltips="1" connect="1" arrows="1" fold="1" page="0" pageScale="1" pageWidth="827" pageHeight="1169" math="0" shadow="0">
      <root>
        <mxCell id="0" />
        <mxCell id="1" parent="0" />
        <mxCell id="muEvSU8Ju4tzbuMC0IyN-1" value="" style="shape=image;verticalLabelPosition=bottom;labelBackgroundColor=default;verticalAlign=top;aspect=fixed;imageAspect=0;image=data:image/png,iVBORw0KGgoAAAANSUhEUgAAAhQAAAFXCAYAAAD6Xte6AAAAAXNSR0IArs4c6QAAAARnQU1BAACxjwv8YQUAAAAJcEhZcwAADsMAAA7DAcdvqGQAAIcFSURBVHhe7b2JlyPXke4XyASqmpTmPdvH/uPtc559zrw3Hs/MkzSjmdG+rxRJiZREUqS4iGRzZ7ObvVUVgMyEvy/ixs2biazqQnXX1owfOnD3BVmNjA83t1nXdRsJguDc2Gwu7is2m81SLAiC4GKpUhgEwRWEUuQ0FgRBcNmEoAiCK8iuQkHrxuJEEASXSAiKILhilELChcWjLAiC4LKpLvL4bhAEpyd/M7nyUFoQBMEVJFYoguCc2eVEyVJEaLOppp4/NrzFz4MgCC6LWdu2m6oKXREE58VpVgHLGoPaKhSGeSlrCCpQgMymS4/JDYIgeHKEkgiCc2anFQpWLQ08Wo4ArWsrFKUFQRBcFCEoguBSOdn9l7khEIIguMrESZlBcGmMv3vD9KZYqhjGh8Q3OAiCq0CsUATBpUNJMCUm+pLSSjw9VRYEQXCRhKAIgnPH3X3v8ocxlw8E6b7wFFh7Y6eGQRAET5QQFEFwgWzSy+EJmzxn0w49bqRtWnnw4IGsViurcCKlgAgxEQTB5RKCIgguBBMMDq/moLDouk423cbuOYH0/fv35Y033pBbt77QeqcjxEQQBJdPCIoguGjS8Q2uSqxWS2nbNQRFpemPPvpI/uM//1P+ClFxHLzXRH+IxAlREQTB5RKCIgguCR7umM9rsRvLdSoTuGJx7+49OTpaQmAgGza+EIvCQw+RaP6oMAiC4JIIQREElwQPc8znC6nqSoUElx30Jli+/FCICdUPjJcWYiIIgitECIogOGfc7Ws4G6QA1QNXKRbSImsNmy32kTWXFkUdzGuWuOaYgmVuQRAEF0W1y22BgyA4C1QJCNJXbSgQmOo0tkRw0NVyNJvLsprLCvXXMAoL1tLm2pixmWz0Pt3M8utG+D62IAiCi6GKB4MFwcVg7r8P6fA3mwZ6Yi2rTStHLQXFTB52lRyiFi8cXcNQw57xAX1gUsLiGiCkHDFRwcwOeeyXlipoJAiC4Hyp9NhtEATnRO/MzeH3oeF5M2lntaxnC1lXczPkU0yYYCiEiDbpZUkPCvCvvFF3EATBRRGHPILg0jAxsR3GdzIIgutHCIoguFSSiMgnayaQZM4oVzN89SG+uUEQXCXiBIoguHS2ZEMQBMG1IwRFEJwzvpLQryjYWQ69jNhei7h//4Hc+vJA1q2ltW1anShhurQgCILLIgRFEFwAp3f2qLmZyYu//71881vfks9v3fbcrT4sb4Yvsdn0LbmDIAguhhAUQXBB9M7eVyiQo+dODFcnWP7FF7fl5s0P9BbczpZYgPAwUTFRFgRBcMGEoAiCC2Xo+lVKTKqBJDpm5aGRId6sb16KE4+X6SAIgvMjBEUQXBFKl29SIK1iAH3HG0M3T1tDr0lGImJwu2+PG54zzCVlyXZpEATBmBAUQXDJjF02VyX45DATFP1X1EWEm6Yt2h85yRHvsQzHeUO2c8s2QRAEJxOCIgjOFXf7xOKli7Z1BTus0UFEqDHOvBm/nkV7RMvexqlMznZBMBzRQ7tjZ3//zjSLZJ7rNry/ZxAEwZgQFEFw7tDDu5e3uDlpy/M4nyzaVDNpYR3EBFcnvA7RWJ9UZunEzC0GN8qyEdz8ZWnbCfSnd26ka9fSbdpcw2uXsSAIgjEhKILgwth2/SoY0qpEi7DBN5IhVyrscId9RbXljE/3aDXhzt7Z7hlQVIzOnzBBMLaSTloIis2mQ0lZ21/bLYIgCEgIiiC4UHrXb6sP/WoFnyjK8yfssIcJCs3X2oRiYsKlp6T2PCoyxpl9H7yDBeMb9q2ypjzo4XMzxr0EQRCUhKAIgkvE3XqSA4XTLoXE0JkzXqaVrYxpbJRtKGBW6OQQumItc33yqYkam5uJi+NaB0EQhKAIgktn7KhVMCBL70Ghhz56cvwxfLtJBMd7rORo3cqDZSsHzUbW3ZSY8DAIgmCbEBRBcCEc54gtX0WExoZM5ZFB/nGVHsFGOllvVrLslnLUNdLM5vLuJ7fk//vGv8lf3nw7Hfbouz/jMEEQfEUIQREEF8ZYVNjqgznqssxXBYawxrQsSSU7e/yNbLpWBNah7XpTyad3D+XFP78hH9/6UgWFi4pSXOw8TBAEXwlCUATBueNSYCgHJh0zj3UUeJ2cWzTSPD02wpCJ3WD7ejaTRV3JvJ7LEqrhwbqSw81cVptaT9NktyEmgiA4DSEoguAiSN54KBcsNXTUzPNaw9rHU7Y5Pdpqg5G7VtYIaKvZPuyGtLO9wbzKeBAEwRQhKILgqSEJC/f+WQW44BgbmQk1RdOKfHF3KbfuHcpaamn0Ko+ii4JxOgiCgISgCIKnjuPEw5hKqqqSer4HE/nN87+Xn//2BXmw7GTVziAsIDSS+V0qeK7FBgpkbEEQBCEoguCpYUpI0MjJ+Q3Uwue378mndx7IclNDRPTnUKhRSCAklvZUEASBEYIiCL6y2B05O4iDZcOViI102CPQ+DwRX52gdJhBd9SIzWbp+hPVIyothvEnYkEQXEdUUIyXL+PXRxA8/fBbzkMYPH9i1Wyk2XQQE7B6JisIhyOU58MdXSt7UA40aA3VEBQZaog/WUJYBMF15NgVihAVQfB0w7WGbjOTFtbg+87ni7YQEl29kfc/+Uhe+9tncg+KgoLCzqDoD4JQSPS4AHhSFgTBdSQOeQTBU8/UGgLzeIWHP4jMbqS1gaBg+PyLL8i/f+c/5dYXt1lZah4CaZaybpeodN6OP0RFEFxHQlAEwVOBiwYTCkMj23nUBXbVBl048oplh+VyKYeHhxpn7qZt9QZYi7rWQx7eRxAEgROCIgieBvRHPZ38hOndN7fNDnnwYIatThgs8xp4IaLxDWrNasTmqTQIgmBICIoguCTcLT8x90xV0CuDU6FNUhtdpUjU9VzqeS1Nw2s/RPbme3gPMREEwfGEoAiC82bk5EuXPBYVF++uj1EgmMhseOYl4K2u7BTNIAiCMSEoguACKYVDGZ8KL5WNXT7OO2lyPh1e7WopXbO08iAIghEhKILggpkSDJq3GYuKqdWDY1YUTmRqxG1OU+ssowdB8NUgBEUQXGVm7sIZDt15n6IUOMlOoihHhxxOW21mav44db2sVA+BlBYEQdATgiIIripZTGy774G0GCTOxkAqTPbHK0G4u/Ba4AmMGwTB00MIiiC4ctBTu7f2ay88b9NfBeqUcdJXNTstekMKNtALRrFz4PkTvotAOLN8xfvdpf8gCJ5qQlAEwUVB55scsGuALV2Acj3sAKs6GONamij8eYe4igt+i2mDio+GfUhVS0dDtGMnG964ao6ueIko7zvBR4L5vSoqWDGIdpBCjyc8q7QgCJ5uQlAEwUVQeFR3yTlEWZlHo5Cg1fD0XkbYjRsFRYtvsBriTA8qPwrUraAboB+sL7zx5lX7e89IXS+Et+VWQ1UTHIyjok9gEN/Gi7z4hKpBEDwFhKAIgkvA/b6HJOfB69JqmK9QeBkdsps/rkufCIoKumKB+Glh3TU64KPLGbbosGV83SHcSIdOO+Qhmq3Te3WnxmNSnheX1TwMguDpJQRFEFwqLhV6eDUFrVWr0uqAHW4wGzvsobvmYZDSpmALiogv7x/JvYNGlog3UCSrdiMHhytZrloIjI20yO9cbOCt89tqTsHxEEwZGYdBEDxdhKAIgovgGMeu+OWY/Kc2kw5CgmKirSAqUGqiYigmDMZYwhr2pNAxZZvS7tx9IN//0U/l5Vdfl/k+8qo9CJC5VPWe1HOYhguYyLwWjc8qnleR5uuWgl7w2Gw6xOxl4wVB8HQTgiIIrhTJKXN1go8Mp6hArskFrlbQWW9Smm7aXbflEHfgbmgyyeFyLW+9+778+S9vyWtvfCF3HxxijwABsdiHqKB4mOs5Fd58xrtmYj5DbEzCmM3G45yVmc+lrx0EwdNGCIoguCSyox4Z6fRwR22GtNnwl3+HnI2W6FkUMLhr72BE6dDdqXMVhKsSr775rvzjN/5N3v/4c5nNb0i996wKi05PyKQZvBW3SQNNZetnYrKGosfTNitv5zG8Bn0FQfA0EIIiCC6CwneWwsHu7GB3d8j56ujnEBNzedh0coCslVora5gJCl8LcLmR1gImznGYOu2BWS0Ew2pTycO1yL2jDnGOuSfrjoKglg3noYdjbF6+s1AhoJNFDCFPBvXZ/O2D9yFO/kn+8vZfk8yxmRJtwojPB6HJivErCILrSAiKILhoksd0B5sNbyot0jkUh00r73/yqXxyeyl8JNcaDc1Bm5mr5rpFAzNRoS6ajrowMs5jNk/0pKA4kgXEykLaal8aCgrktSjbzHi+hD0czOfHiJ7sqaNjPhAVPh/O7aNPP5Uf/vQn8u4HH2BWlpclAoMUzXjewPgWBMF1IwRFEFwkW77S3XUPDzM03UY+u3NXvvujn8hzL/5elupka3xh58nvugunmes2QbHNce6ZgqJFfxQRzQyCAtZxZUTHgJiAqPFHmOss0zRNQNhoLiZyGnW4qmGz4zNKrUxnUSgaPeShnykIgqeFEBRBcKmoq7YosFUAvNU8f6KSW1/elS8fPNRzKkw2mHu2VnY9hRudtq8HlEZ0VaE05NmVJBQUiyQo5uiFYqI/1KEDJbQ/bWvnVUxZFhY5r38PguDpJgRFEFwi/dkTeNco3mAVL9fc3xdZ7MmMl2uiqOk6WW+4EmEtzExUmPtO9IVqU86ceXry5KzOYkIFBdK0/kFghsqCdM6ExTGyFlsd68/zTXD46gTjQRA8/YSgCIJLxJytO2AYnLHe0ApfzWZT4xu6gLjYkwXKar2M089poJAwd+7msK/SjoMnXdphDz7Lw0SErz5oSwoIiw0Ng1m9clRieWrjoiAInnpCUATBZUDPrJgcYJJrD6t5JctqJms6el510cDZ82EdWsue/8kWtn7Adx6i2IOp5EDm8IoRmr1NgEFZ21rYDGazBrZGAWdj52WwRMUO6lHwMNTpa3vORVNKFiSqKPqBJ6cwmRkEwXVF91R+4lUQBOdP7357zGGLNItalvg+riAO2q6W1VJkedTKCo02LVw5Kpmo4MsEhUBQWMibUPFESn6nC0PJFGW+riuwc0gZu2qkQSbSMM6XxlKN6wmVGkEm2rGa18GbigomBmC+mMzAtFUQBE8L9tMnCILz5Rjfadn2vI417BDu+Aghr7aY1TekplV7MkfFBfLmld250tv5CoUJirN8neHWdTWBMsAvQaWYSCsUSVBwfnbqJ8QCVYpikkAfYKYCQmWJGuPakGX6CoLgaScERRBcFMnPbkMnnJy2/trnKkMtFcRDNasgKGAoq+HIedCDKxR+6KPv0t6TD3+kEQ+J9oOM/HTTjUkDr9XHQIqwvhrjanhlsWFpzjMIgq8GISiC4Lw5xqfy8MCq7WTZrrkmoCabShaLGyomNqjQbToN6cMRTY7eXiYq3J3vhmqCUTPvycWECwp7742YkEjjp0zrjjmF6EGm5QdB8LQTgiIILgL11L1DVuhsq0o6CIaDZSsv//lteekPf5Tl0RoVzQ27M07NYfZyMeH5jjv9R9kYX23gCgV3CozriRBUMYzCGGNI8rjI0Hier83JYsy38iAInn5CUATBuUM3nEy9LPMs4LkRjB0cHMnzv3tRfvOb5+Xg4ZGtRuglor1oKO1x4WwMzqlPae852a9OUEwcNkdytFz2xaBcyTBshv0cn8RsgyC4DoSgCIJzxZ0tT3LkQY3keJOfpaOuqrk888zXZF7vQ0TwXhMwrkEMqxau2ftMFXL4GAz8/nBEzvoehMSPf/xT+cXPfyHNmp9lG9b2KzjwpsaAUJr47bazPYl5B0FwZQhBEQTnDmVDumpCrYculQ54PjdhgRjMHspFF538cQ61wcDw5uGZ8I4IR9kaUWe/XK7kvXffk/dvfiAdzxxVvF05tvVhL0+DqelN5QVBcG0JQREE5w49J42O2ONT4OvIu2MmMeH0Mca9fdkH4mWlU9KvERzTJ4wrCT29wOkpy7ex+QZB8FUgBEUQnCvmULedd++KPeQVHkNRQfr6Rc1EWTas9SjL2NmXycaU+aXA2djJlqXYSMVcbamqCjY8cTQIgqefEBRBcM70btcctEuLDDyulZRiwt3wuC7SYxFQpFPOI9F6g35KOw7OiSdhMrZdX/MpKPTcCRMS/imCIHj6CUERBOeKu1T9XV+4X2OY5tcRgoIrFYOna1mt3FpXBrxlGTc85yTrQUpvue252+Malu8rDjMVI6gB4cDHrPMhY7kHFRNMuQVB8FUgCwruBIIgOA/43eJXze2475q6ajV77y/JtBaIQ0z0tazcfPtZHbf1r9gggBHkaTqVUeD4vSY44KaVdsPHqc9kic/EJ4CsUNZ2LSr0bW3NxC0IgqeZLChIiIogOA/4veJXrTw3YgJ12mPR4WLCcoa//N1Ju8jY1WkX/aQVh37cMTaCXVXSSQdB0SC+RnIlcxUU63YjTcsnlrJqiIkg+Kpxwt4tCIInQ3LGA5tiVA4/bDEXFeaYrUYvIsoyx8p6m0JbaCFjw/Z9fglGQ1YL0dA2DUTFRuaLhSzqmSxYH6EN6NLGRIXGtb8gCJ5mQlAEwbmiHrYwQhc7dtZkKq/E21m9vAaAbstcH6VknGd1HW9prV2qlFienSdBIcFbhtfzRa7FUMtYZ4bdCkxPMp3oKwiCp5MQFEFwYTwBx6qHJtzAoMsi/9SgPvqYbmWdW1mxJoKMvb192a/rfKsuntapp3ZydYJiIgkKsyAIvgqEoAiCS2EXN+t1p9ts51qOuf9tWGrWH5rwNpo3eS5VEhMM0woE4ftrf/tY/vk7P5abH92SdjNLt++yulo/h0EQPM2EoAiCq4b5dnPBiPv5kuqaU5zotSBw4Pakz6HDpgt3vKSsoaXDJprnrXoBgBCZvUDgJaI1zIQDn/Pxt5sfyi9//Zx8/sUdzW9R5zPEb37+iRw263Sz8dFgZCIrCILrSwiKILiClCIihznPRYTF/d3oZUG5LtCX9zVSd8Biei6GnlCZaiO7b+diosqrEBQTD6EWDo5Wsmo7aZBPMdFtKvnN716Qb//Hd+WTz2/JGmU6Z/Q9sKL3IAiuPyEoguCK4W52KlQnrP4fMVMACPE1Zqg1SCkXelFBvKQ0vrMri3neGFag1dhrzPVy0SOkllAVDdRFN+P5FBAbyb6891A+v31XlmteYlpKmyAInlZCUATBheHuurSC8QmX2QmPwyEmBvg27HPKjXup1kwJrYW41S4NFHW0vKpkVtcqIg6XAuFwhHClIkNXMDAZOxzCkzGtjY8ZBMHTTdU/ijgIgitB8uVGkfBo9vWMmFFU9I572417U4elvPxTRQVMA4aPiPNkzMWeyKIWufdgKd//wY/k5T+9gjITEXYOBeIzGtIIfTZ8cunArMcgCJ4SQlAEwbmirvQURso4Yn00syUMBkKCDFMmNwwvYaiGN497YZmvLfVwRcpHelbVUqd1zYdHS3n73ffk08+/QLXaRISuTJSrE97eehwwkRUEwfWlitttB8EVIgmEFmEDW+P7ueY5C8hbVwvk2aGF/K3V4x2l+XsfZtCx+3D+jCidPGNuxwN5MNvoDcR5QubRcilrdNTMFtLWe9JwnlWFtD0wzC4/LS0IgqeZOIciCK4Y1AgNnPea51ruw1HP9+QQ+UtYA0fNkx55yKBXAbO0muFyIBUMliCMDz78WP7nv/67vP7mO3bIA3la7P4eoWqUY9jwoWApPqsxD4ic9ewG5kYxMZcGebQOwsLvmAkVklps44c+SnFDykMjQRBcD2KFIgiuGHShXKFYzTaygnNe1XO7ogLGlQoeVtBKydduqADcvMDLC4fM2O3bt+V3LzwvH370URIUVp6ra6oPh9DB8ymjFqdW6GoKin1ZbiAoZrWsKSggJvTcCVY4zepEHviYUUNUBMG1gN/4IAguheQoB/7WXDwPSbSIHa0bWbadrgr4La55XoI3YXzKYR/nwt01MzTz9rD842KqdX9ORIdiPflSLxU1a7Ar4WEOExIoZ5jqB0Hw1SAERRBcCL0L742M4xZW1Uzm9Vz29/fl448/kR/+9HX56LNlrlGS89R3930wOXbnLKVRmPhVHprH0OOahhjwdJFP0cDzJ1YwnjvB+0/wnI5+JNbqsRtlpfboaGCjukEQXG8q/3IHQXBe+Pcru9aRgSwGYIjP4Ljn84XcuHFDPvzwQ/nOd7+D8AOIANZzXDL4aoAXFpWsO4vm7CQWaHyl/Jzn6ZSncYS8x4StRtihFz0Zk4KCKxt5dYNYI38mSN+PxnrTf4wHQfA0ECsUQXAhnOQ4t8voiin0V6u1NA3v7MCc3mmzhduQMifFR1lMqulb7/TZvQkTS/szQrQMUCC0M7viJK9QiF114nPz2tYHLyNljs/b+uuNeEjKeBAE140QFEFwVYHH79oOQQdfa47ZnX3vlEvH7HGryRtv5tLU0Jx731euALQK0pqfKIq1zWd37sqvX7opv/jTp/LyX96W+0e8HsXuO1FhjowJ5ltVtVTzhdqsQi+DFQzGzcpcw8uCILhuhKAIgqtG6dFJWkUosSql8+3r9LLDbFwjlyCDYYmm+65yBa0LUfD2ex/Kf/sf/yT/53//J/nX7/xIbt99gCq2QsHzPmq2haCo57XM925IvdiH0NAuoCkgIEZ2PCeVBUFwFQlBEQRXlv4XvK0o9FIB3jjpjLTSkOlTLPb2vXtGTNt6aV9i/ZY9DOH4jdSylIUcyb6GvNEWb7FNuraFNbqiwpteHRweSdNt9ATQbfpxHZM+wzkFQXB9CEERBFcQSgl/mmh2sEV0+2RGuOONH3xAaGdBMtsOd2RQqk8ntZp9pzqijqehWon2qld1NLM9Wc1u9CdlssyrQ0xsuk6adSMrWAs1UQ7P+Lb5p7FwbFtTCYLgShKCIgiuGOo/syftvWl2srmCW1+TViHLqvRlqRqwWnaYguattJa9j+oSZlE4tDJXQcGbWamgELvKg1el7O0tZDGvpWsaNJtJVSOe206BXD3Rw2y6ThAE14UQFEFw5TBHzhWKfrXAHLtDUUEHnN0wxANlAlcpGHq2h97akkjpYQoTFP2LzwjBC2V9PLXkeMjvZhQUC1lXJii4YuE3s2KdeV3J/v6eLBYLefDwQH773O/kzbdvahfllDYUEOzT0yzQMYYWBMH1IQRFEJw79IyPMPeo2ZLD5+EJpEvHq1Xxzgd19WsNHcQEb8qtDw/PtbhSwGeCHMIOapEjOPxluj02BQJfC3juOarzoV8mK3wW6Z0B8akpaIB4dv5otelqZO3LfO+/iiz+F/n8QSU//u2f5U9vfWy3DteHh82l1bHRSK3oC7EO72nm/VBBEFwLuO8IguDccLfIsLTebZtoIIxbepbOc8jGMh4aUBia2aoES+nSKSZaZPeCgt0dIX236+QB0odQDXzQ2EpXGzgOxASa1GhS0VLXaJZNe0KEfVmqN77bvSYweltL20A0NHty1D4jB93X5EH3dTmQZ3VMf8AZZ0khM1cJA/RwB0/etBM4aYatkJiwCYLgquN7siAIzg13zfy6uXle4SxVOHgZnT1/8du6ARm4cs3yFYoOQoBuna64fOoH3nWFYiYPkffye+/Iy2/+Ve6ulnLEqy/YCarV7SYJCvTM8y4KszvpopqaOX4fV1/ogqsNfKh5h/lu2oW03Q1Zbb4GAfF3cjD7L/LWR3flV3++JZ9B0ehNsdBFP0ODvbqg8BH4Ee2TB0FwHeDeKwiCc2fsGk9yl8hXxcAwpQd1zeVmo8fXEIF+pV2UwElrFxAV6O+nv/yN/PCnP5c79x7IsumkzYLBrszYmGpQY7xLeaWgoI1BDRsa43Asjq8yh+dXQGj88dXX5P/953+Rjz+/rbVWTQtRsZIGL0oIP++j/IRBEFw/QlAEwbnjrpKh2xTDcotZnA57bB6jMzbwdd5wRQNhOj+BpVwNWDUi65Y157LYf1bme3tSzSu9EqMubF4N01XNOoI4DemKfetgiooJTZcz8/kkOJdqBhGz1ueA7C0wzmyBWaYTP1llwoIguF6EoAiCC+ERLlN9cJ+vbtZXKZwcRWU9n6I3b2VfaRrEA5L2qHHW4DM39lC0p3ewnFVMI18PV/StNUzdq7OnGNDMwpwc9xUKm0uO6z+8UYRAjDSdPYads7ODOZQUqVtdpWDcZxMEwXWD3+cgCK4S5pELx2oxuloWZcsV6LaZ4NeZQmEOEcFDDiYmWDKHlpjvfU3qvWdlVu9Jg1yuWqyaRtbNGoZwvZaGxpUEpJsWhrCFCuCtJSzOMx1ImoULm3RipQoIjKqHUlKKE5jNa0yAZ3vYeRSck1laoUBFnhBa4UNlkQELguD6EIIiCK4i6onN0RL/3c5ku+HvfPzK510q4bhbePyG50R0FcrmwptNtTMe6uAZCht5+4PP5Ts/eE4++Pi2HvZYNhtZd2iHPnhuhJ1HYc5fRYCPrW94d++e4owWmUWedqZ9aU8pznE4lwaVUtd66COflEkRQYMCqlFB414xCIJrQwiKILhimHMG7lRT6CsUPJmSteyAgZ082bQ8yZLXeXB1gidDIo6O6Mzffvd9+c53fyw3P7wFMTGTI4gPaAo7YZOHPPywBrD1AoTIm1UYgSGy1CrGLaHlng9jMxMQaXWCc9R/FBSdrCGCaBQSrL5G/lJPyiRsjP6QoKiYZaURBMF1IgRFEFxZ0q/84kVnvFcttJRXSdT1XG95PZ8vUFonUaEXksK4QsGVAB7+WCDknS1Rj1df+MmVqggsdGFgYgGChSFFBKvSeN8KrVRiksDCYqZJVPiVIeuulYPVUu9DQSgymo0LigTmnjMGBUEQXAdCUATBFQV+uIjA9IZV9Pkjp17Vsljs6RUYrKkiAo7fxATjFBc8t8JEB++QSd9tKxSooCoihalv1Q0UFPpi3M3Kh6T5ufUTt3c0oaD469tvytvv3dRVCi3R/j1RME4HQXAtCEERBFcaeFf3unriI3/d816TPORR6+EOhSsI6R5YKhYQcUHBFQmZFYIiCQ836/94ct1H1DMGPes7D52s20aee/55ef73L8oKeTxcM8crd2nVgyC4xoSgCIKrSFqVsEMHPC/B7IOPP5V//uY35M+v/0XPj6CzhqrQkzJ5giW/0daSgsJMT9CEqNBHjfOwBSqpI09O3OrnpJUdg9cxypZuoOyAY2Niq3UrB0crOVramRO8bHRP38ejnTR6EARXmRAUQXAlgXP2Qx2QBZsZBMNsI7fuPpDnXn5N3vnknizhkhsKBbzWDX73wxdX9MfJJ9ttu9EaoqPBN72p0zkY6PLZBiEUCa+q0EwYj2akpghHrh4Je6AX430tS6MTNxcWWgVvm0o23VzaZk/a9Z5s1rVewcGzQGx27MPNktY2CILrRgiKILiSuHPmqZV8maBoqrk082flqP46BMVMVjCUSDXfqJjwLzTDWuYabnhTqXkSFOhjv4OgWJeCgs7cLJ+MyWy+UjxlWD3N5wmanmX99qY1ENIoG/Zgz8ii/jvZq56VBa/k0HUKrrHoBNhJMiSJh0EQXBtCUATBVUVPwjRTQYF3rkisq2dkWVFQiF4Cuu7WuoJhzplsZLVp5HCz0seGr7oWbdC27uCzN7pC8UyDMAkKb0VQnDNKn87zJyAVEIOVBblBMk0DD7mL2SxgN5D1rMw3+xAUJmZ4d0xtpt2y39R32X8QBNeGEBRBcBXxwx08h0KlhL3bORGV3DtYyq37nRyuISiklm7G+0+4/JjJGg773kEjH91+IHfuHiA3nbEJ46ELXuExlCDHk8vQ5qR6Bmts1+KahEPdUCS3ePQYQRBcRUJQBMGVw11q75w3+MVvV2/wIV+dPP/7l+Tb3/m+3D9ay2Lv67KpFno5Ju/vQBbzOcTGRv79Oz+S5174Axw4T4Dk5aK9oGhhuvJQOvcyXtDPZAovPb7GAB1j1KacC0PLDYLgGhGCIggugN0dJFqkVYryxbMOGnjdT2/dkXdvfiQHa7v7JG9exTIKCl+pOGoqufnxF3Lr9j2kanRl3npTzaSFeT2FRadhqx7meNxhjy28Dpmuk2ucdj5BEFwZQlAEwY74XSDHdoyPNFi+C9qfmfVP5w8hoFZJM5vLWubycCXCAxq8twMf+KXnWSDO8ysOW4iIxddlVj+L9rznA+8/AatqExQ8vSGtBridRF8+g2awgxhqKOj9/6bQE+yc9frS4/Dx+zGCILhuhKAIgh1Q4ZBCd/RuU36T2d4mpbJpLt60vcatTw1TgY/RwTGb8X4SEBMIP71zX/71uz+UX734ehIUFB22QvHcH96Q//lv35OPPr8vDcQEn0IqaKO351ZBUukhD95Rk6LC0XmMYF5ZZxutgY9vp21qHFmMn9hMOV2tIAiuPiEoguCU9MLAYHJLVIzo2jbfzZLFpZHcBJFBnnbWZ9JV2zM5eGijhnio5d7hWv742pvy5vsf6yPB7RwKlSLyzs2P5Q+vvCl3HrbSbhbobg4nz3MoKCR4X4okKHZx5l41rTqoFMA8NdRRzXKPOvdT9K9q5RT1giC40oSgCIIdoLvWu1bCFavrVh9qYctHiPMxngXrZi1NC1e/k7/0PhDip36fMlFhKwwQFbM5bCFrGsp9hYL1edVHM9uDaNhHfd4Hgld58JAH+pjxShGG6JOGEh/jOLxOIReKRn1rL7WwTJV2HFb2qLkEQXA1CUERBDtiLh6uNa/r8/f5Rl56+SX57XO/lYODQ2gMu3PEYm8uiwWfo7Grm7Qx3L3aOwWFCQJdqVCDcBC/wsPqcT1Eb7Ut+8jfQ549w4PteQ6F96FiAmF5Dwj8Q/R05z2cHjsYMhAjSA0ZjjcuDYLg6hOCIgh2Aq4Ovo+XcSqIuyv885/+LC+88AIExYGuSrRdIzUcfg3nfjY4RjIKAIykl3zia2tiwlcpKCpMSFC4sAWfLqorFBAVXK3QJ4ehjbXnCgbq8tvvQkLNI8yHJdInzeFueEfWae5Ds7d7PNsYQRBcBUJQBMHO0O3BcfNwBByjPyqcj+heQUgwbNPDvFpZo4xrBzuifSd5kHyyHZ7g6oIJAhUU1VzW1Z4KClulmOtoXMHQKzqS6Vddz1Wg2DCzT2GU8Sm2yrSvoY1XNTSFhrYykVYo0rbS8RHXcZGtYglxctI8giC4uoSgCILTYn7RQOg3h1rjW7SuZ7JCuEJ6BZfYJrHh7pHRsREPGSnjdLzqcKvkiGHqsPFPHTD65yrFejaX9z69I7946VP54MtGDmRfz6fgyZc86FFvVlJteEEpekF/2riDxMC0ENMFCb65HDDju8186NzxmcozT72CTWjCtJaOxxNTmxbyCiEvV20wJue5hOha83Oieov6DdRQA2XkT2UPguD6EIIiCE6Ju106YfxTf8lVATrGNTKaeaXW4lvVQQjMaOnlrro0vvPN+1PHnixVsUL0Y5Xs66rrFkjyKaIUFK+89b78wzf+Q15/7xN5gHLOR6pa6pkJilkHQaFCII0JBw89ktYt0ux0CB8fGayuJ5vqGolHDc1wQ+UU13I9llKkYR3Ga1sIh3Uja4gKijBKHF7qekiRgZDwfNb1upPVaqVtgiC4XoSgCIKdMEdHN+tL93a4YWaPCIfzb+u0usCKCmO7OUhtkfqwlvTyKYDxyaO8UkNvcMWrPKp92ex9TQ938IFg/GrvLyrZqzcCjQPYizt7O8CQetxCx0uFNnaBtk+mldinGW92NUineAXhU9e1zBcLFTpH2GC89LWShVSLG9h2lc6Zp3nMMecKdbRtEATXihAUQbAj9pu9p3d97gbxTl/ae97EsJ2TfbPSt1LT5YLUqzpqxkwQZFR4YGx1xCZyWJWOeT6fw4fzhEytyU7whhoqKizbZm0V2I5xH9/p644Mldh++9XXoaDglS5VbSeFUoDxxFLr386pYB7BlFEXnwN7pnL8IAiuPiEoguBMuEPmuztPd6GWZ1AgjN2zpcrcrVJ00Zf3fWosVfZRvC0PEzCu15Qgsuk6OOc9FRX5UIaWmSBhujeWm+WOSRkf4wPbrPqX96VxPqislr39PQiHDsIB4865QmG3C6cxzh5UVCCyj3JojyAIrhnxtQ2CU2MOu/CkgG7TMcdKvMaw/nZrMkz3deyQR1qL8EMIqf+Um8Cv/raVF154UZ576S075KHCYCbr9VpalFl/LCCaSkEfDpJqeKV8y0iFYLAywbjmezqFWhOCoWsxD56qihfmROHw+7del2/+5IfyzR98V/70ztt2IimMqxUrvDEMguB6EYIiCJ4U9IjJsT4Kr6rVnUc3O5a2aeWPf/qjvPTSS3IEReFCoGkaCAqe4WHd5yEQ0bhOQl29tVHR4HGNKqmaxTRMPaXyaUxUcPzV+ghVWz33Y4k2L736mvzHD34I+5G88uabulLBrmhLiI82LvMIgmtHCIogODPZPSeYHucNmfK/XDlwZ3pm0EddVVJxBUAvveQzRDZ6/oSe5Ih8nR3e1JjCv15IIM4wvVJJerHM3iy0dK6v+ekQEMfRsXwgplnAmq00m1aOML+H60YerNYaHjSdPh2VKxc81bWqeTiGAwVBcJ0IQREETwz1nIVNk3xyb3hjqKj3PSPJgbO/Dm80zkO71LjbcBjN0XILGTWzSJnW0GoCdNInCmwe/mIlnnpJscCDL2u0oYDgSgVthVIe8uC5FPquYmKy4yAIrjAhKILgQnAH2TtKd5tqfbb64/SWMLfslS3u5X6eBdNlmx5rhvehGuiFhgqFZJrFkGkrVnK7HDklqK9Tsz55IEPvQzGzJ55qCGM+e2YdmSEVoiIIrh0hKILgwugdpMdyDpwsHbwak/4GZ+uHEaoUZw2+p5oaI+yL94NiqKZxCgNGmENcfrgESa80hsJQ01qhz9IkX7uSZkRRgcZ+23C1imGlqxM2w1Q3CIJrRwiKILgQeifpsTI0f186cYu4gMhpvnR1AoY21odLBEP70kSqwCBFndwj3lwsKEVC74EB8ywb/azYROzR6TJYnWCcKxR2Gmaa8GC2QRBcB0JQBMG50ztHj7nLVEeKiOZPeGuvr+7cG5GiQVlH1x3wz/L6DvMqRVIbLMmlfQenwnoYGimOwihlmVGMuuFNuCqpNpXUHcK+JAiCa0o1WOosmMoLgmB3+LueLpNnEHQbuycEl/j57Ao9dwBfNXe8eliDL+TpdzO/QMrT8wyykT6HeOjoYQ99GdqbqpOzofsGNU30hgz/LLl3ZmtgL392CLcHhcQCttfWMkee3pCLpdgGuWEQBNeGrRUK3YnpziEIgicH5ASftElD6sv79+XjTz+T5crSXDjw7x6/fnS7/BZq3N4sJKjbLzhAKNB76xuLUp3SIWs5zepY/26Wd2q029SBhimu6SF5xQKF/ctWI/gs1HpTQ1DUsk9hoXms6ZIjCILrxpagCILgydJKI0erQ9l0cPd6vkAnv//DH+Tfvv1t+ezzz9XP2/kDvX8m5XkRmneC7+8PYqQ23knChAdLUBOh1kx1RlUfjTcoGmrPSPsUp6fKCqkSwipZ3THsu7O2RedBEFwLQlAEwblC5w2HCSHB+GZD6TCTO3e+lJsffChHy2XvfEsfyjg8Pn+xpwSSTPcvw8qI+ukUoXawtAkJvkoGrfFmqyBlhsdhgyjeh131pEFtrBRnVCk6O5HT1guC4KoRgiIIzpkar735PmJ22IOL+nTa5ugNCyETtMicanmow17pcED6la9xGNvqagYiNDuEYkKChToK/inM04Svafgr9adjMuHxVKZRi58Ex7KxOZSmbLjMo3oIguC6ooJCdzwJ3xGVeUEQGOYOd3WKrF/LYr7QW2GvN7xr5EzmC545MLOrPNTv2neuQ7ne6ZLnW2iYvpMMoRbYm0sAw0IVFTnLI0D777/T3tJtCqv5mAw6P2m0ktPUCYLgKpJXKEJEBMGjKJ3d0EFOuUFfA3D8933TNPpd4y9+u0U2RASEgn8HzSA6GLqY8Dx9PRqXDn1dxNCHlyhTkz4NZbsiXvSs+Z7OIucU5DYpDILg+nDiIY9+Rza0IPgqQ/84NiOl1INarq4aqHts7dWaNR2NKxA0rkrY941p/Y7ZP21r3zuWM4Nvp8NqlrPztqfvYwqdRmnpIw/SCMk4PBX9lIMguEZUPFnMhcLYgiCYgh7PrSALCbpuMyOF+ErxW4VvV/9ChokJmlXQ75+WmWlTq8DiYxjNRdOjFQoNju9hJ8bDERsys+tIrO8WBMH1I07KDIIzMPKdBjLUIW45VXeRQ3dp7h7mokFfekplEhB9sd8lk6FZGqyciWblXrO+KefjVdlJjqZQ6yLwbjWcxEty7RROpc9CnlEQBNeIar1e29nbExYEwTblN+O4b8nYteq7q4JRab+OYCsQnjLwXdQMhBpPlnJcLfiKiLZntuYOw411xFgKCeJlknj7oh9GcnOFGSnsayVSXi4/Hq2S3glj47wgCK4HlS+pBkHwaNzNTbm75EYf4UJJX7MXEwRxem31qpALVaW34q6qWmqGeDHUuBvqzBCyLhvygV7ao4egHIEpS9u7DqUxy5kSI6T/vFqrMDKVRxDXhuP8Av3hwhWZE2sFQXAN0Gd5BEFwWvrvy6O+Ob5q0MFaiIFGaul4zlL6zvl6hNUAxQoGvpgqFmguIuYeL/JyGlZ+l90x5xBF3rsN9iRAb4NlCx/B891OhmJCzyNhXN+f2ASDILhAThQUfuhjbEHwVcYPO2w7Ps8zIUEoFVZIPdw0soagkGohGzh/PiSs6xqZVRup5yI1iup6BoM4gFWV3caKwoJfObzbCwnNp6Xvoxpejk7NQ5inFS8rbHfKllM9jdPHgLnkqaG6t2BeOeUgCK4HsUIRBGdiyu2VaSunsODqxAohBQXjHQUABQOsVkuCgnnUHAj5tdT7TvTXlJoVaSvrNK1XhGBEGsmiwgIrY58pPpjqqfHeSO4JfSEsVyRy30XeBFpNxVBZg1vsTJMLguCSias8guCM0O1tu74+11wp4zX85h4EhcgS6RZWzfdk78YNhHW/CoFvI+MUFBQIvF9Fl+5bwbBrRmm1Lt/bws+Hcuc8Dkum8k4HW5Y9lz2N88uyKSgd0rZC1b52vw2DILg+HLtCESsXQXACJ/jK0pUy5DdprqlUVu9Jg8hy1chyuUK4hLWII1Q7gkBoslt1t6uiI+VZrqHlKTG1MqEh8nXsFCcenol87kTuNU3O047HtTAZsVDn7VmJUTIIgmuCrlDk47CFBUEwwdhfJjxLnXT6+lhVnnJp8duNyK2HSz2voulmslw3sm5avRU3rWXYru3W3B1apu+irmCUL+ahP8bz6gZe/EdcKPhcPK14mQVnY/KEy3HeuBxocjyZMm3oZ0zxIAiuD3HIIwjOiDu9sVsculWelClyB/bjXz4vP/rZr+XhspNuNofVMl/syd7+vuzvMdzTcB/hfF6jZe9aVTSoeEh5Ka5lmtZ/mZErVygsyrmVsK3bcWzVyZFxjyeNEATB00oIiiDYieQYk3ceusiUn+pQTNC1NrAj2Eef35UPPrsth8jo6oXM5vuyqeaog6+higOKBGutaBYz3DyPSUtb6OKCdkY40WTe02P2WFD0Nlou4WWxhOeWGlzR4UPQgiC4boSgCIIz4q4xu8gtL2iCgisU96EoHq5nEBOVHLWVdNWeVIsb0s0qaVGp5cUafFhYMnY2Fg1unt/neRzhGdCLNBgm00m7gUEZSfmnp+wh96JTdkHRtn2pCYqdBwmC4JIJQREEO9M7RnsvU30ZoVv8yzsfyf/999+U1/92U1abWg7hPA/XnSybDmKCqxM0/IOH1Zd2oRmaZ11avBQXHtewGPPUYHJTrTxPe3W/zvBxfHxeuXEszitT8An0slnmcIiGV6xAVARBcL0IQREE58yt21/Ky6/8Rb64dyB3D5by2htvyceffSHQFHCcXMUwQaFfRwoEJtR5F7/TeZ8JmucgsJjn5JpXjLGIGKb19uK8mVfeE6WVmUG9IAiuAyEoguAcoZufzRcyf+ZZmS1uyCe37si//ef35NXX38Rv8Ept23lamld6bPQQSBITNMT1sIje9MrLEE/lV5MkEHyVgtNEnM8gWSwWssD24Q297ECPyF6FdOyaguDaEd/aIDhvZrwN5p40s7kcNRu5f7iUNRxqvdjHN7A2/6pawJ1u8rkaIxALKTYJCk8sv5LY56QgWkMY3XuwkZ//4jfy/O9f0M+iqzSpThAE14MQFEFw7tAx8vkdPAGzlmazkK66AZEBy7e8oijgg8NqXbXgoRDL62FcLflZLUPc0zxc4hRRRet6ByWe9rKUZvPc7cjOxriHmawgsB7Intx82MqrNz+Xn7/4irz8l/dkhW3Cu4mOpxoEwdUmBEUQnCN0irxoY93w8AQFw0KFxGqzJ8vWnvPhbGZ2CIShnVsB54t/FAxj56rpiXw9B0N9NkMzRZdAuNJhh0b08Ij+45vFLTRjK7a1m2ppt9Yf4rtjrdhaH6yWUhQO92Uhz715U/7pez+X9784kHX1Nb0qpoVxSkEQXB9CUATBOaO+urOTLyko2hkPf/D22+keFF6H5aXB82anmuI5ryiztoY5a4QeSWgdr1SSGxeFKZr7SmaMOj41RTvtfyZrbIuH1Q356EjknS8eyt1mIavZs/rMkxAUQXD9CEERBBdEf/VCYel4hb0Tiok+RU52rI/ndocjjXhSHj33w9F8RIv7SsxgVSYIgmtJCIoguCTUpeJNXaiG+DrysALvS4GUHX3gm4V+uIIFftjCkpZ3UeTDKKdGP6lFgyB4aglBEQSXip1ToO5WHTW/kiYoHAqJFCmDhKUuTE7kafXzOzW6GuPtztA+CIIrTQiKIDh3kvNMhzceBcWBiwgXCmPBcFx+ZlSQXXnKL2diZb2wOb4eXsi3miCPkVslxnFYFhOpTNv6qCXjdBAE14UQFEHwxMgedgJ3lMmpDn6tl7AP9dpbvbFJKlXGoeO9+gj5aeOM04p4yuk7HpQBpHObrRWGMk3KvGMMfZQ5Nh6FSs4JguCaEoIiCJ4oySNPUjrNKefp3ttSZCwilJRHxn5Yo6mbsuGoWi7TFQdafvX1xm0sPq7hIUwn63mE6RQm01LNs1DHTG3K9yAIrh8hKIJgV9whFgz8JlJM99VyQeIkp1m2TGGqPuwT8SK/xHsfh4Rxtx5P+Qje47jnEm8z7KlnXM5weBXHsGVfdtKoQRBcXUJQBMFZSF5v6H79dRzmVLfIWcPeLgob1ea9maXYzB4hzrTzuDM6TXu7dPTxxwqC4OIJQREEZ6SUBuoE6YyRaU55TCEmBoVlwuPbrc8LHcmnpuIBlkWFpVPumTltexUTO1+SGgTBVSEERRA8QZIrTua/thEOzi1wCjebi0/jek/PI90zKvTzxasQE55WtF7/eU5mopz9JYEyhed6jelaQRBcZUJQBMGpKF1dcneF12OUjxRv1exR3HzAFZ9LsW79l7fboyjG2JXUzHWAoyNPdlvMKU/NxMTWCoWW50ogxW1ZJqUZ11yQynMPsDQxnx9Db1nGgiC4foSgCIJHkrxf7ylztHR/bddK08K6ThqkaQdQFssVn0xRftWOc5rs1G133B177zlddDmuQ8pRVUqkwiQrMv3KRNmDxz1NRmlE7XAQZVbfo4sKy7L6NocgCK4jISiC4FRsuzk7ANAzq2ZS1bXUi4WuUHB1YsNvWL2HmohMHvZ4gvh0EOpITKe8wciDabPEzQM6/9QJrO+GnzjVy4WeJimP5BUL7Q3v3CJ2omdRaxD3MYIguJ6EoAiCnUjuVX9xW447xbquZD6vpar4oCt7YiaZIZ1rnSgqUt/Zzp88Gqem8SQmPI6X4zEXFX2JUX6yXDdlbvcyBSv7eRrbFgTB1SYERRCcBXWU5ubMDYrszeeygHUdf41bni/yH+8QixLtCGnt+6LAYH5lRTHuWEiYMPBzQYafhzmay6mXBQlb7UhCBRWtL8oSVk7yJLWbaJ6x2kEQXFVCUATBriQPaE63d3Fd20JM8MwJy324Enn5lZvy1zffQoqN3I7D+0rhlHc+B3rXDqPjZywJAF+tIB7rcxLasP9kHqZsxcLtHK2LaN4qECxea2xBEFxtQlAEwS7Q89HJquO19QfNgrXrtXSrVmp9/LjIvQcP5De/e07+9OorWsuNX7s+TjO2HKcNYyGCYe1h2eNzml4ebyT7zGPKG36jHBXSxwqC4JoRgiIITg1EBDxe/7I8ygN+keYQErSKjhHppmtl2aylaXkyYuE0B/FtB1rGCWuWqJ7xON+K9O6g5YnndYzZfaRePBmMaQ4idVVJzRNZqxrpmXTYVkdLO/9kvB2CILjahKAIglNCB0cZQXnQphUKuEC1CkIDLlGNDp91W+Q1el8K1NWl/F5M5Hg6J4FYXo/VNDSOwr72sKwMz8ZxradGPCvD9vZ5kIeQQqJtWlmv17Ja8RJcq1NujyAIrjYhKIJgF+j/1GyNgisWMxjX6hlydcLdJp2hioYM4y4ainzLNsrqJ7Bj9UewYy/pPIeS4+aTFz8QDhdCrAduv7ZpICJWcnS0lOVypYKC57X6GMeFQRBcLUJQBMEOJDeoLzpJOwNgZkKCWaxQeE4THwNP+nRQfKTJT8fMYz62CwLet4NXxcxmld4QjNz84KZ861vflr/97RNNe10PgyC4uoSgCIKdUCnRO0U4TfpNfpFMWvR+1FYn7Nf80+IQ/bPkz1+EvaDSrFzHwxKthjcN8WJ7nk9x+4vb8tzvnpNPP/sstytDjwdBcPUIQREEp8Jd5zRj52cM3K1Fle3849ul9/EAwwZDhs2V46qf1M3xsFU/kWIYxdJWru/IyLWLufFW5Q8ePJB23crejWek2r8hs32Gz8imnqdraAwPJzmxMAiCiyIERRA8kt4L+iqEf3FKR2kHQvzFTLwzkiqp602HP/QwiLbJxZo3ds/lL36WuBEv0zyEPi6H1Ztcax5MK+Atm6f5Dy/P8hcziHbQ95nestnpqRzHzEa1PKtrksDKmZXiqTXjHI+02KIrmctRtS+rel+a2Vzr1TBb/TGsrZnika2CIAgumsq/5EEQnER2t+lVODlE3Jd1+n1KCTfFamtWctgmHvp8J+enzL5WAvme1tAbI8wOm/H0IjpkttQ6pVVAZEv5wPqx9kx4estUOEBIII43pNMrl/vL+lCZgXyOO5/PpZrVskbmclPLwWwhy9meNFWtdV1MeNsSDjfJcflBEJwrsUIRBDsxFBPE/ZedgGlGVHggQWPKhIQV+koEw97/9eWkjyVQsawxDh3tL2XmuaUwM260M9bj9pqK5U2MmHLSuy6vGGzP62MaCotqrmKiRZynaR4lWzad4B8Em/WgISMnWRAEF0oIiiDYCfNUdIK9I0UM/6Z9WF/raSJppB58+JxMG4KBi6sppreXwbL7Rxv54yuvys0PPsSeCh3h30ltgiC4XEJQBMEO0D/6L3CLO73Dy06P3vQp9IBjkcDFBs8aFI3qEd0kNCYmyoluw81GPv3sU/nWv35L/vzKK7IPQVGjPnUFYVg+xHXLgiC4cEJQBMGZ2D43gEvw6igZ5sxkT4Bd/aQP+8jhUWHSD080PKnP4+b3yPGnQGdt18nDg0M5ODyUFbJ4CMTOv7BDHvpQV3Y+ZUEQXDghKIJgBwr5kIy4rGC0PCfCYn3a4r62MT77oCxzPJVPOUihp4c99Hj1DCpa/7AUnyKPBdM4MwvG6d0pe0iDOIjbvJiJ7YNEB+Vgt+Tmk1xRjjw1j2v9BBODjCAILpIQFEFwSsxXlWsSxENzguYV3TMybSGFQi8WXHR42injiWKovrUxFhX5cELKyGnGLWsSVtfDFkXF1IWi5bSTOjmR3IOmjGFnPmfCEgoJbq+9vX2p5/NeRBRCQg1vfoJmn4e2hQVBcDGEoAiC05K9Fp2dv5jFfLxbAEww9A5NM4ELC4sbpZP1cnO+9t5bBh14ulxNKPERlVQ4Fhi0cTumPa+MDxh0fka042FHPieW6dEMTlYfBU9L2xRW4ulxfkmIiiC4GEJQBMHOwNHB2amAQIpmDpBlFpq5EzS37PLD6MP+l38qTypBsxE3EZDKaMxLcZb16QvCPs4AzeLUPA7SbDNep2Rch5U0DxtQb5HFdMrbBrlabr3YNpiuuSve05PpLQi+GoSgCIJToy5xgDkd5qcy8/AWL/LVMeWku6njXFbvHK0U70k02FNOAfrpHanTxy4S/0iDj3YMWieRq/KzIBgY8jrmpzIyDO1z5/e0LXo7O976yfQWBF8dQlAEwU7QJQ5ND1Oo47N4D1cxaBpFmb2sirkq6yFlaVlyX6yfBYO28kog56R8pLzdBaCzynMByPBkmV3C/OOmmLOLTnQMmK78MK0dFKZYrelup3O38IFG1cdZo+IgCCYIQREEO9A7liQksvEX9Uy6aibtrIKJNHwsN8p4uaO143tv5hethM62gvKou42GMxpLWaAVTUToK3lmK2POk6f02YznaWQstX3fUDLM09hAgUzDz+GWVydys1SCf9w2lja4HXQr6HYZlj0uFDT8+7mpwIEFQbBNCIogODXmvDt4OZoKCQ2Tw4GgWMMBLpHT1Ki3tyfrmreURv3kGC3oxYT1Yr6whs0ZwmvZF5M926hZWKR+sqjQOmaWc3q0K3ZLS2m11GUaYsSgpg2tlPlknJ7K6cnCASHj7FZFBUIvs/loDqpZ2NmZFv0rt8cLwsNPyMzxsR0DS2guKBrYOsWPbxUEX21CUATBKVFHkryJOhx4Lg2Te+MKhYkKGNINxMQ6rVZYM69tcW1lBfpF9BWKGiHjLOTLsRReyePzpflIm9P1nNNjcwHWpRnwfIZuJMfzQBM1XAFkbB3jNORppG78c7m5ADNsG/SSwvLMSMophIPGvEqfPcCzvYoLCloIiiA4Hn3aaBAEu0CXRgnA0EUFDOKhUzNBcbRupMH3y88DyD/9YdaK9A6SIsLN6gEVC2aal0Lvz1cqrCxFd8Q+RW/HsV02zplKF3npI2RDmQaKx61NroZkX8dJpbnrYntM1D4VxTRJGiH3VvZa5gdB0BMrFEGwE+bw+nMHKn0nvMHSF1/clt/+9jn58IMHsr+3kHldSwWB4fS/uC30kr4GyAl3j+kd+Yx5Xh9a7KpCzcOPNDanl1e9kOCj1HsxMW5Bcs3EOF6mh9hWh/HvUnTtraylxTgjFtcwl5DO8SMEwVeTEBRBsBOQEjM9QIEorXcxvLvjrVu35Ze//JW8f/Om7O+LCoqZPtHKHX8vBAw4LMtOb0U99cQMLdfL+1/iVuZp5lxZjp2cbz8TEBb2wkLNqwzceWKQhdq6MU/CGgz6P8ac9NdWUeHDTdULgq86/J4EQbAL8CK2RjF0TiowqgrxStq2k/UK+eUhxez8khDoW27huWXpuLY72mEPlspDFUzlXSQcv5yDx20NgPh6gOXpJ1HB5vluviXcjKnYJOiC267swa/eGLbsR3VRQfMZBEEwpAIpGgTBSfQSgmy7n9msRk4lTdPqA630aZipTunAik56PG9QxsRxlcsyi+f3NC39sQ7LP9pTPLf0/HOFg7g88Pg25VRKN65xVU7brbzNUJzl3MKc4cqHXcGRznGBrbtWVjD85ZD2WfAvOhQTpQVB0KOCYlYs2wZBcAL4qvjv5TEzrk7Aux0t19K0vB4gOR6tnBwb4qVTKxmIjpLsUN1IqjzIM0a1LETdXCsNMGx1/pw8XtqqxYpE79IRmmoosC1lB3pGH86V1IC+vZfS+Ih0ygdytFrib7fUv50Jin4GLiZKUUH6XoMg4PcjCIJT0jsQOCHzQwX4Os3sVzWLrG5fibGtJsd6JBbAsiNN6WwEYerQVya8hBS1MoyrbU3k/LAxMeDGHPRJcFo6Na2IVllMgb4A9B/A2uB960NZiTNIoRuuTDSbTlabRlbSymJ/X/Zv3JBFvcBf0lZ87ACW7ShLMeEWBEFPCIogeGL4b1qQPdfQqQ3iWvWr7JbMLdsKaW/mymlOGXcsr6ypWxqJQciCFE9RAxkdBE4L46GONYRFNatlDkFoV3RwFr5CYfUHFgTBFlVnB3qDIHgMzM/kBXiL84RMN4V5KQovZY7zqw3FhL4YapyrPKfbLn0txsx02yPqIfFN7nAhA/rBBAVKWwzJu3Ly3AnfG7KprUiwMiKlEQ+DIMjEja2C4Anhhzr0K5Udz/T3K/m6QOHWcON7H+/DkjIPtYvt7dEsJjxM5lAs8J4hP/rJT+Tfv/dd+ekvfi6f3flCBYbVG7UYdxAEwRZVnJAZBKen9Cn85pRmINYnBnhb8019PXd6ROswPehjkCgqeWhxdcQo05w0WFnL2m3D7NKGmEgi4zq6CpNiA/NBU2lmsK/RWU6YrQsQbpcOH6SpZrKsRZYo4rNS9Lkog/MlkIG+LaeYFbJV5LFM44Whr89vP5Dv/eg5+ca//0p+8JPn5dNb9/KdTTPeIAiCRxKXjQbBqYFnGa84TDob9XgWdZLDU2dHx6pVtp018z3eH8GfMpLi3pD/0KfmatJfqMJ5a6cMLd5HyxccNsO+E22vIdMEjdTtsnEK2T9LUxMLC+MbA0SsnC/mzewqMw155gLv5aF5tl/iOQ4rjHGERvcx3GHXqhiwLrWX1NZ654wstM8yEBIeT2Er+7KWr8P+Vw07pHn79AGsmPoeMJEVBF91Qk0EwZlRbzPwLfmwh2cyLCpk/6Re1uLWi9HHvVHROKMdJCMWmnv1kj7OTu0HPd4YelyhGPBsd8MJ7UB70LiWaFjUpphI6VTD2iU8qqEKh5ToI2rli2me26WXdCLZzmtpsKdaz/nANZShhlbT0Ptw0rw0NmGo6nEKigZCYgVBwbCVvVymPTJShkEQnEgIiiB44vQObrAyfwJarfSLW9ATssKJlc7GI7rk3HbzqSfVLgfzeBma8eZgTdMgOpP5fC4L5EJPSD3jhZw9fW8uRbbx+WdDJQoVezpsBSExR7yCUOn79lCZ6jQIgi1CUATBDphTwkt/mVuO5SXDmx1eMNNSxrXcQqI+Sn9df7XpVyWwK9LDDZau61oWiz25sX8DcTh8lPBWYXZ+Q7HdoA5mtJRk6DaGW5/ts2H7M48CYxAmUzXoHXmnng6CYIsQFEGwK+ptGEIiZO+jyd4haR4zNJLiTHo6fJOBrQDHnl+Mq1X6lFY+WO32nTvyzsefy8Nlo9tWN+QYZE35fNYcWy8oYOjfVitQRkM+8VBjZYdknA6CQAlBEQRPgN4R0dskjwPx4Kdi7uaDvL23Oqm11zUra45bM3TT+hdOmuSJ2Bbjk1vXTSNHR0v5wx9ekm9+45vy2aef6w5Le8G2pTbzUBcTYJWb9pQ+K0CW9ZtMVzu4QgHzwx9ZaMBsNQmWOlGxQUMyCIJpQlAEwQ5kgUAvxlBzDZMPZk8O74vhlJEyvl2SKbyh1rlQ73jKwVREpa2MNwqLg4NDufPlXVmv7fkoOvsstggqonKFumqbTmYdjHevQj5XPkgDW8PYy4rWtbZCkVcpelHBOjQKC83Tchv2QjdbEFwjQlAEwY6Ye3LZULiX9ItXS+wf7IzyIjlWA6EPk8OiLNVTx1nUG9dQK/IvjKxcPDyONLPys2F7ajjeHoTdpS61VBUItreKCguZZy8ICiiDBhEKi9sP1nLr7peIQzBgDN5/ouUwKHNRwctndSWDdRCyjBYEwTQhKIJgZ6bdiuXCK7mo8Hp0dGcmOU9zmYURD4nFy9KTOE2dJ4N/9nE4xmfUh/1qAPPsIAbT3JwauqU31S2pUA9/IMkWTbOWo/Xa+oNxleIXv/61fP9HP5IHh4ey7jotN/EwNHY5DmlBEGwTgiIInhgmJAYO57HExO6UDm8qLO1CUZ1QjnrCDLSuk7apijS7rNOFhvVgMV2dGJkvjOgiB/Z0fFKHC4WPPvtMbn70kaxRr1rM9QFhr77+mrz5wfu6gmHiwf6WbkEQnEwIiiB4Akw5HPoxt4tA5+DONg3q8/KywWQuamI2o8KcMj6kFA29mNh28B7mj1JU0I+LcF7PZa9eSLvpdBWCOz2eD8H4bI6yZ57RQx8//MlP5NfP/dYOg8C8K1LGgyCYJgRFEDwhzOmoG9N074Z6d6QlFh1wXP6ulF14vAyzYUDP7yPTlJ/odJxU2wdL4db5FeVkKCAKSze1sviwpsKVCeZqaFHOhDfm5k2xFtVc2xzCWogM2Vvo+ROrppWj1Uqazs6ZsEMfdoKm9Zj6A5aGYYzyEuAgCEJQBMGFcJxTHudP1Tk13hihujqGzPPQKePAkzk7+UlNu89EOEyXrcbmlGk29MZknCYprWoBzn+zh5Cm98hE2nZXuVUxFFccdG+mhoQe55hBr+gD0VVQ0CgSDmCH82dkPb8hTVXbygVUxIY1NvsIKWDYygdgTjHceNpBECj2DQ2C4MJw55QdFMhpOKup8tNAP+fGxu73yrC0Ejuh0UId29OMJyMWphxXKxmPj/MTmsWOS3yglK8hHXqN7AVCPl+D4gJpzTdSK9MeCPWyziwoYGkOehfNzmpzRYGrDzwp82G9L0ezuTQz9AtRMav3oEH2UY2CgrC97R6tp15U9LNA9bRSEasVQRCCIgguhN4ZFZify76UaPnj+KY0gHcxCLcmcDLjqpamk9YI8Bplx1N5Dhrmxh53Ixaq61YBsUCYjCsUaXfltUsoKBoamlFYqNZBP/qioFg30hyu5K13P5Vv/vhFeevT27KCqFhDUFh/Nt4mCQrLY2u+25qFrm9s7OyKEBFBsE0IiiB4CjAHao7Q3dxUmA31Pf9i8JGBeukirXja88oypty1Gz5/NY2znLsznmdRQWCYtbMZhMZMVyWO2kbeee99+c53vicffviJzLg6oRvOjaDHcmgdgHkYIYWD8iAIMiEoguApIfs5dbApTL5SQ6eMXzhjb8y0G9mO9ymbuNdQIUHTXMJEEhQwPkm04YmcdSWzxULmN25IjbDtRNpmI23LvouDGejMF1A0Jw1gLwoK33T9iEEQ9ISgCIKnDHV39IWaGoalXRxTIxfp7MWL0OMJc/p2lYfDuJp+VhcG/QoFVyZa7OG4OrFmzUUNYbEn1XxP6moh1YxXfbB+v/KheMco04MeiJuYsBFoQRBsE4IiCC6C/FPaXVJp54A6QKMMS7scJmbDbUOKUB15SvZ1p3AxwHLsznSFooagqE1MIPuoE3nYtnrDKoqJxd4N2dt7RmrEtT7GM0OSnVmHW5xQFAQBCEERBOeOO0OEdJpTnknzWM9td7xV2Vrj4/HGY587/pnKmY3xsr4OH18+XyxksZjLfA6RwMs7MXcesuBloRXPgUD1tmtlvW40XVcUCbVuSgqIg1bk+T/+Sf75W/8mf/vwUzlct6g/k47nV+r2thUNG9eNZf5m9AdeAMa2wMIgCIwQFEFwIfTOqo+XeU5Z5/QMWsH3MdSjBh4fW8q/WNLoOq88k2SkDG3lobySooOSsPtFcMdlLxZ3eNOQIqGFWEDfrENBcYT6f/vgI/n9n1+VW3fvyxp1tLxjW7NylYIN2baEaTefYoiJINgmBEUQXBkew0kVXvBqurpHzcrLPdyogDg6OpTlcinNupF1s1bRUGOvVUmNmjNp+ZjyGVLzhaxXDeo2uoKBf2orbJcV6jVVpcYTNW1FgkLCRYsZ0SDFCaOckQqIR32EIPiKE4IiCE6NupZkwXnBrVvB8c+hHBZz3tRqI8vVUp0+NIHeMYJP5YB0QJ2F2bzWcyLqdHttiolbDzv5+W+ekzfffVeFBM1uqU1RQTGBkbgqoSMyjsCVBdCYvpXlng6CYEwIiiDYgXAlFwFcfTWDUKhlf29Pz6Vo1mu5d++ufHH7QG7duScPDw70ltlcp6DAIKiuBt2ghzs+v3NXfvPiC/L2zZt5dYJXf/BhY1kkbP1Fh2k/d8IOcYzrBkFQEoIiCC6A/OP2EQ7MeAzHZYNkHscFjrpKIDd3Ol3DOK5s6vNv5+nBCC2qZHHjWWmrffnRL56T/+cf/kX+r7//R3nj3Y9QttBLQleou1p3sly2wpti7s3tAV+rppGal4nWC12V4IPAaP1loumQB0MtE73LZouQZqsZPMGTksV2lbqqEQTBJCEogmBHBmf874A5r+TAspX5MLx53BxrChFxs6yijDHPJ9sdpVr+srSR2qoxbmZN/dV35abvbLNVQnPKOEgnPRqMaweG5vflnH7XdbJqIRRkIQ9nz8rfbq/k1Q/uyp/e/1I+OpzLEepRUPBuEYsFdmWzFs0bnRbPo1ivVxAZK2kaygt8Jh2/3+Y8LKJ/A+SxxhpdLKsNTOSVtz6WP7z2jjzEACYurK7jt95287wg+CoTgiIIdkX9xmmdBx0WHBKMoRmdUJ8uy9RxIWQ7OxGQoaU9T40pj7Mac7wTtleztF7RoXWSeZtsZcIreRdJUGhXGktGynAcL42w03F4nKEVxmrbRg5Xa3mwnsn9zTNyuPjf5HD//5CDvf9d7s7+i9xHPQqBfdizMD6RfDNb6TbUx3ew7b0HsjxaoT/0m8QEh+iwUexlM2Q/fBbICntECpWf/fZ5+e5PfyVfHjR6+MQ+RRIjuh2GeJ5urwkLgq8CISiC4NwxJ+kOyR136WbM37Ge192dsuW4l8FloiP/NuXuch4aMa7zY6iZQK9JJTkHTOWVjGdV4mUesg84Y+yimtmeLCsIivrrulLxZbMv3//1y/KtH7win9zdyBI16fTreSWzGulNo+dRLPRwxxybGwkVE34yJmHfPlM7r0Kf+4GqFBbrik8iXahRoCgnTT8IghAUQXBawp9cIOrt3eUXBxv0F38n77zzjrz62mtycHioN7vioY9O5tJWe7Le1HqYYjPnbbb3ITIW+OOlXZ0KIV3DgDF+HCY4hnAW8b8gCI4jBEUQnBY/JBBcACYixpt7VlUyny/0T0HmPM6BuJ4DAeOKglQzXbFosXtb3HhGT8zcQFDooR2iyzUQFHmVZXsk0zIUL5bOpdsqIwiCRAiKINiJoeMJzhP16hZNbLpOmqaRSoXFXFp4fJ6AeX/ZyC9/+7w8/9KfZYV6FBit1HK07mTNJQz83XydgysctKwWJkXCcIVC4zkj/g8EwRQhKILgQoBDox/Cr2Q7jq+JFO9hvEy767LaIBV6vCzXsGg8LiOMqxVtLw4fnaS4bRTN6cMhZSlvs01BwfMiqrpWYcATMB8eLuW5F1+Wl159I59Tsd7M5RCCYgV1wctG87KGbsT+kAdXL2xXSEt1MK/VciW3bt2SBwdWczDVc6Y/obOPB8FVJwRFEJw3cELqjBDxX8kkuwiWI3CRMfBaKBiLBE9rLZZrapg/qJPCsp+LRUe3aA4dLyvLx3WQw7nDeIkoVyd4SWnXtlJDVFAPNNjA600l69m+bssjvD1cbyAmKmn5rI4ZxIcLBvPSarw6Bj0iX3tOxrFm8tHHn8g3vvFN+eOfXtEVD/arogTWX2HT25OEl7ryVuINxNNqtYbxShWdQRBcWUJQBMGF0IsJW5Uwx8SrC3o3UQoOOCl9NzRe+JMynx2M08Sd8KBdqlvWuxB0LJ8lybPoy0x1JYryEeq84Vytme3CeBOqZjaXlSx0heKNd5by6htvS8N7ac730wqF1VXHzEMe2oP9Dfi3YDwLCnB4cCg3b96UO3fu2HqGVbkwOE8+z4RQRGXRwmm7BcEVIgRFEFwIpQc4zhNMe4ldfJi2dr+THODATyeOm8G5oXM4adRxGdPDvImPkeFhiw6CYtnO5N5a5He//6P85ne/hxCoZb53Q8tNyLEy3stzKNJGYv8+hhcxoPGwSuakiUyxY30OxZNPaTzEw+eULBYLKyRZKVoyCK4KISiC4EJxz5ScQk6T5CTUUZT5j2ZceypNYaFmWRfokHR0iw7CZIOlFI/jvUyrTZA+E1cg1t1M3nz3A/mnb/5O3nr3JsTFRh4erWTJO2VydSKvRPTrQE6ZZtyr6qoA/vl2O2YWj6T8FI8y0jaNHtbZ21tIzcerDkCtvG2GbfvcILh4QlAEwYVQ7urLXb/nOVN5p2MgGAoHONkbyi+eciZTMxuXT9dyrMw+CAUFr+r49PY9eeGlP8knt+7oyZgriApe5NEf1kjk1Ylh7+qnGWq/Vt/GKSy3PR8oJD748EP54IMPUk4xbz344odreNhnei7nO8MgmCYERRCcO757NydwPI8qN9y9jMOScS/lL+zT/NrOfaIS43S0GmomYCdKzgFTeWNGow5WIYjF/V1XKVJ3moc4H+LVYs/F0OoxH4n5XPgkj/uHSzlcddJsapnV+zKrFqjj56dUGBL5akzTzEEzRtifPkismmEce2hYHscNomLLkD/G65Pc9hG2ankJ7G/k57/5tRyueRGssW4OpWl4hghhTaOPBcHlEoIiCM6V0e5eHWSy7EKA+zbF3B//eZb7VW3mYVmeQuK+XoVDspPIfbt53wzHaJ53WIbH5Xk6dWodpHAqD+/aBA46NdUaqSs6d94emw/yclFB7HNiq1XI5O226z0IiRtosw+bowZPtuQLQkLmSKEcoebhg9I4AF+EYqKpaWkc5G0GqwNDNAeiotNavanM0H+sMbTjXry3xr3Dh/LFwX25v17KGnms70dt8vkftEQfM9JmCYILBf9FgyA4f7DLzx6aYWnOMK1OAcmxY/d0Lk9hERS9GEyb001xzS3wzFSgfabQzShKtG5ZozTiYYITz1nFYEQ/FMstzPMsumCat9RWQQFHz2du9KsHdrXGpoZwmEMscGViRkGxh1J7nofKBV2ZWMAoKBBHGxUT6IfOmmn2Z4KiUlHRotykhEkEMl6d0DzNn7DUamxkKp+fcQXRcNi1ctCu5AiSosWLV3pUmJfWYscEG0ijKclSWhBcBiEoguDCKPb8JdkDeHlfp3QOxzqLUZeaRMXt3gqKjrxft+PwMvX5ymlqO96omI1W8RlOlxcpxUURD0mogEjDeL4aGvKeE7zCY8N7UGjaYQWoETXf/VkNdmWHQZCDvikquOLBajbDoYAo0XytNcK6m8RrW99D4+fj4RY+sKzP5zvxHH8PgqtBCIogOHd6B9DHYfrL2PPHeL3dyA7Wgow52mRF/GJJo3KO+rlLI31Yume72kNjJ/nnAdpCx2FkRM5jLbc+ILqikY8x0Kn3r6k+LWtqsEG3Gc87rkw/qf4x3YiVKJo11ToILo8QFEFwEQwcwDh0mHbbEfSfe03+R4VDssxx8XPluM9Vpqfr9KkiH1FfSRhVVzTr+GJlWKeohX6ZbYdC7DAJ/7GGHvBIbay8N7x5d5OwfWmkDIdl3hNDj3tt0tckw1QQXB4hKILgQvBd/nFh4hivdJKzmmLKwai4YJjsUeQxvfJpGp2aolNfgSg/ZJrr1gdn9ZRJUTEuLufYR1nLre+XRy78QWF86NiGd6/SQxdeyWDUcpNtDfoIzlSfb8OG/cGPHk1tVw2CSyEERRBccbKvSL6k9B/jsifBoH8fsxh7d7zHsnWRl1cbinKNF2UjLLf80IynNpryuKXzUROkLcfwcyKy5Qsohu0Ju+j7naBsckK1nRjMwzu0mZAnMUQQPClCUATBFWTsQugQNW1+RP3J2Ml7eGq8vfedzP3VY/c/Seol9W1pN1LGnXEa5PZTWH37GN4fhUSK00knoWLiwcSENUhhwqJ+yqahvYwOeajxNZFvLXbF253UNk1U523RILhMQlAEwVUlOYosIhIuADyuoQU7M2hX9JX7H4Vnp+hVxynSiqc9D854kDaGNcho4+QaZU2COESEbS/LNzFRGoWFxW3bD/tg1oWwNZDPw7aIopMMgqtFCIogOBO9oyG+u/dcC/E+rBacGffyFhSu9VjSIsTAP+vihIYzM8bRl1ki9e+vnHlh+JgMPR4EV58QFEGwA7qL16VsDy2uWKHmWcgsfQvOiG26oTPvNydj0xvXW7ioGFDk8X4VZqO+dDUjWc5nrxclLDBmnnwxry0wHxafVCUILogQFEFwJrb34L3jKUo1Env7XeEWs8MTcPUp7J25O/uzb1nrzVcmuBvUEVmk2PiVje3DXgpn/YRBcPGEoAiCoHeaOznPstG4gzLPgXMsf3Vr3I2MwzJmeO2pfIfd2uguGMrS/tCGls36OoMZU0xg98hbdVeI86kffCJIDRuPfS7kbXMSgxkHwaUTgiIITs1GXzyUcTXBr3Y/1KJmaeInGtpJh3zT7JzuX6kceHvtwvvTEq2FjBRmPD7OT2iW9dCTOnehkdVAGkvbeH+wNPd8OIJxr4JYFgeYq3eVP4DV1JB1PG8zq6y+ltm7lulzP2qpOwgKdDbvIDG6vpeLoZ9zEFx1QlAEwSlJfha4Y71iFJNyIeGoWNAP4G6TaYspWoS3/kMm7LPm3jyRM7ThyJwyPWgExmni6X77TrVgqZ3bUDJuYaKhP/HSMCFBvMxNs1SEGNg1bipdnaghJBYQEotWpE4i5mIYf6aCE4qC4LIIQREEwRk4yauexeNue0h33JbDhGX0+fYagKQLhFQtwXreE8WERlMdf+er0zLro87Gp41Onrx5LpRjnDTW9qcMgsskBEUQ7Iru7+HK3FIW35BU06SWWXlwera3l7nxskC36qN86SOqUD6YOkEMYTbNoejgE0sraRHqY9M1ncTKBvUKO3mks3KKzxgEV4jKvgxBEJyOJBIK50aYNOmQYllVWBCcjbz5kuPPePSE3ddxRbYC4SCmfdsahIkK1pmpmDBBUUNMUFDMpE01x5zPbpSf3u04OLBbEFwusUIRBGdieycPV2Tv+ZcrUr6fP2F/X/ZE33aS+7j+jD6dHnuY/sQq0Ca2mwo6lqk5qaIHuYgrCmW9cRsaZMKMhzpgkAsdqlA40NaoTyFBQbHWlQo/7HHenDSGzzsIrhbV+OStIAim4Vel/LYMDncktn6pFmmv521UPEyUK0+Vv8ifWFPGSelx2bQLTQcfLJHxtiYkJjejqw3d+C4dKCpodg5FhzITEjP567vvya9e/IvcuvdAGvSpaxlbf+hzRIcabg/jAucQBKcgViiC4NRgp64CvDSjjzlFHez3/dd2KSCcUlhoPxN1rj36mXybEI/D3MHn1QrmMaNIl4y317H07f0yU45hbfgOyQEBMZs1SLYoslUKCgaeM0Fb4+/90qt/kW9//4fy8e07ulIxdcjjYrCZG0/jf5LguhOCIgjOBHfu5Q4ecB+vhzp6Y9rx2lsCwpnKm8D975Ogn93xnKbOk8YFmLPbHLiB0kY6cVuxV65OQFBoSEGBvxtjaMdcXaWoKllXNcRFrbUudnv4Bzjug1zsbILgJEJQBMFZwH6cu/ip3byKhbSfL6K7kwbQH9aWk9F0KiNnHgPoHH2cNJb2m+LkcfpX2N+gFx3FolrG8PjRrIrlp6n11begKMAriYMBzMuNudYAmyXT2naYREtQjwKi1UMflRpXLbS9w8qwMuuJMRhogq3t5WEQXA5V1/GrEwTBqThhn83dP/fxGjLjjPt3bZZ8Se4Cacbd4Xua5DpnJY2VKccuxyvG3A228pbjHrxsXG6nPtpU+nJLA1MFFieFczUZ0afVtLzP0zr6x2Le9rqDflZYBzHBEzEbvdKDV30UNVOkmMU58KjeOQm3ILhc4rLRINgV/8rwsEaKKkjr71vN3P17NXYdeZhkZYWyTDmLV0Mb73vKyDg8HcdNZtwzbOToe5vC83lAZGoMlDM7FQ1FQx/y3ULGuDqRyglUhObirUXMzqWopK3s8tF+HcOYmsVpSKPlcIh/iLP2HgSXQxzyCIKzQE+wSZcZpqTMGnyhYAj1GgP1B+b63DWULqLMy3F0VNYpHY4OSUsVbExLl/WeFN7nZOiTyLMvzSnTbOU9kEelz0rqpxQJW3h+jegC6mEf4R6azGF8KBigWKTpCgVXJ/bUfD2X3Zc7T/27jWwKZh9TFATXHr1sNFYpguAU8HviHoGmXoOCorEkhYSKCt4OKS3Zq6qAoYK71pRjeWyY8HJHi9iUpjk9uUxTxrjOo/D6DHWMYizVC0X/wzAVZnM8Ps5PaJb35OhoKEv5GrrtyqhtHm/KGEASUFBsbsis20NIQcHnibKGrVRIhb9kNZe22kPxDS1jgU+z/PuRYz65Mqq6lQ6C607chyIIdiE5Epr+gtWFcQoKZMzWtjqR7mdAbHE+fcdYhW0T/s1jnucPvo1I5OopnsVFUab5Ft0dDkgrSenBOHm8onIelHmeX4ZFXQUN8gbwuBvx8ElQ9l32i3ie1niFYgGr08zxQmRWQ0zMallCfBy1lazZbKpboO3YfRoif9QRE02D4KkgDnkEwS5kZ2ROgc92aHVNgit9tZp9reyR2PlwyI6UbbIDGo1dhmfF+54yMgjVSzLiDBKPoOg1N/PeiZcX9XbC2xzXT0rr2GU58zxOICSYhVc1q6Su7O+5Xm/k3v0DeXjIcypQm4sbMF4JQstCD+jqTsEoeQys5TYk95usZCovCC6LEBRBsCv605U7cnvegz2Rkuk53s38yZTlisKuaJ9FO3cenuf9atrtCaL9F+GTIfWWf74zdCMenoWpPrzvkem2gtzTlSS7ykOFRNq4DDdtJ8vDJapW0qw7+eUvfyO/f/mvKijcOgoLhNorQ1jJcasUPWwwajSRN+gmFZV5Or5Fg+DSCEERBKck77B1h96LiS4/3prCgmICIS8xRD3d0afwrEy113SRPw53gW3cGfpYDMf9u+3OVOsij2ORLZFxFsZ9jPsZl5uoSGdMgH6Fgq8NL/fYUFBs5G9/e18++OhjlR8N9pwtDXPPqxTWQcY/1vEcV2OUn5LsX/8upMyzaBBcOiEogmAXfEeOUK8AQIYf1tjIItlcxQbze0dD95RCZLjv9FxlwjOUWRovqj8p2GVpJecwXMJ7RugfMn/YJznqCZ9I/xD8K9mtty1uk7DDHXOZ1zyvwlYojpaNHDWt3kFzjW78/pq08WEPYsLEzErK0hOw/1wpEQTXhxAUQXBK9IqoZHx4lIuJtz/4VP7l2z+Td9//GOkFymAqKFiPDbU56EWFxXun4Tl0JGX+heH+zp1g4f9sbr3tznGty/S4zrjuaSn7Kfso0x7yA+IvqGIiS4NcbH8P7iJhm1o6xFs0WSGHTyHl33+NPnhoSw+LbDqU89kgbLeRrm1lvVxK21B6GHrybhA8pYSgCIId8SVuOhS6oA8/viU/+8Vv5eNPb6ug2MzmKIcDUvFBJ4I3YE7aBEN+UJUa87WK1UScdbJnO2d8pPGI47TyWP4w9Zi2Qz8CjYzDXSnbeb9uCR2XMOSGpphIaw1codDDH1ZqfyuKCe4m7eTMuw8P5O2PP5e73UPh3UaspQlLignemURBwHMwuqaFtmAppYRvPA+D4OkiBEUQ7ABdAU1dBLwOQzuHgoc5uDLB0A55pN+7yX1kN5X9SUpl7ITAce7Fc+wsHssPPupzeflZP3/ZfqqPMt9CO2/C/5pmllfCuiYqeG7MG2+9Lf/9H/9feePdd2SF+myxhKw4lLWKzEqvCkF1vWfJRvYWi3SlSI/PJJtPIxmbloySQXBlCUERBGfAxQRFQwtHQ1NhMZujzE7KVP8Ab5F/FAdXEL0WR0Mz/lWJrSvR2ZvQM1Hx4OBA3v/oQ3mwPFQxwTuQ2JpGLVW6NTfvTMLDHjXERDWfQ2T0u1nt0037HhqnoCFq+MxIKsppMi4LgssmBEUQ7IjvwHkBgP6u3UBQbGxlQk/IpKjAV4t+yHf0scO/ythfVN23eXNDo3T9vkJh58XwMEdXW5yrFBQTkBOy3KzlcHUky9VKZiiXOQxiwm8emIUEDc04VIVQLQ1dDu+VyyxSpsdlQXCZhKAIgh2wHbgdD3fB0HE1Qi8TNVPXxPMntO4Yeomrw+RsRhNPfi3VLQunP6FxXNl4xL7n82Gi/2Jq5sTtjBUrsMJyfUBz9W9bQzvsSb3/rKwhMHjXzFoWuhO9uzmUf//u9+S3z/9e5nv7Kjal6aRbr6RtuY7Vo0ICYSki0ukbeQp6xCQlyTgkZTwIrgIhKIJgB9w1zdIenzt1e0BYC6fTJbPcbVeWW4+sJOWdwVuUx97Hz+ehy7Rfymk8xC1moVl6pSr24VI/W/NBhtbTSiNzyjhBg5zFuA/kePk4/7Sw3djGpDwdm6auPcWJ/924/kAPj78titdqfOroPqp/XboOpvWMhwdLefX1v8lbNz+XJdK8rLSDYlDD/weerMmPpiNSwCQBkS1tFxcSrGii1doFwXVABYUvyQVB8Ci4e+de33bzfHcxwZft/ulq7Mg6hYf92vXv2HEhQdy6BWX+acHoGE+dkpqliWsJhvy+a5JxzS5emocXm6WOtIfUn+blSY5D4uWlJTTKEcchLDv4Mv8xyeNNGdCrN2D5duks8fny74fPjg3Rwtaosqq5KrEn6+4ZlPyd1mLtBnUPjhp5sNzI/WUtD9a8rBRUtdTzhcwq7Yk5WTjo52U8mW1vWJmd4kFwXbBvURAEp8YEgu/2ueOnu7CfmuUKBU1dV66aHNlW6DDtdjGUI6rZRxrgsxmEvWcswnFeiY9QUqYHvT8GaZwsUJwy7XFYFhUmqDh3K2FIYcgVBrszJlcoVhAfy1UtXfsMylhq8NyZ2eLrqPM1FRS8VwVP2DySJcQFT9N0OCYN0ZFp4CGsjJE+FgRXkxAUQbArvp8v9vATWRk6qOAqYtKBokLFxOCPZ39NFxUah7evNo3MN2upO0oGK/l8dSTvfXpHDrq53DnayDsf3JP7h7ZOxZtabTrG8miT2NVCdqikgQ1viGbjODYbw+NlXhBcFiEogmBX0tK/HlLQJEOLl36JP+ILnxBcRVRMcIWCu8L+rzVchbK/KMXF/ryS//q1PdnXm2FZixf/+Lr8y7e/J+9/dlf+8reP5Fv/+X1574OP0Woj87qWqrK1j0zZrXWtAoLPBuFKCOM8qdd6t5b2nqsrZTwIrgIhKILgMVBtwdCS2zv52OtfWezqDnpvFxPuth1bnXBhwZArFFW70hUK1mbJnYcr+fiL+3K02ZO7q5m8/8lteXDEC0o30jRrvQW3/0cYHFKybvX/kAoKGkUFQgoK9k8jrOpn6LiRMh4El00IiiDYiXL3jbjv8U+krORuAqbH0suyx8d7G/SapqwrJmnKWl5+lIKyj0G91HY7g+kynsKtJRomPCPF9fOXeWW4K+wPgU/B+/dtrPneN8OxAdRNMZAER0HX2fM5NulSUHapT52t5jLbuyFtvScHjchyMxfIDjlCvIEuYb1+xSOBrtdI+mGOphY5QLdfPjySZduklYq+xah1AhWC4IoQgiIIdmZ6134y3PG7jchdnVBnB/xX8JaAGJFHK+povZT2j1nW6SebCnOajMuIh9a6Dx3tPRk5rt4jcNEw2R9My0d5W/T59oyVvr4JC0iCzlYdeF4EP5leIgpx0WJXuoYCaKuFVPvPQlBATKDCbO9rMoPIsD4SjGDPS8HAh4vpo9DnjIv86fV35O//8R/knfffM0GhDQo0w+ZiRsbpILgcQlAEwZngnn1rd38yk05v7ATKOqcn95amtNUa+WWdXD7xEbSsqL8NG3nDFNeBy3xSxknZW9G7V/Ptk7fTWfG+p/op88p6sDw+3yxuosINRTxfhidZpvNn9OFgSLaot0K4hpBYz/bk9bfflz+/8YEsW94QC2qBlXlsQ7GQgqGrKUJslYIC5OPbt+SVN96QLx/cR/ksi4pB84zPixYEl08IiiDYAd91D3flvqfPu35NWbm3AO7tUd7XAqmKpcv3HRk18pGLGfR43cnCnpPnkUrLPjR+ptn3PGJOj4bjn34OKrAmqvs0+o+kZ1GIPbOl1iyW8Ukus00rXdNI2zayalr5wU9/Jf/2g5/JnYM1RAbbDf4naEM9dQNagysUK3R2CHWyYs29Bcp4x1UO27eioNBpIM/P7AiCq0QIiiB4HI7Zq9MNuJPy0AITE5pCwfhOiP2P8zL3fOGYHC2bTj6FBWef0aB3ZqQw2WBDlfa4FH0N+iYp7kkw+rjDqinQp8jO5jA4faS5A603a1lUG/m7Z/flGYgBrlgcdTM52CzkUPbtJEvf1aZtq9sXWVy8+NNrb8n3fvRL+eLeAxUSfBy6PlwOxjuN+TT0wg/gaSdlB8GlE4IiCHZE/cF4r87dvO7Zy9+O+FXq3lnzKCCYdCFheUSdenJ6mq99nT82+jaer/NKIed0XP3jKVuM4yeld6QUDGWc+LbUsMgH9lt/m/RxR2Xm6E1QQAlojsic96aADHhmMZdFPZN108qmviEP2oX87eMv5PY93thquKvVWaAxtIe8/f578uIfX5b7BwfSqqDg4RAUqqCwdj7j/PewZIbzoAXBZRKCIgjORL8L30iNt0rFQ409PW3wBEmtRWdAN2AyQkGBOgivoGVFgzOizdMgp+nKZjU04qF3omnEc/5ObPVqjJ3/IH4GvD//4IP+aaSMjzn+w5pU5N0oeG6DHZIwrN66bWS5WsrBciWz/Wfl1v2lfOM/fyR/+uu7skKV1WwBq2RdzWSF/zJL5B2l8y54ngVP7GzRD41CQ+9FkcYZjAU8zRR34pYbBJdLCIog2IV+z4647+wX8FtzqbtKFu0Mhl+tHcRFISockxMmHDxu+SkGz1Dmn5pR9bGDYZrzUEvpAZ6ZCrw7hm6PT9lT2XOZ96RAXwMx4YzHKD94+vCKx4dl2hr9+l+Pjr/b7EnDqzqaVla8+mO+kAbi4f6yk5uf3ZVbB518dijykxdfkRfefFceoM1DGK8Q4YPHms2+LNczCAkk0Kn1zdUQjOnHOYBdeVJ+At6Sy8xeQXC5hKAIgp1xB4OdPvfum15Q7KmgmEFQpJWKvPwAJ5G8uYXaUJ0DzbozV0LsfXdSNxZHmIc6AV0lYeimnaTwiZB6HkzER0tomdcZlZ2asu24jzI9Lk8fWCk/dJlfgnaYp64iwDoIylbvOdHp1RrVjRuygjg4QOJhO5cDuSGfHoj85y9fkF//+S9ZUCBLHqCTg+VMBUWH/z+6AoJOtd8kKPpZ2nyYZj2mKCbs/9n0TIPgIglBEQQ74bvtfkfPs/75VaJ44I69hsrgTp6+0VyAv9ERWCu+m+O2SppO7+ZULW8X0hBKGSc+F+UUHXuVLDbyHB+T9NkUnZD36vmPPQIo+yj7T1bOgeQkJ+RbaSoOQ1vviVh8rv8H7FCIHQ7R8ywoNGZ7sq72ZYU97bLelyPkU0gcwt786K78t//xffnja3+V2fyGrNuNrFeNtE0LUcFx0ipFQlchNG2mL0wgP/7cJxUEl0QIiiDYBezLbUePEKb3CRjE7WmjvQP2X5Q0fy9zLOV4u4vyED6Cj1aO6mEGczs7Re/sJ38+NzIOd2GqD7cCHZeU+fqHszDj8TLPmegX9L6frp6BZeilpGver2Kj50nwsWJ//fBzeeHlV+Xl1/4iH9/6Qk/EnM1qqWH6bBH2wLki8NGsV+szCK4iISiCYAd8506hoDt7GIWELn/DAXRqVme470cOysxvWah1CONqfe8Xhs9D55UM+AzKGXne7pS9Hce4zllGY5uxkam0M/rQ5R9G/1glZbsy7sDlQ0ToKgLDlF4tl3JwsIawaHUlg4LiZ796QX7881/LUbuR5aaTo3Uji8W+3Fg8I3Pexhvt7P+Kdozh8D+O3WoGRaqF+l+GTE0nCC6YEBRBsCPcd3Mp2n2PiwF9eJOKhWRat6gH47uHJiw8bQzrPnnMDW3jY6qlShqOGM7ruArHjTAOk2EbKB5u1X0c2MfYQB7LSR86z71Me54zbjtF37aqa4iFucxhf33rHfn7f/i+vPH2B7LkORP1Qrr5XDZVredOcHVijrwqXS7qQ7uQIMPRkXea6QTBBRCCIgh2gPturkbwWDlvtfzhp0v57ItbtkoxMB5Lt7ju7xFeBPSTOpSHYGroLX+6E+yx6N0UlcUHo5Xxq8zU3AvyH/C4z1Ns7C02UteVLOYzqecL+eiTL+Rnv35BPvz8gaxnN2Rd7UlLQQHjORh81RAXPPwhsI7/gQBXJygy7HBIEFxN4n9nEJwS+pW84oA9/L2Hh/L9H/1IfvO754SPnu7FRGmsj8gF4yOWoYuNcdluDHpM5ozLyLjOVWM8vxQfCKTSCEKPkjI+qGfUFUQC9QH+H8zqfan2/qu01ddlyTtp4j/JusJuGGKjgqjQlQmMrasU1VyaprPzK9gP3ud6AnAQXE1CUATBDlBUcIWCAqLpOrl9947cfXBf/c+2mDC/5ELkPGHv2TighxQRKa14mQU5vRvFZ9H2aeQcT6E6ZaeMXxXG85uYbxYWhq4hlNUAHxjWP7kLhYPtYLANq3S8IqR6Rtazr8lqti8rpNezWu+Qqbfa1q54GAxCFGN33QaG/2tQFWtE1vo4siC4moSgCIIdob/QHT7DtALh4kGFBPIHooKNzhmbU7I0pvvCMp3jyUZ+75F4dV3tQGdTzZnnZoP05HGd1IHna1lu3Nct567pFJZ4HbbdaueW8qdgWb8CldIIHT/Zkv17tvWXzp9JaW+j/zc0tDLW0bthpstJ+TyQBiKiqexyU2tPEYFQhQQM4sIERSuHR4eyWvOUzhK2CoKrQQiKINgB3X3rzt+EhP9cpbMww2vGZWo6D1FzsXHemPMaheN8jz/GfFRMMLTkiXid8Zh5LslyRdZDkPOL0PH6Wqeo7+Ry73PEsD5XHMz0b8k9Ymrb941XaoAsNXuzcgpIrZfbJFHieamO/Z+YSQNBsd7syVrmEBS1PjyM+doPKtPaFv+HeFUI1EQ9F9nfq/WkzoqHR0rQNlsQXDIhKIJgJ5KYQEwdAJxQdhrwtMwz87i6I8TOmeRQONLAmbmV6VG9XZwRq6ppw+OxFYxkKY/4HHJHCXbnlmHdIizLPT9T1CFlODC28XZlnGi8EAMpT0NGVXSkRM5ljILD/spq2qb/f6Llmsf/E3zYOR8utqchVyha9OuCwidY17U8eHBfXv7jy/LZZ3d0Rz2f11LV/S5b+8WLMbMguFxCUATBziRHwWcvwCmI7CE+t3RyHAzVEue9u9f5cGyYr4jkwy5eNqp3pjmhEZrC/HCHvVuftl08r3wn5Xg6DzevksKyjHkaOkyP6pGyzlReibej+dC+PfwQlX0ei3slBvrcDERSloFK2bWnNnnbo3LZJ+OtiogKcf7/QX8sSPV4+KOpIBxu/J18dOuB/NM3/kP+/Je/6t+wnvGUTJ6aaePTtGdVd25BcHmEoAiCnfHdeY19+AJCYh/xBQyigvn4dxm7d47nzis7MRrjMOaV5s6PthNoaD4MHWhQ/BpPcW6EfI5FqkfG42kab7qig4it6DAfL0Tsl7+/UtrrsRx5Frc8a9+/bJXI6/Xt+dIOgH4WjSCLhqi38+3o7/wkJgPMmKt9JTTtfXBbMJ7CfGtudMBVCfagT6hNgzBY1zNZVXO538xgC1nJM7LqalmhfN2usY24lpG2ax4XoXVn45+jBcFJhKAIgp2xvfcGX58NBIVsbiDcQ5qX9Nmu/jLoHZnFGWbzclpRd9fpZmfGDhQTEKU5WjfXK5oAd1Dm2hFLzp1hyulDFpdpvryehlZOBvXwZvGck98t9DdD8zBHExIQI4h7PfbF6VMH8HPZc2YTiGod1md7NWyLFOq2T+Uso5jwvv35L+yVVw7xmR+rqpYDiIiDbl+a+mt6zgWv8uAtvHlOBaqpKXpMyUbQbs6ZixgjuL6EoAiCHeAOlaa7cHoI3oBIhQS+SkwndKfPfb3Hk5FBPNVxJtsUeb5HL/NLfAqpWob5zFNLcWdrzFRxam4eWj4FRNFnqmzVmGH1UvaAqbxdOG3748Ynnl+W++chHpafg1bhrUwrZUNgSds+pNz+xIQXBZeJCu+Hqxk8FGIPG1vAuOrV76Z9TDM0ptJR+t499qQtCB5FCIogOAN0CPmXJ3ftusfFGyIzWgc3gKQ/CfJYQ6uttOeV4Ul5MOJ5uzDo043p42xqrBzBxy/iSqpPyrYejqsTn4ejdcbpFA76SO20LcOUl9umUNukcrv3pJle7ZHK/d1AZfxN/T6V+vdl6MY//sCQCRjlBtFkytMQpn2k+hZ6meURn6Nvi61xk1lDjwfB5RGCIgh2gLtuGsUErT9DD7nuDCAmdOePClUOewcwsHE+055XhiflpXSe3ClhOw3LfjxdWpmX6pQge3LocX/E2+Y+UlmuZ7mK5ll0WD6qR8q6ZBzPY2hOIucVQiKJihJtO6qrwoKFBH/v/LdXQx6NQYp7aJYyYOy3Txdj0VBUiggyFhXaiG214yC4XEJQBMGOcNdtgmIjLXbmPJnQd+fc4duvWBMRbuoAGI5tnM+055XhSXlF2injxOs4Hvd2uZ+ir0FZETeKwx2aBqigaYqsCTxX+4CV/WaKPC1PlknlpGzvdTxNyngm9edlamWfKXTKfF+h0NWMlOem4kDjmjLSnFKN6c92XLzMY0ON483TJAVBcFUIQREEx8D9dbnP9jRNBUXF+wdQVHR6slx2KqhQu3F1AnkuKkpnpMIjpc1RWX5vXjZs4+28fl/e53ndPs9e6hR1Ln3o9b0PLfP0xuI+f12RQUw/qa7OoBShXd3B20encs+D2aEE74cxn1th7D+NMXSmE3nj+LjOSTZVdyp9XB19FXkw/buXdd1S+SA9VTYVL/M8X+N485ARDxUPg+By4Pc6CIIR5a55Ks5wU/M2yhtpulaNVxzQ8U4aXII7fo+bMW0Oo4Lj3S4r0skx82VtLL/s08vKuIao5HV8HAR93sD6vm1MpPHGmKY0URpa0PRsRYgKDT0fIdoM5qHF1r9eWortY7Vg47jbceVlPc8/yabqTrU9TZ1s/eqEXSqbwvFY47inp+JlnufncspZREoxofEguFz4PQ+C4JRwV86nKTz/+p/ln7/5Tfn4s0/Vgc6qCo7SrIaztCdD8s4USCOeHUNhZJCnziKZp09Tdho7rq+pfjxPy/tVF4ZGWn3QEL7MDSUWprJU1ygcrJvmJivTRTkZ523Fx3VOsrLuOJyqM5U+Jp8fOKe1LP3dU/lWfFC3j5NBWLZNW3UgIEJMBFeEEBRBcAzcTfuuutxlM/6399+X5198Ue7dv4+9vO/+zY3aigSMYTI6A+I1ieb5L1nLMsdhUcXqpHhhxMs0r4zDPE489H6ccd2cZqh1rcG4jLlqyMjxsbEslTvenmi8aMB0uR0cm0cqpxVpZ+uzj8KxEY2P+vKQlHPx/jWOSG+etx2qsQ9uhJQu8TpOHk/bFOVlnIki0EhepciZQXBphKAIghHjXXOZ5o59D1bN5+owGVZ1LV1nD3LatG2yTkSfDoY3XvXBtmm/n+OImaMAzC8Gyg6G8WSZUZlPMMe9nGGRVivijtcdtAVWj5kjUJDFhMfHxrJUzvoMSEoqHve0k/PT0OV2IV5/vI2cqbwM2xT9aZ1RP2W74/Lt0w3LNWS2b4SU639ln6+mtF5KW1eK1QRFuZH+D1kiCK4kISiCYIK0P1craWAPGW46qRd7MqsrfQLkHMJika2WPYiMvRrio15IjXJ3GuoQyjjee0dRxo1BHO2y82HIX6e+3F3GSRknTCLPbz2t5SlvOz42bw/DW05icmXRwFiWJs80yZ8FGaUTJfrZUljibXK5JQfbIefRUr6GRZvSyDg+ntNWecLmMXTuGhbtvcwM79omwToprXllm4n23P5+2Ekr8++RotbWIzkjCC6NEBRBcAJ6aSiMQmIN4/kT99etNOs9iIivYa+/L5tqIdXiGZnBZPE1hM/CbiAPX7AFBAefEGkeAejBEPRYwxjaDbJ42+VmtpA1+lvzSZSIWx0U6N2xMIPZGk66hd+gKPC2dPB8N5vxWQ/qW1DKlZHS3DnxpD41/uMD19mHCQVFI9YvX3y8Nm8JvawYR3vk1WiPJPpCwYZni3CeaIh5zmC8/0bd4bN3NbLnaDHXW0jzCZt2a2r7/NoOykNfaKOfCqHOIJ2n4dtstmFfFgpNa/MhW7y7ZLrRGKtbb5jjDONzflbmt7u2saxvtmtQhVfssK07by3VeWArIEOfCIqQce2BHxUxO5zFNtqbWlqaymZ9Wf0NIi0arWsYxlxXfHw5tgu3ByqkT4E451bh/8Jcvlx28unDVh7IDVnVz2Cu/I+Fbe6md2tN2zIILhH+LwyCrx7mK3pLeJK7ZtoaDnrZNRASCFFCQdHBmXXtvrTtQho4TLhP2FxW3VyWTQ2rZNWiLvzJGm1b9MHO7PHXNHzt1IEkU4cG1wNHsa5uwMHtw5lAUMCZWF04JAqJis6aDofwq8u+MF8VHObMKBbovOjQzTkzrtUsjjwrY31C52WWkglGLJ+OdA2ftZrTuWIstK8hUPQSUHXs7tA4D8wR28oEBRy6On8KCjpNWhIUNhNtp9d76Nw4R87LJqGfCJ+f9UxImJjQkLURquNFXXXp6oQ1gTomJjhHwoDP59Ckllsb1ucTPvkZOSqL1VhHcyy/xXCtig5WNEFS1rO6ydLfQ/g309nRCMejoIAwg3GbriuIBvzd+fRRtrZPgy3KQ2nzPdRbyHN//Iv86w9/KZ8+aGU9r9M2hKhQ24chjcacRRBcJvwOB8FXC+65H4FXmWFHT2dz1K3ltXf+Kn967U05PEJ5dwM78T0Yf3VjJ89f4HCca+StkdfA2XFVA3ICLiL3BjMHqasPdCIwOjVdoVBBsY9frBArcBb6K14FCNrrL3+ukSTnRGcKpwYXiRxbnbBfwyYo1DEjy+JuFBg01qGzI+wBL5QbGI9xzTABwc+xoqCoO/11zTnMVVCwTzr2tELBhphjFhSYH1coTFDM1RGqsQd+NhUFHM+dM/vsBQU/uzlJGoVEv0JhQobb0UQBzWZMKGS4QsG61t7rWCnHskReoUDSsnxEC5lmGf8+NM6OcMdJY0q3rZb0xr+FGkSF9mUT0zEoKNbYlv6ochMU/FtrDTUVRyjr6n355O6BvPnxHbm9rgT/9VTUUrbRFGzTDVcqdEZBcHmc6X+gH4d9lAXBdcV26zwBk5eB1nK0WsnPfv5z+d73fyAPHh6hjI4SXx/8P6cTNGOcjmj8fx9Oho6FzlaN4oBuGkIAnqZ3ZvzdvjZDvQqug0b3QXXAlQge8qCL3+gBGNgG/W1WMIZwYCoW2BcdGp27Hahhufaz4bhWj9PkwRw7oMM6GG+zTG14oMcPh2hVfFS24yEVzjN9XpSYSKFTheGDWJx5Vs8cLHtI5WWIfK2jfTDOMo6JsfF5OzhffmbOyY3bR+eIbchtor1jUG5D9mr9p/HZJ+fDQh0TLw1RrnOjW2Z/7qI5FuH2Y5xmf6/8d+NYKHVT5cZZ6N/Y+2FdzpVx69PGs/7y35lxbFPe0cTrsP8G8+ZfpZtDKOxBvMIO8B/lIQakqDhMtoTxr6XiFGEQXCYhaYNgAh6qeLg6kgfNUg5Xh9KssfPHr8Z57b8Eufs3Z0iHwDWKOod0HOXu3RwXxYE7RI27QzQPpmU1XATkC+xQw2q2VHFhDg590nlpOzpU9rFCPQoPOkU6JY7FvujImGdjsp7FkZ/mZ46eDpLlnBPGhqBgf6xHt+mfwhy/tTEBMAxVSEFg8RBHpSG3EvPNoXodEyDoj06dofbJebNOKkNoAgqiRh24zd+2BQRPCu2ckgY9s176TOjXDvFwLBuX24MrFpyblmuaQoN/K9vm/vewwxSAoRr+bhjH63B7qajDRLn10B1GSmJCP4dt94rz1e3PubMf1ua24sGxtcwh3uYY24xCjn8XVENvfC3x/+2oaYSHQg7Wjbz38Sfyre98T375/FtyC0riB798Qb7/q+fl0+VGbqPr+zDODl0EwaURgiIIJuAloEdHh/Lee+/JX19/Q9568025f/8BnAM8iC7F8zg+onBMKiQK89UKQnepjs4djTprGkVCck6sh85sVcIFBcSEGlcM6OjoYOlq3MnSAdJpmePKv3RVLNAwXnLEWUwwrfOA40M9/QVeOmzU0XG54qHjYDx+SCWJB/bPUMfwkJ/PnPZMT8KkWGCeCwWGVp9OU8UG6lBA6LbSOqlf3W4wOuyqFxT6eXVb0LFbyDlvqjVaoh7bpDlY/xQXfZ8mduycCp0D6lP8cdtlQaF/kyQoNCwEgm4bbkMKLYpAGxHdYW4mFvj3NAHB+tbGVijwGfj51Ph/BKJCBUVvzOM2YD32vO5aWeH/4Br/15aY/50HB/Lya6/LX9//QO5jmn968x357cuvyMt/fUf++NZNeevmRxAePvcguAxE/n8kPz9jO5EhCgAAAABJRU5ErkJggg==;" vertex="1" parent="1">
          <mxGeometry x="-645" y="-405" width="524.24" height="338" as="geometry" />
        </mxCell>
        <mxCell id="muEvSU8Ju4tzbuMC0IyN-2" value="" style="shape=image;verticalLabelPosition=bottom;labelBackgroundColor=default;verticalAlign=top;aspect=fixed;imageAspect=0;image=data:image/png,iVBORw0KGgoAAAANSUhEUgAAAhQAAAFcCAYAAACQmSd5AAAAAXNSR0IArs4c6QAAAARnQU1BAACxjwv8YQUAAAAJcEhZcwAADsMAAA7DAcdvqGQAANjNSURBVHhe7P15lyTJceWJmrtHZoFkzznv9Hyr+XDz/5s3Z/pMzzSn2RyySTZ3srkTJAiSaOzEvlWhANSOWjPC3ePd370qpmYekVmVWZWRkZF6I8RUVVRUdDVVMbXFN//L//K/XO52u2ngKWIzTZc6XG4305Hg5eW0FW0uExe0wOVWx21Ym6O4IfMuEYakxYnhC+LjkkcpJHZgYGBgYOCzxGbT1hitYUXbbdaszf/6v/6vl7/2a7/mwMDTw1F9cCkjAIMiBoD+miEgU0OkGBsMGA4i9xmGw4EElookBgdamlGhf4u2eBDDYmBgYGBg4LNHGRIYF0UOv/7665f//t//+yY28LRwtDHBH8CawzBoPhsFMQ5sVODKsSG4ifGAIREpIpoBYkGCCNrn4zAoBgYGBgaeBsqYABgStTthg+K11167/J//5//ZEQNPB2p+/8WgoCN2OqYTyqDwTSeiRPRVjAmIAMZDdic6uN0RfiAXw6KC3TMwMDAwMPCZoIwJUMYFRoWNi2FIPH349oZdTAIMgdpvaOQuaJ1UzMLsj45C/MXBFTnY/AMDAwMDA08B3o3QwlVUsEExjIqnDW5CYERctr2JbuHNcBeET3f4LsY13fIQdsPDYwYGBgYGBj4tDoeDqYyK2p3wTgWHgZtAjApuU2BQXGsYiEFvrHukQg/rp9J0RdvAwMDAwMBnCt4Kve7NUBsXzT/w1NGtBb826lsfCXPw3wby+xvzs5k5xicTcBUcGBgYGBi4SdSuxHUYz1DcFDAGjlD8/g7F8Tgd9xfT8XgQO49r+sFNxeWWRwwNWxCX7a0OB8tttPYODAwMDAw8VVxnO4wdihtBa3hWfOwCGxYHGRWHaaceuJR7UHgv1wZE65UYE921IWG/yCxbHY2CJjkwMDAwMHCjGAbFjaE9krk5k12wmS5lQGwwKNr7ogd2Ky7ZpeBBl/CCpcEg99RiaKxhSAwMDAwMPEsMg+KmsFFT7+5Nx+19GRV5KnaaDt6pwBzY8KTslndApml/3MtttzgeA8OoGBgYGBh4VhgGxQ0B82CvFR/zYdqecRQUutxPW2wLH0T84xUwENixeMg7IUZk1jQwMDAwMHDTGAbFDYBFHmPiI1kVH8kuOGI8sGPBg5aijcK8cIPRge9ss1MoBgTGROgEio6xEf0DAwMDAwPPEsOguCHw42AXau0Hch8ovPebGu2Hv3irQxYCRkXe5MWYiJkQg0EGxfxEbZkPSmNW9i8MRc3+gYGBgYGBG8QwKG4AmAC//PA4/dv3fzG9/NY0nSvsWx/1KqjRdyJ8zL9DM/Dy2x6KSVwhwsOYGBgYGBh4VhgGxQ3hlZ/9Yvp/fvt3pi985Vs2KC63uzw3of8ttz/UFcfjUTZGjAMbCPkYhbzd2DAWlkMTnZ+7GBgYGBgYeBYYBsUNgAX//HA5vfXeh9O7F8dpr7C/k+lnKC5lSFz6ExPc7uCmB5sQdeMjiA89Toa/uQMDAwMDA7cBw6C4IfCq6GF3fzrfvWSD4uAtBZkEfHuCnQmMCPXGVnz+sBzKtQEhIljuGtwCUYxvhwwMDAwMDNw8hkFxQ+ChSnYlDlrzMSh8jwLCBuC7FNUThGVgTIe9DI320GZDHr/M7Q/cEIjpMfA842HGIPzr4or/sPir+GRSAwMDA0+GYVDcEPhBsN3lYTq7PE7t45gCWxJ8PTMftDLZMsjrpHZFfOSKuJgNSoPQUSG5eTNk4LYje0jpybmvHQMqRL8vgmxbQcUo7+zB4GSM4O/jpXgl1TndTaQO1r+EI0wcSz5SOs7lGRgYGFhj/Hz5DYF9BX4Q7ExTNAZF2l2mwPZsutzmGxSQgYWwYT+juDWtN0fGBJ/vxqDAIqyHN2NwDNxWxJjIXyE+d2obE6LmsHjzOy/uf+IcH36evzn0+J5oReWrUeRnfmEAe4rAMhwex1m7WTokamBgYGAF71AMo+Lpwsu9FgB+u2PLb3go7Dc72JnggcxmCMy9EIF2RwTu1f6JIaHD6LrnAqfd1MPViUVrMAau8OHR+aLNQwbBklN+uxlqLdBilsJGGFfY5ixpYGBgoGPsUDwr1MQuLJ+KcG/4+Yq6FeK9Dbgz5qQLHaSM8TFwG1H9W1226rqKUb+n/xdkEKcerniPhzVlnNRIWiQV8C/JsCHSQjNzjWI/JHpgYGBghfVKNfAUsWnfm4jRwHOXgB8FsyuyTx5uZ+A5Sh5j4upCcWI4kGbmncQN3BrULanqw96rILes+NG41v0laHjMQOKlhyNQWmqcBIuEQiQzvuyvwxxYwsxGdezuGF0DAwMPQ9awK5PKwGeNTOK9rW1bcGCHCOtCDjEOypfdiTIoaikANaU3V+wyJsYexe1HejEmQPqweoyYcMHcj63bSWGDwn5Ax1caxojidIhRUTQnn9FjJHwaeZWxkBc0dj1+x3wxMDBwDWxQDNw8PCVrYvbi4Ocr8GSxeHA4Tq+9/c701rvvxbhofIOHNbl33oIDzwforyWlR+deFdYmRo9JiiW/GxWga+uy4QUKyUqdqfGCkuvySBStcco5jR8YGHjRsR27EzeDbEQcdRWZV0D5HgVM2n+33U5nMu2w7rjofOvdd6ff/cM/nv728/94sng4UWh023OM6tHqz+5jjyl9XrtN6WiW89qheBi6tsjHg69Iqf12SEmBPpCWadcSpW3JHRgYGFhj7FDcGDQZMx/XnKwZOr8gmuk7m9ZZMD66OEw/fvVn089ef6MtLoukG3Ee8mT/wC3HaiGvPozhsKb+F/TlfEkAlVd4zcWzSmnhGlEgsUtUTCGmRdHAwMDAwzEMihuDJu82fzM10/AbHrrUJH/JJO/Pb+vqVJF8lvuguKOklgZF9yW0xqPiBp45qlset3s8PkJrKAzPlOCp7tmYcNxJ5COwljxNd9UIGRgYGADDoLgpYE/wRkd7bqI+qo1RwWTPNyp27fbTXhEHdY1JfoyKDlIVFZZXswO3G8sFWX226M6+5hczIMXpMp5nbrK7lRHFWLJzDbquJda5BMWb+fZUaM7Jx4GBgYElhkFxA5gnZ4GFP0/jL6ZpGxRZGODZkNjs/NroeocClK+5jjzhLaQHbgsWZoHfzsCNA+j9uMu+e1Q/Ji5LvFIredO6xkrF9fpOudEo8rgSNYE4ZVQMDAwMrDEeyrxB1NY1E/LylgdgmvZDm/Lzy6SXi9/4uDqDFwNdfQnKlwwGbjeqh3Cv6y16s5mRjI1a1EWMkaSKP3FN09Jv3zWw1XGNhNJmbLZwQx9NlVcfawMDAwOnGDsUN4WaiTWhb9s8zRw9XwU24niUDFRXrev5H4k1YkggtKSB24fWL17UcetQ/TX3uFz5HRVOwhkjed8DKE4sjAlOZJ/MCnfDQPFO3hgYqiabI4L08PwOYuRj2evQIpxoVj4wMDCwwjAobhhMzRDTclEQH7vhNigk1a5T5zQOVQIxauccf5cZuK3ofQ1aj12zkNdyH8QPjxtgefWz4uU2g9QGh8P+7wf+RUk5axC77UrIX9kvi2E/h2bQLMs59ikGBgauwzAobgptMgZXp2NxHJ+YXINmWVnLzjP6NSBukcnALUb1U3e9XkPu/cSw4HMbLNAyLr+/n+pI8flhOb8GmvDlsT3qy78p8QwXxtNe7oXI30BRGD21W7bEFdbMuEZ4YGBgoGEYFDcEz+G4p3NyRQh45yArQsOaHwUVtrsSGLiNmJ/DXC3OoaUvfwkbtUMgbDf1vZK2R2ALZHEKWzQGyaxEMv55fBEGBcTv3R4wNEzrgTMnc6jwqNDAwMBAMAyKG8SpMbGeuE82kh1xnZVQqbRQ9MTBdeIDtwbVPbj9JkU6kSMnY+9dDIjttOXh3BbmtWIMClJZ1243bc52+CywldFg+4NPs8vluYi8qrzzq8gfypo4l8s+xoEHgI8HGxXLgePkjYLuS6kHBgYGrscwKG4YNXXXxJwFoC0s67nbcPwMArXsNNhb17XxDdxO0Jd96e7Lc+eFUz15vLz0wk88ac2/lBFwxGDY+rVip2j3LbglEh0yOORnF0LSfmbiq9/81vR//vp/nr73458rnZLIGCEZslWCaOnuEssyDgwMDFyHYVA8Q2y8xdCm76VXC0ldiRa7RQnFXUztPXLgloOu6kt4oTjrGPrZz9L4toZScntCxoQfrNzs8r0S08a7Dv2nzXHj40jcq794bfqXL39tev2ddx1Gn39krr05Uikp35IeNgoHBgYGTjEMihsDU7wmbU/gwTxF64BtUTHmK2Cjwm6T6ymIsVvhgecB9HDvf9BDRwUUKhERuxDb7ZkCeXLC8UYMjXom4kJswhsZGTp4SHD7w6+JIsdOB3H3XpoOu/vkJKOC/LKjgd48wFn6T8EYG+NsYGDg0RgGxQ2jLwlrwO9x7bpQjHmrG1ioTe6+FzLHDNx6VO+Wu+T0v9moYASor9lNwCDw3Yzqc7nweWMDyqfa+04ChsGB5yP8p7Dk93I/UqL9xM4GGx1k0gyKJc35B4sYkUvYsBAaGBgYEIZB8YywNgUy6Xc0g8IU9NgsGqfpZ4kxz99KpHeqc5bLMn4RuwVe5PETQ+/LUNCh/55LTtejDA3Cb713Pv3sF29ODy4wHiIfYICwBxFO6bk4Xtr4sBmxMiiCaChCppE5ZUyszYqBgYGBwjAobgFqei7zweZBW1wWpkJDON3UKI7IuxcDtxGz4bDquYa5r+XiRcJeufxvZUBu8zbHcX+Y9oeYCv/0L/9j+q+/9/vT62++1T6GhokQI2G32+rkjolgDul392RU5DYJb48AHt48fdMjfhEFTVHiMZZyAwMDAx3DoHiWaPN2vDVha+qeFxjujJ9ieSXasNAzcDuRfnxYRxVfVB3Og5jyx0ggRgGiMQRE3LZ47a23p5+88ur00fneqZEjUe001F5C4niQkzdD2u/DGM2IMSrjShH+1dDSHRgYGOgYBsUNIVebTN+ZuJdTMksAuwvEJNbTv9y+IHQQt1wIBD9sUZJr6YFbhPb8S3q1QIje3pl8Stbtr0W3zq+Enm29++AHMo+X00HGZ2mL9hwVZX6NlM3lcdoe99PZ5uBcAvJq365Q7rwlclB4z3crFEceMVLQmJGLu5400I5U0XVjNtz+dxpfOq5LeVOovK+WoTi9hqA4FRvuwMCLjGFQ3CAyJbcn9meIp4WG7emQODYQrk7OMTJiUIQL1aQmt6UZuI3QUs+ug7uNgx+3VPCy7RycaRiIJNeE/J2IneisucXnSE9PfMhq1z98FcgnfVve6mimA3GMujPleU8EN4YHaTOa0Ihx8pEUvyfGB+Kci/KZ7q5jg2EDUQesFj737ec/ZH7wjQzpidGgP4wd1zXE7Rie7ODPHB0c7/SlhzR2bggts2vI5fdfeqvID7S6vEUqt7FOH2pRAwMvAIZBcWPINV5N4Mt5hsmaHQoMCvstpUlXBsJqPvLEJZLBUVoy3cHrcWMWu41Iz4Zan2l5ov8wEXlLI78yW6ckfZwTNAZApUmPm7A4eD0USTGQD+RrepCDv9PittOif3Z5Me9QZK+BtJLS2CL/Bwr//JcfTf/6je9Nr77+jhdQdPjYFnyTt0DKjzHR9jMU9l9z+U/qGBSzMdEowEfdoAW6wFPG1RLZn2adaVVC153QUmKBmaXDSdTAwF1FzV4DN4BM+DkGfaYxdzHxzHMRZA5oaRdyAfyl3oHbDTqw39Za913vS45tyRf1TscXDfnORA2IpHoYYoRWikAcJc0uAiHFKvIHP3l5+k+/8V+mr//bv+V1VYEHN4+HeTn1WyQGRpAf7JQO+Wdjogau9MW4WGIduh2gVVrL2Lu8BdnhcIufI/FXoHgDAy8ghkFxk2DO1WEx/TDbxuGwmowiuZp6a+LyxJ2lYUXmr5QM3FKkJ5e9dw00Nnz3y648bawAlvYYFELJyIuuoMs+DLOk0h5lMBzYvpcSPvf9/gfvTxcXe4cNjS1+G6Rl0j6cFf60O5uOPChK+ZCLiPU7D2RwGi3Rw9fF3gQq35b3XIS1EbSQCNwWtEFiuiz8BTmcmIGBu45hUNwgMr0sF4825baFooVmyoS0CLu7RPPDfZnIQkvNPYeB24f0Xu/B014zJ/+N6OG+vV4hGxQeC4yK6CqZR2EZ24aSPBgViWHY2SuP/UQjhByA6R8CUY7273yrhuctkN22dBDg7kgBVqjXe8kNNSy8TxVVWBd4mWnVPGVdxqZK4VTsskaNFRoYeEEwDIobAtONp6E2uWaeScAxRLXo5QQViSUqLohMhccM9nxg0avp8JOea/Fi+Pc2KtwGSUsSg6JW7cZ9nN4nBfJ8k8I/FrbFQGGHgjzkUSQGB9+9OBx43oMEyQHjI0ZNvtrJb4rUb44gwZEdDUq0V9qjdM4PHc9/INKZilpKOXO1bhSV6Wnm6YOUMO0cX2gJt9HAwAuKYVDcID5+ClJMC1pqEYW3XYzOYoleaxu4zaheW3SkaDkmZn86d4ErDAkn/TUxM0ovWPoLGZGAcrDPUYhu+5RPfgY900XJYHRgTPBZbz7pXW+p+BXXS56rUKRUkNa3SxTIn9k5LD22JAjfPChqKO3Re6RKB6c/tRIk5hTVPgMDLxqGQXFjqCmL67rC9VPPclLDiFhJadJdTmlBTWxXJ7eB24L0Yu+hdT+uezC9D/nYxYweG/o4dL3Xoz80qcXewjIA2K0gTrTdytTY7GwUYCT4gUvxGMk8N4FBUb8lYj08pGmjgsA07aTL6RNsbos0qoQ9pugmcDWfKim+qtX8Lo78tFePWfZj4abKPjBwmzAMihvG1amn0CeoSHFFuJb2Fd+YqZ579Gv0XPV7B6Bx0sGN8i/02O5W3BpLXpd8FC59OwIibaX3WGvIb4nkdc98Bpxpg6U1vw2CQeEfKUNYfuK3qpd3MBSf9KROmeDbiCGT5aCGt/i7CTwql95++fZLHo6NH3SD4vrS3kwNBgZuD4ZBcaPI9LOe6AnVFFUQby0UWKhNbPKd0moVGLi1yNs4Wy1TfBEii3PBb3PQ0fPiOi9ns1hJl8sOBt+QqJHFseI+Kda2qwJNH8UpKs3z6BPv/Q8/nL75ne9OP/nFmzYo/AAmwk2fg0sPUWYEs1eVcLQZ9jV6NmjFD+aCrct0Gur+gYEXE8OguCG0KViUaScT1nLaan45a3OhT1wOZcZdSSxp4LYjPcXdeAwKL9qJaP2X5w/S4xzbAu5I3EhxjPER4Ouhx8HGD2PyFU90kjU7B+wwABsIzqztSiiubpFgyLz25pvT7/7+H07/9KX/YYNiz8+m+0NXqqHKyssgTn+CJct1NOMawWeA60vRWpg2X7T7aU2WMQMDLxqGQXFjeNhU0xYMAYmSWvpBn7bE1YTm7xMoFOrSy+lt4HaijIQikGP1YyMxK8QuRfU2sE8HyHq8o/BpwFsbtSBKl7PH2NAkkSwd75ydVyS5nfHeBx9N7z/Y21+3cFDAty1skMAWz2pauKMpL1wvdGM4Kc0JKFcvW/c9OtXAwIuCYVDcELJ49EmoT0ZBLSwFQqTAzbWhKJeP8uUKtmTiL+2nmgduA+ghP9anBTfGwRrVi94JYEGeeaHrsHzy4hTXc6/X1R+27On8fEMzAuZczMpoxKDIK6t5VHF/mccVV2+DSMdSZ9AyeiTWKZ4mHprTdUX0NkrR0gcS6uFl3MDAi4Gc+QM3A09SWfoDTTlMykUzkNDyIlam71D2o5tR0X6UKHGEixAcuE2gS1hseYDxQsSrlvBqJNBtvBSRq3n1qDqeWwvLXxLNCJhHwsyfh05jLOW7dEfdrliC/C0vRdYl8Dltf1Jb/pIvYyKI6+c7xL/c8uNmZiHIwbdN/PymIS1klMxmvQl1JGVpf/pwGegceZwnDB5QnY13gfqocg6qTuuHaK+6AL/bmk51vcMfGLjLGAbFDaPmFbvzrBQPE3Kfd5iEEioxi5rP6uOpXNQnvloMLDNwq0CP8PPgfs5Agdxe6DcZ6FyvO+5ELdByT3uxdbOB12nz30ILgQUyLGpwlPQpKj5I/JrXr79xKV9y9PMgm/zq6RJ9PAqOPJFYq5+B1KmupwXXpMqxyHSu62wMYGxpulwYVU5r3xozz+kq/cDA3ccwKG4Smrn6pBys5hoFrpugCp74PMHlkqq2lLNV3gRWs/jAbQB9/OAwTb/86Dh9KHevTuPHtTbHi2lzKdd9F4ODL04etDhDMS7oXTQ0wgF4uWpufnBTPT+Xx2UIp3JvRZkL08vU0nRRhU7SyBcTpXNuAj5tmt+YGdQ0t3L4rZLL7T358yBtxcQNfC6aqvw97qbrNDDwLDAMimeETDQ6zvvEa8D1xK3/SGgROnB9K4bvU4tbyXFbiqDcgdsAlpJvfPu70//2H/7j9O0f/lQXuXnY8WxzmHbtHUoWrbolcq7T8kIdm1sgbeHyFnx2o2CHlt9tDCeL/afHcjR1dP09Lr6K6bn3kHXNTxGH18t9C9ALvcCipjLu2IWR+edvbtBXjlF/uF8eCbRcm8HAwJ3DMCieKa6fVM1dzEOeh0W58hGZoYOvYLUYiZXfVshiM3D78Nqbb0//8rVvTL/45fttQdKSeqnlqS1IHDEovvejV6Zvff9H0/lBfan+ZVnzEtaMCcAx1EaGFunT5fxTw6ofra/lvvI5RbzCXMKrUN3WJf4My/44ULbzeWWY0fwpI/sQPPdSRDhyhKrtH4FrG2Bg4O5hGBTPE9o8ZgvCxgRXqFtvoV+It9ea42fAkB24NXB/7M6m7f1fnQ7be36OwouYv9dwiEEoHgbFX/3t309/+hd/OX10wbVwvjaZWLl4l7TCFcZj4vr0jLKiDkoVeb8iGt+1GuAWVcHLZ8yKl9x1bk8XKs9srMmvznAJm8FjY0IeTAf6LSYEB/qEdOkbp+5NIaCj6ZppYOBuYxgUN4jVfPPYqIfClFrERHehSepcEyAPxE27e+pNufMEP3BbwFJCHx22Z9ODI7czxHA3Hb2YsRCxLGEQfvDgfHr/o3MbiCxeSyyXJJKHwq3FbCmDfxl+OE6lrk+ZLML3HYwmsnwyaE6lcVj82ZhwoopbQAEP2xXz5sAHuOa8+eiGwjYT5EL4v/y170y/98d/M736+gc2/NLe2a+YzQYdCMXEGBh48TAMihtCzVflflIg78mKo78yxBsAW09lB81qLDyvvfnW9PM33vJCxWQ2cPvAPXh+kfNCxJVuehaDIksP/earYPVpUfXlvDidrLrLL2WCCuGuYz4eLPrW3LKw/2FKFvwmPvOStzkGE0xCiSnBJm70+MKs9emDbOrLXXKqiZelpR++84MfTX//hX+eXn/n3WboVUzMicgu3R4yOQv8AwN3F8OguEks5pM2hc3udWByg9gSP3AgIIPCvwQpo4KrJz6U9Bd//bfTH/zxn07vvPuBt2fHtHW7QH/QfRdafy7P7nv9ch+17XKO9sFvfZsYSMzZFanPPQwaNW47xneK1Xggk+vQ2Gstc66NJ00puENG8/Y0q1ijfnvmaswSyFxJ2dynjNkwU1/IT9snlH5hRyJv35xNR36ifS4WEiEfxTc1roEsHTYw8AJgGBQ3AE8nbYapXV9jnnWux3IatqhvebQdCs1ctUvx2htvTb94/c0YE2PuupXI9nm+kpkFi44SbzEGMDrMR1a+UNs7YFFq5JSK3MogqUWYZ2k4nWvMXIHYkXwYTm5DgOtU1X2OlpOLhGtelbny6r6lu7x2XyO1vWlUaXxUh5jMaaTKYVDwVEt/y4MY+TZL82PpLn0DAy8GhkFxg6hJtyNTzlV+BxKW8syNQcGElkktBkUmO66cpq1IGBPZ7YNf8dzuZkMwBgBuep8+w6DofVdGBW4MSY8BhXPk5OWj10hxDCUmSPolWryZXe6To2nrD09EYzNyCus8ARwW6fo7lWnxVxPeAHrZyo2/YgRV7qj236vF2a2I4Qc4CyPVj4t0C3dg4EXAMCiuxXJK6Lieex3WkuVbv57WcZXTQVy2t1kwFPIVlJji4WBQ+GFML1aZ4gZuIVh0tSjVNTiEkcBizALlflusyvR15GAqDcaEydHFNVmwIoyl/5PCSj45nEXSeNcNwm8O/FN9ZXT0sq2X477bYu5p8mvxiYQ+AVQm/VsbXtpZIGzDHQ98n2cYdhV7PZJasGcODQzceQyDQmBqyPTQphDubReJx7GIq0tcy84yEAt9+Xu4fg8hE8vJ5FIs0WWbkTsLpjSRjcKB9F7m5bWSM9pi45+WbqyB2wUWy636B5NiedLNr12q4+DzASgbCpKd+xcoPuH0MNvw9DYh+E5ryl98laaw5KCQ1EV1BFdTBuQSQrZ2ymrUbeUQu8Pi9bhPDF8A5aue06UMKLkpWfJLSh05V+r3aag77YCeEjKVp59j3d9L8ijqKI7K4j5Q2fTHMd/CbK3QxPheyJnyOFOAOkai2iKmHUi6cByS7oU20cDA3QVnxIBQ04snraMmNkgTXO6n5hU+lnKIqSuQDyPCE5+kLI8kmniC/zjt9/CQ1XTliWsxqcjrebZRY3lSS8eEWdNlPqSjEsglxrHW7dz8N3A7kcXx4MWKvp0XHKEesLRffC+mCsMKmyPyUDNQxfKYkV4v0WJGFtSSvQDxTngKmDV22tEDEs+pFsJVeowJyXvcO9J10DV86nrIucO4zWgVsCyOSi+XJDWuyRVj4ni4UJqcP3POLsfCM59vuJyjuKUlwIVT1FIa5UYHRIA6NYNCDU/pyvBz3+Aqj+2R93R4XwdQQnxpi9JrHXikG39CyM41Ghi4s8i58QKDiaAmg6BxPEkJmgdqwoBqgmLngauwhEIxGOT3RCdScHfGEkK69YRX/uhfcTz11ORfc7thJtMz14YdFY87yw7cKviqW8QuxbLv6LEsSel3RkqFr0fv4T6i2phpVLiOt8ZytDRtM+thqWoBLSquSIG+mBLTd/dqhyKU2zyVFimMqO2ORZ20SiEdxlyB2SNEt4lMzU54EWMCD3OXvgBF4rn8OceKbFDo3MMNzJU0Na5pNMbINS0zhwYG7jLqTHihwSnfoZAvD6GEcYqqwZhu/EGpba5ZfBXGg3Ny66rN1yftnmvNjwMDzz/qbADlLtEX01peeahxPj9II5GECjpb6ry7sjMiwDI1maJZQ7nBw2KqZHET0+P7SVrn6yyvvFwP/KZlDvFdq6fRwMCLAM7pFxpMAv2E71PCerKKD6oG43sB/AJhPfl90AyUyUZSiwkR3X7oblgUA3cOfZyvobHeThjOh5lsXIv0v8MbYbm60tf55nOE06SMhaZjFlwHFuh5REFAiPN1mYLYZCEuES2yy4QZAyJImtIfSV9moGPBA+tQUHkODNx1cL698FhPAArNk40PxXVjVYPx5PcPX3l1+oM/+bPpJz/9mSbLxaNcSscfk4iNjMYek8rA3QIDu7ka3PP4bvfrOELZzcsuxZGHEvKf1Da0IXYo2vLv5I6dUVKOOokD4ddNoC5VkqcpIlFYh5bCyxjO79yQit+8U8UttnCieWDgTmMYFA01L/QJIlckywmBKO6aAj5z/e0f/GT69f/3v07f//HL5nmSwZjw9m4U+VkLYX6af2DgjmB5btg/M/D05xk4Az4830/vvP+Bf3umxPgm1CVvg9io2Ooc4bdoOHeW0xLySRF9dU7W+ZTzNO4S5BqqmKQPgfj1550RZHts95WfHZQlP3n2cixC0peHcCM5MPCiYBgU1yBXU0xFdRsj4NWx+aEstdzlvc9Nm/u/4tse5xLydyBqO6JNNPP0adaYYAbuEDSmGdEZ4xnbOeoc0VjHz9nCextf+urXpv/7N/7L9MNXfuow2Cn92TYGuOWUIA85ygRg9Z71ch4uHvAkXm5OqrhlVBQSQqqnKlCy5UPSlUenjpnLQfMC5cM7P7LZrkBybCU7MSaGXTHwomAYFAtw3tdkxaRX05DnA08ScDId4tvzU9Tbs/k5Cr9vL74nQ/17yvEkBHIcGLgbyBK6gll9Afe5IOKM+dnrb0xf/bdvTW+/975jifArtLOaGBLsTuQc7OdN/qIr2n1mmUo2KD5YpwiFU278OtrQrxh8+EtPk/V5vCyXcHK/I9cLlo5kvMGcaGDg7mIYFA39fO8zgN/W8B/wnWCxubbJJHmu4Lk89XPGTC88WHbwNyySKu+1CwTDGhi4Q8iiulpo5fNZoyh4fihZU41/wl00y3G7g1uCZmx1rpwpSfRhiMf3MFTsWooQC3kW85yvJpcoOc/5C5TbsONEeBZukJie1zq25RuvoNixLTHwAmIYFNeiTR19hhBqymRyypHJkUnyknu/ArFs3/KqaD5y1a+lEjswcJegkd2u3Ds0zjca92LV2WLitsb2TIZ4bhkQ7xgtvNnF20wHnS/1NlTXWOfddWdQjI6SjRER+UqThV1kfqFSdc4S2WnooKxl3iy1FDqHfHBJcFVuYOCuYxgUQq5clhTUFNLjbUbAbJPk2XSpSdI/JW5u5pHNVtOZJjAIHUsaGLhbOB3d7Vxpq3IL6XyJ8c3P7XPuGDa4u5w3K+SxDYA6XAdAuZVT5Xc1FH8pilvxYOkHV42Elm6BhE7lKr9+nq9wVXxg4E5jGBTAc06fROoKZz1JIMSMx3QYOQyJfs+3Az9GRbZt6zGzgYG7CYxoxjynUDe+O3zLQ0LepdCZ4DPIbz/pzGlX8nyLYsuPb9WZslbRdh/iB5VqPioOd75RYnkdfF4Hie9ykQ1lLxE4oUI9HUjsmhdknshEWvHitHoNDLxIGAYF4Nxv578NCU1CSyMgLpMFkyDUML/R0eEpRSwbFNgbCc40MHAXMC+tNahZ8RcDPM8fdQZ+GxRaaOsciRZRY7AGX7cOw8Lw4AHOiradUMlFc7LT9Jyj1h9U9KxHvhg5fkS0MQ86zdmJXJzrliRdV+a9y1aQpUkS7ZlBXKdiDQzccbzwBsVirvEE4W1YOVy9pHEyYcD0i2u8PB/JFoUkfwkCx2omKS7HzCclMTDw/MLDPt7VuG+D3MhC2yB+Lbl8op6Y7EzIt5RrWOlsgDdTReIWCcStEs5+xVgOA0Dnb9tltLxw0Dkc86E4R8nlGagqnvN1mjAI22hq+mZDwwkUa0si+majYmDgjmO7OvFfWNAGRUCu22XJAz1cE8TDJoqYHAvZ0c4Ddwjzog40wL1Z9xDkTMiS25fkBgWuJF0yFn68FbTbVuolnw/J+XaKtwcrBqFm3juevQiFdE7y7Yu9xPlQXZ6OAnmddUcaxBR/PC5/STh7F76l6TxSK8tyC5SHtHGlf5z2Ay8SXvgdisKV856Z4JTJ3GEkwpPITIvogYE7jOU4z5mwPHpVtVt3QYqagDF7HTE7RsXFSKmYdo41nasEJ+CbERawUVGfxG8sO1Lild6+6SDmuWivcN4yqR0HKPA5rrg8MQUU1wwKZ6cwRga3dXj7i7dZsuMx5z4wcOcxDIolyojo88gKZrfZAYfGy0QjF3LMQxIPDNw1MNS9AJ+CM6FoGeq8zj1BY5XWLMeQOO3WwpzqmuT+CXR+uE/lYqeA39ghFQ+GIr5tD0vPO7NiHnUi7+Vl/4Ef+fPzE9zu8K5Efshsp3R82XP5HEcZFICdj6Myqdsn3u0grsUPDLwIGAbFEkwQzbuYNhaAl2uXQFOVZpzlJDemj4EXBcux3s+JnCNte6FCM+pWiR0vtqJ23s1yLZAzq+vOecY+QM9tRumVi/HArQe/WcKegm9DsLeADh7uTH4YAC+/+ub0W7/759O/fvOnNiq8q4HkJU97KOhywGrPS8jISPFilPgWC3MATBky3EK5kNe7FU7GzU9rGBi48xgGxQKeZpgZPDsUMn3QVDEb+uQXDpNJJhR4oNz4MilGZ48ZGHie0Ua1EV+FGeM8oaA/jfka8TEGcgat0GSWtMZpTkULLBJrebctgzHB0r+Xe2y/BOyFv9KKj+/Nt385ff6LX5q+95Of2aDgloUh2ZyzAbL8lg98/BCGC/lVedBOnm/+8sH0nR/9dHrnvQ9jVMwSAwN3Gy/8Q5mZMjz92ReOyBPOmpefV4Yi7bukfBXwmuliqS8TSoUHBp5zaEB73qgFmoV2PgdyriwX43Aka5GSE67IdAJIojmcFlrMV/gwHsJp+wDtvN1LjrRF+S0O+dtDmej07Y+z+9Pl2UvTfve53PbwzopSKI7bJqQle2Qh8uGZzz11lk6+ius8FeZ2CbdPvvGd703/4f/6T9N3f/hDl88KnHJg4G6jmeMvNjjdMQBiBIgWE11NBiVVTZaQN1TlrqcK6/FMksmtMCaUgbsBRnKN+xrV5dY54vcoZgqWZwPoobVcsMwlwGfzwKEOhWWt1K0FJLAZMBCK4LFjYptA8NsekuHhyXNZAQ8u7/m5h2UJmQbQuPcjFVw85FmK2BAqFxRRh7ldQl6//PB8evW1N6YPHpy30pbUwMDdhlfHF32XQjPBTLmiUJucTBiOaxNlZAtILKU6KiaTyjJmYOD5xno099sAPhN0EtWzEoC1FsPbxrf4c9qVkqWG0DLU0TlzvPTUol08fvn3vQ8eTO+8fz5d6ARMrCCDgPLk2Qd2JPIDf+cqnc/T1S2PpDsont8ZobjsUvA9zzKX5qkTpQqjw79XUrdZFPZtGPsGBu422tkzEDABaFKwIZHJIcYAlAmjE0jMKebJVG5JoKenGxh4fuFRrEG9Gs1LC6LOEQwLgu0kiDGxlisDvqMJN2RRrlQ97lSq3Hnp1jn8t5///PSHf/qn07sffORfBL7YX0hEHsXtdrs8f8k3I87uTcdtdigMyRwkyy0PinfvPiWdpr14vPlRoHa5DUr5lEY+f9dCJge3TmKcWArxgYE7j2299jRQ01Imr6UhUfzMfgsbzJNoUTC3plmnugYG7ibWY5uzoC+jCTXTQIKE1+dDhUI8uVCGQag0LWV6KFjy4n/51Ven7/3oR9NHFzIEEOFCwVsKDgVa9PmBv8OGX0Itw58PWyG7kFQR8uXM42puSM0qnPT+ETR+DG0Rl1oPDNxteHUcRsUSnP69PfJaaEG+k0sqgqYWfhiWU8vTxqNyqVJAS0MHug7rOHyeMpv/9mBdzuvQJHiYrklWmodRx5rLES0sQNwz5zXB8+bm+nUtD06GzXMN1+pkzK+qtzC04RcFWewDfMQwDbWrebG2Ouf8wDPnnsJJv5QjnFsQnFeh4lauuNvpcNxMe7YNxDpjV0ISfPXyiHGAEKKMCT61jZeDjIzN/fuOJCk6mSN3O27ayNwRD2mnb0jp66ASyOW1VD//KSbOktZYc5dySwoqRKlS26syAwPPBmOHwlifkrRIbVR2yiSRQ5PWwRMQEHutQZOSnHmqVCApny5W0wyF417xfj8dD5pEWxyToThyIa4Hl2UXWsD1kzfp8Gm5vGTbmGWT8NMH9XjonwpIKZYlib9z5zgqc9Dyf4RUG1XKiwVEtMj+RRjy0Q2RPGkH4mkBDIjX3/to+t0//5vpz7/wlel9iZ2LDmqf4+Xe8uiwPjx3BYxlnm7UwLah5HMiC70hK+ByNiocjF9iZVi5Fb2QS1ZRXniJxHMQf69rfPWTf7Kr4i7z9EKAQcFLmuoJyZGO8cBZhnhGqGT5BVP/iimwohBZ4VNfyeyYzuRayuUjLx1lWPghTpLogLfmgZodEpV6hMPBmptc0HJ1nq6i6lhvyri+1AF/k2FsUgco2iDqSDo+uMX4qrM4uyYlNzDwrLCYBV505JStU7ImB08gJvw1PRQyoTwsZaWgkdvU8/ShbDK5ZIL17xrgingQjVfbMCJiTDARZZGcS1cVaYyaqIx2JXdTU9eiVHORTOVp/plvTscqbEEWn2ZQNJZrUq4It4yKoLi4lGhtULzz4fn0xa9+c/rKd380fSgReL769aTf8ml0t7Ac0Rrnqy0YYtySHv8Vk9arVJxT1Q/y2QNJWv2zEbFTsRPP54/142vGgdp3owXVexKSY2iWahwWZD/DsDlTqKY5YqRbqmyfuGC8qYXhsm/nKdh6TCBIODyhtkvwijwrINgIXnQsCiPggzyuFtTTpg5gji8/rojYtB3UTA0bFZzNGZMVOzDwrFBn2guOOhVzOs7zxrVnZ59I5+g2yYBrk9wkWlkwHvKDRkygmhh1lbbXDHohAdx2bXcy9TV4ksNNMJDi5SXXjSKT9SdFit4Lbx8KZmraSumJu6r2jGgtzUUHLVrQXsSbBfDQUyrvKlzPhVs17q2zRhm0MV+ZeJoxzoGkIi+yGAG1qyA/S3o062gLIOlKE35QMhUGNWo6Lz4fawwIpMo7Hkskr0L3Bct8Cl2GnLuE+QqW7UD4jO95my8mdW7lSRup+grW6ZYYIEPHzE7VPuQXGhh4dhgGxR0Ek0pNSJ7JBK4VeXvla9/6/vRXf/cP05vvvKcY7gkHXFVxz7pf6mlyQofjAm8hc8XHk/Ez9+nhNIcqy5JfZTxFptelWSFYmDr0dFdIB2jGQkEMzfWkXX6nbZ4en3YMViV57rGs91X0us4tgCCkAGEv3xgMHqgtTl2TBVNjbMs4YwEVz2nKVGGkxoibf4CrdDREbokaB02oOWuZpwuqRTF3GkRQjT8Oc9nEXN4aZXIugpd6cc5yI4hzkGdCNubQEmmNm6zVwMAajNWBOwQmHi96mZ9MTENM4Af19le++Z3pz/7qb2VQvOspCOlMQlA3JkKlrzhMWTy9zhRmxU8dlX9onefDn/9Z8112K1B925cNEVlfBaaG8Yd8j9sgBIiPXEd4ltChJLvMUvbuo9c/LWO3NU5esVRYTcLuWF1t13KPnB9yxVjgB76Ik3CeG1CE4knD57Fzk4KbHvDpUzxldIj6QRQklB68aVC8LcbEViXAMqVs1F8xPjepFyENSsalb/tIZmm6U25fGPj86wYFNcK88gXBM6ndwECQM3zgzoBt48PxMB0Oe81ZmrxYQEWerBV3oUnIj6GJEfMh01V2J04mJNIvg57M8sGePs3dBPqU6glUk28ZExWzLFHVIlR/mnZJYyopvLi9JYoKkSoo1NoIGfvcbolbtlUQWbDU+fyj6iXS/6PqVpK0u/ustX+uqxlPR41XxmoeLNwr7kJDFkMBIi2LbHYyJC9GrsMxKPjeg8Y7fVC3+Foa8rB5sRjT9olPZDiCw08fZJPfAmlEbXnORn/+dVRxDu12B7J8kdOllOyitA1IZF/CI9EV84HIgYFnhmFQ3CW0yZGJm4nGE2oYvr/vR7k2O/kxKjL9tCTNvW5C8pTVfI00K18n+dmjcl5iLsUVyl9HxQTVJpmEE+KqjivBTNqdWs46dB3xRZbpPzLImz+HQ1fRS/K8o+pnA8pEe16td0UXvE/WrK4sqWk9rti5wsaPQfHTNz+Y/v5fvjr97PU3bQD4+QvFefyKfvb6G4r/l+nVN97yWI5GHSW7LgMx6dOg9W6TK7oJpPwacSlSO6Rs/nFBS7h0hu2DGU1uJpXbyeXzucg0XjQw8OwwRuAdAxdyW02y/tEiTT15OFOkCcivSTIBY1Q0o8CTEwkdamhXkfNEtpjd8DGP3RweN7MyLFzSsFILTdlcCdaQD6cmcmbwymmZI7saJgeQk/xCFuBv62TjEx/CfxfhOi9oPSiqzuER4s0XdhAI0eIXujonxGOXO7XvbtN2KETf/MFPpv/9//r16d+++32p0CKsdPuD5DWISfOt7/1g+v/+H//n9M3v/kDa1J+MVzl8J6JK0Vs9Po7uNd92QSpG0E0hbVCkg88pkQYObwRRhZ3P2UQd/Vqpgw2M1XpqJBEpf+pjQxklN1qrgYE1MoIH7gSYZjAa6pcQ2UrNbkUmskv1dp6B0KTT7me35TRgQponpTYxKTKL4xx8BqjcASV4GJ2ip4tEapLawMk1b+1QlETpKl9CYM1BS64UHWxT+7q0YF2KOwIvir1uvg3V/IDvUFDbPr5OWkXjj9bOmxoyI9p3O+iR8+3ZdH6ZZyRIu93JQBZhLWenbeudtr0IefLA0PMr0gtUb1OC5M4x1EuT+KeJWTvnI/XgnGzGFaAsx+M+n/b2WKTOfAOjSpl6VIth4DumFNOWrT2rpgMDzwLDoLhj8DyvgycWGwhMNJncM9Xgy7SznnqKoyHhdEU1b+XoRTPeWwdKn2NRHTt6XURtUbwOtBhTu7epVetM82udTct8nNEWgoeovhOoej+8jictryALZBb4JTAEtLjyfRCBZXY/3ZOxcKaYTE/L4QjYYbvcSmbK57Kt3H0ZgwKxJur8+nitmMSWzE2AvFpt2mvG3HpUHTGKIFn77OJQB27/bPk4lum0vVJ+uO2OhxFuaGDgWWEYFHcK7ErouM2Dk5AfaKsFTrOQ71crzJUQqEnONM/cjaXDcjordoncBDxxNnoYqlyg/CxdbIDnr6Prerhmc3Xw9rT8UDfBurak1t+JivCXud5FpJahpa9jyXN/aOBUq9Snr92ivlrHdMsNqAsMBS229cufGBwxkqPPb3ko/kKLcAwKBv26h5bUkXNiiXXo6WCZBw9e8kD0YXdvupAhcRHzYdrszqbd2b0pn6dQrS6pWUbeqhWVljqYe1L4m6jLwMCjkDN24A6CnYlMYKDNzZqFFBZhFDgYx5NUTUk1hfUJK1MYhJqbGjRVtk+KKm6vSXfBSl9V8iEgipbLUkd4oWk1ky9zK5UVXsrdJawb7hHNaMzx3kWId6sBiQFBC/E6ZRbQ3PJgd2JpUCw02Mc1/F7GhN/yCFsR6Mg+EsC1X/wsv4WKaZKKar4bAcY9r8N+tJ+mf/wfX5s+/8//Y3r/wYXqpLYQ37dt2K2hPWz0Q6flD6cINBOj0cDAs8EwKO4omGDYheCBNqyHedIUD77fwmusGdfMSQ42wRgTZVzcHFKcWhbI+eG5VwxrVO0WwytDCIrMgot1BYlXyw8T/NKgIFy1Jn5JpFu0cEOFl+6pzPOKq/U4vVqulpnhBT+tS6vXJ5nmVrF40vCcT27VRamfz1joR5UfMFZ6UiRp0q4gVvrlau8QeZX39JBSpC48B/LB/jD9w798afr7f/ri9MFH7ddQVR/GXKCWUhscJm79sOPYR25hVWO3b/MPDDwjMEoH7gwySWbqkV8B3vaYJ3tctoblZjpvrPZnYHBwleTJyRv6ZgdMWsTBu5nZq3KJm8U+1P1L+LsQ3KtIQMWVX//Ujvqmzql1uz+k6DKTSHo58SuR9ovKoODDQ25H1z35xidtiktrBu4FN3LLBzTn7qDqlor1WxK9ZZaIZP0tJeRzkvRVUvvRQ7sFmj1xiedrrem3grjum3BaN0mucqwyNDSBnsMNoBnzDMnDdjeda+zxCyI8R0GxKdEGP2OST+XLkDhXPLdFvPfCAERIZa8hDo786B3nZav7wMCzQp8FB+4E+qTZJhcWwh5S3HqqLjczdsg8uV6cFQiHCV9L6zOYuCq3uHOJZ/TSUNKUtp6E556zdypU7I2Ni1Ceim9Xfq2NqFnVDvrxKz+b/vl/fHN6890HmcBtgEQWWM4B5xTGjMYTWQ7WHUU1Qa9j81H9BXqL9Cj3jamNO7zqk6WRN0OBau+SSWiNpq5BsTYq5lAMDwuZdTOoQumfHQq+t3Eu48EGhcdhwAOnjLPzw3H6xne+O33129+dPtjnuYuuQy1T22/2xzsw8KwxDIo7BOYY5pbVdMwEtAChNq8ZCWMsaCn17RHPZ2JyXY6OTMZcufMtAKu74RlsmZvLG+8KqQc+KoALVHbVxXwZQn491F9l5Eq4vXqoyby+/snOhFM1o+FLX/7q9P/+9u9Mr7z6c+9S1C5EVT/SgvUn26ahCZ0siHcOrX5zey9BiyaqCNR46rx1TIXcaelQY50GnLTstQ3dpWcgZ9lrEzwVuBSqSxm5VQT/mBzjRFR8DFqMjPcvjtOf/NXfTX/0l387/fKjC/EadA4idUYyuZC/OVODcmDgGWIYFHcKNYl7ecyVmKepHE260jn9AI5D+SJWYyu9Rwa7FO1pfKXZ7vgpaKVf7rc+M1SNCr0+idJBxIaK52zzsztD5ZiWz0X83LhNJ8TluuJKwAUh0kzkl6o3cXs/LIcx0mRxW7Z2Kp8XBNUGH4dqkzJ4OxRaNqZAfIzhpezal/H98YjaUy09w0+i4zOFxk6NxeyELSouwLNBseE7HGfTg+ls+mjibZB78xglFW/FHI/8bnC05DP78vq8Hhh4dhgGxR0DU0oZE148F2DSyVcfiwKMhQ64maiQ6H+6ivJiW9P9zeC0ZMsapa7xdX6TUmUzAS/QXsWjvmVQ8PsmnqybJu9etHS0FQ/+5TVFpbTqrnStfnF1LVg0XmMZd6fwMRWr6Nqhp1HgmZaNtOQXo3AlrvwfPxKdRVl9Cyz1LLN6WqjzsfKts4q/KgPF4MzDyD3n+QkZEg+29/2sRQyKSOT8DhHOjtvAwLPHMCjuEFaTZEOW2uwyhJaxgSeqIkNTVpukMCKI5/PdidrMn/V+2riuPqlFYTmRIiWCUXVRWbGBLMNOy0FT9XHvSZudB+9QtCTI4u73h+linys+2gpjAqODuF37WuN1KG5309JFPeZuwG32MbiuxnmAddkuQD46SnEJsWgucyh+kdpW1shKJiIzx677NFLFD+dZQCXQoKo6eIA1VPmW5Bbg3BPljZYFdP7x5VD40PaMn3vH0B8YeLYYBsUdQk0o85TpCUzUJrI1FpMbILGpJjK+5NcmKQnVrz2CXCndDKqMLeeFv2MuOjEl0BZ+T8aNx5rF1OznQeT72vffnv7kL74w/fyNd52epc6fPN7yXEXpow2iy0uhM+LQsPBGqrtNuIUXgncCy9r2Gq/R61ybBMtWsJ8xRcf4baQIZdFPD7gFW9rKpRscS22MWyRKilik0n+RrDQ9nX09yVOEcmrno9HKWpwqEVyGKd/m8LsdlwfZws2caGOa2h949odzVFKM8eiIvoGBZ4VhUNwpaELxzKRJpc1Qy61WqCacCpvmBTJTtT81rckK2extdFlvr87yN4BFVuTf0SNSQ7lLAS9QzaAgXBVQ7fhdS7aVv/bdH05//Jd/LYPiTbcbV8/8QNNul3a0TuvJaRKDgghi1qgt/V4Ep57DnX8X8GS1ShOlrww1mv1lVOA1NYNB7VxpConPyIRA6cOdSYI2JqS7DJVmnjRf6b4hOLOM1NQhx3BbdAMtsSuDgpsdvrUhUCeRv7SpgA0K0TzGm76BgWeFYVDcQeSXRGuCrolJfh1MjV/Tj5+h0MKpy3NPVueaw7iC5+oHyf3hwj9cxOeSLdom6KeONgnPi7jDOPFwPKU858D0qvqp+JpvGx+eSFd83I/2ferd/emwved3/mkM9PpWj8Soop+hUOIsA4mPMdHbjjB+KK0FlUzcjqX/+Uavf3OvxUndlWi5jHtRpaHdUYzSpIihEDmORRa3E072HsKznviMni4jHX/3NXTxp48UMsPHvkV5iilULWTTTme77XRPdKYAPB6Q9qf0RfmNGY1o1Zvx650KZEQDA88KzIEDdwaZinPtVstbTVyB/b7/jFT4NQkxSfELj7wj78lKRFzN1bMeH25i6lIeZCNyEZwvaExRLVA5hlNxGAM2CJwYUoCrYvkxmPgthSNGlGsW/YhZKwwg5vw8iRlpgxXZqOh8kF2fUHil8A6iVbXqfoolv7dKIxZENzzmQSGjj18sBW7B6vxyWgd13ch0vcAGIfpbeI71OFjLPm3kB83yY2CA/b98AxNiT3BpkIZs2WJESIa7HduN2sVtko+vMbZff+vd6R//5cvTj37+uo1kztmBgWeFYVDcIdQEmelYE7RXUjiZlDxJKVwLYL8mVBp5L3Q4SOioUcHklCue3AY44yekPfFXLjcAZ9XzynXaEolblWixgLAVvGdOln/LjExyz+eb7FBoct97VwYDgvbIT0azY5Pb1huF1UqKI+zcm5qOVe5GLwGuFd0ttCrTDkuasQgs+U5GWzd/0G4pNYMi/IxXQl2u66J9i2YwNmeJlleR2F2y52/eKu7pIPmotDIoynhl4t3JWMCY2G3kqhwrg4Ixt7+YDhfn8rffu+Xc25KaV0Xzxc0fvfzq9J9+87enL3/jO9O5moxzdmDgWeEZGBQ+vW4Z6jReQMUMp8qbE/n68ve0J1puGJmsQovpVh5CvZanUnKZ03cxMX7+5vn0O3/wV9M/fPFLDrOQk+7Ia5ea6JaL/Mej8noy9JSL+hjRm79FLs0gaF7XizpgFHi0axLnGQomXj5sxW0efukRWb4zYTmgcOnEoOKOkJ8nafVPDgH+at8O5JpXuBp/B7Co3xqPqulpPwrur6RJ3FqiDIKZq7D7VpykugaVRoJdqrQstRH3UC2fGVwHjaGe66UNiq3Gko0F8xo8BlNqDFxs4Usezjyca5DybtLldHaPHQ8FJcotygv2OpBz7MDAswFT7GeEmtxPJngDH9M6C5KncrlMz6d/PV3RTSB5+fTVMYvnmrNEygngE+uPRYUlyOc68hGkqiNYa3k6YHLKRThuFlaRr/7S1XyKmtijf/qZjVf4mdT46WSif/nBB9OXvvb16Xs//LGfqahPVLuerkzqghdqPWsXMl9175wW68WYyBMSltLFznZ19laW/OhRzDETMbw2qhLf4E2JFFX8ZUxrpzahc3VoPbrkm/sLHnmI1mNAZWoBOzowkbOzU/knJ2IzmizXjncCrpoOrUrppcbm2MYY3N7qihG/5AJiq3f7oprxlpYzrylx2zpxJBO71FcxIfqYC/qKr1LWH/El+7RR+cx56fy7nO65rt5NVERvK3xiYPBukOGDcsgTlfGJHlx21w5tnoFpGaHGcYXjo537mYpEcYqbVIkvTqeBgUeDc+qJsHzavw/e/LXhbVQMi2tIQxdr28SAVVB6/INMTR9wmD29pwznoLM5RkE73TmXHdJiosW4Jh6k8+M+qqES5tYBZ3GmxIC6Ykxwl546zi0gNP1PCWhnEeWzvDwlzpxf77JX3Sgvfqbv2n71tKLyejBIzN9ekAdCxhMeseJnIUk6UHWj/vNUpTrzs+ne0TA3fW4Diz6tx9Jbo9GWtBLBWVcTuVSF/FGpJY8E7XdFKAk5cAvDLY4Q92+UDzXufSfw2WJFw2OKZiqfDqql9GE07HhlVHVsVXSZ+P0Sf0RI8u5rlccf+HIYOZVAnjIoIGVBTIhIUO4dAbWpMQXw9VDakTq7vxRRcbRhlyWWvqJfGGmN7+cM6Ida9NOigOEDMQRA6U1pUiKo+j1GoTxGl1iX44bAOFKGlSeGAgaFh+vM60dGaMnQJv5SLVtlUtJaTnGqkZX2mmQGTpzPLR8k3c5BRmlkdI7qWOO29EU2oeIODHwSZGb8TJBBV0MP14PTSKgGM67vB7ZzwAPff0wWGuYtGRNR8z5VkIfJ55F83DCHPBmpXCaFOW9zPi8mo+7rZV2eoo1/IwtKpsvlJIwxEYOgldSNGh6lS9l0lEGB+UCYnYGD0uXOLTKZiKO9pZGfptrrwEJeuorcTnDLuHLfA5eiC0IL78xCRORt3AURwQRKv3gcWV9v7Y0nXJGjM5asj2ObeEkB+R62POxShMex5BWG77iqeaQK9ulAuQ4azxgVpC2KBL0B8EN3A+kLQBupZq0Ne0dlzKUdAK3b2z4glj5knMRoC2gz+rDko7v09d64qq9kTXO/hnps53Vj42mD+rVnIRRKPTAWYuzX+eOjCuV4jWNkeGsriOsmlltpKtr+RnXsIEwKzpTMtpGlTbouY6OQG+Y6Ghh4OGq2e3wwiD2wa5C1Ub1CePNpzYROll5tuCZMLHGzX5NA7VzUhHEjUNZlzNgVi2smvpjPzwf36yeumii/5FSfufbyEJuwfK4rbvh3BqrX+eFyeu2d96Y33j+fHmjFp81oidXUqP71FCqvY5gcTei4Smm3jBQGJbQT0zTzYgbFGJWkrtqQJ/6lJoMB8oEy+dkvVb4PPpoeSDQGD1K6wrvUJO7tZiXXoR7CRM/AwPOMK2OYQb4CEpGKaRWq862n73IDA48DxtFniJgA+QtqiTGx8hCjCVxrtgjjoS0iPPiGkVETvLeWFXFTUF5bXa5Sjs12J1cLD09lqxB5jVJGBXuTkGpFTey7ppB5DU4ex12Nf97x2ptvT7/5O78//e0Xv8z6nLbzDgekllH4cDjY0JhoRy38IcUqrq6oCogVGC02HGRUsuz7HrgU8aR7RlJMu2yLizR+eP3ufkI2Hn742pvT//07/236xy9/ddprhLuvMGZ87wQjpG2lMwht8SxLMDDw/IJzw+fHlSF9ctIZZVQsY/GVeXFdmoGBh+NTGhR91Hr4KXg6DJGAsvjmKvV0oGb91aEZGN6huMlJvhW6ysqBq+ufv/b69Def/8L0yi/ectg7K61YlmWBbIxlrWJkeGm9c6BOH55fTN/7yavTK2/+0huo3qHQgr+dF30Ymapot2YiJIZ2TvPMQGfaqnzSyv1e7q23ZxhiYKB/LwlpchvLSFHmO8neu8yvL2JQvHm+n7758k+nl998a3qgMDxSHngfVuZHZc94zVhTYGDgDiBjm4sxHx3uUMjnTcldpWAZ6tyBgY/DpzQoggy59cAjlOUhtw+8IPNFN11Z4sew4DpxHvbNkDhqAcnVLY8L1XJ9M/DHYkR+rk/07e/9cPoP//evT9/87ve9U8FvPLjFmrHTlk6D+qYFOPraWnUo+/9ugb47bs+mff2ssmjjHQr1mdrGb4awuyN6cNhM5wojdxVK6QV92ZLwyotfxCTIsxFqUwwD34bSOHqwOZsueB4EERkVl4wbSfntft5iORwnfg/MQMiQrvyrHhlzPcOBgbsBxjenDS7wCLcx0SnHtkvBObTgBuWCJX9g4Hp8JgZFwUOuDcxCv0rl2jJXilxrzlLzoqF/DXietN+d7XzL46Zgw0Vl8PlGvlow+SASDyZe3vvcdDi774WKNxe45YEYJ6ivtuUC6l2Bqu9dNCaAdxtkLFxoQadPvd7zINeR3QPaZeu3Lr78jW9N/+m//Nb0w1d+7vYjjhZJq7hF3XD5cif8pYRIejAkGB4HGQTkhdnyyi/emH79t353+vsvfXU67Pj6IPKX/l4E4JXY7fbedG93b7ovG/CeeGeKO+NXGSXKXSvKd6kyb8+UhuQDA3cRnEY6P/JmEgO9KHBIJxiXQJ7DBM7G9dy18DeZgYHrkBn4s8BDBhrstnR4MYAwKhiw2ZloQm1Bz+BX+Cah/NlHmfdDVAAWTV6kPLBoanGi/DYo2NZv5cuJx+nW7vWbq5BOXtLXSZlj0/3co9WPHQq1ixdm2NyiYJdAXtoK/o9ffW36wpe+Mr3+zrvmpa1E3hXolNFQscBSMxGLlG9bqF3feu/D6Z+++o3pu6/8wj8/Dp9dDn/JEzWXPCdxNu02u+meWDxbwS0TWyaCc5WXHYpN+whFYgYG7iZ8Wmig15nWseQuY3RSnKKi1woGBmY8oUGREbU82p295QkLqqXDuxQlivHgq0ot5V6s9a+Jn9sefMPgprajc4Usk+KQLyV650HEQvVAl7N7LUmUhKtkGz6kccq4Jh2Khy9SCzz9atwc6LcdD6zu/KW+g591UM+qv6gmxgOfAb6A1Ha+LeGErY3qUqgariE+tZ14tB/arJEHdLnd5H7gtodcGTMYNNn1yi5G7TLlGwjJxgNc/MP+Yjp/8JHKKWkxvQG2yHtg4E7C50UjMzzw5Y8bRAAubuTgXnN+VOTAwDV4IoMiY+ohI6uxGYp4i97+5bvTX/zN305f+ca3/GqfF6KDjAYWI/mRPxJmYGtBYKfiuvH8VNDOOL/h4cVMQeXtNwO4EleBvbXPSqRVKk+FAEsqzfLUg9ex5q/jnldgV/G7H3vajW5iAae/FK5Xbv1CBc/LiDA8qsWyi1HtwPBLe3c0YwJ11iF9Gz7AQ+sRV2+M8LsIMmgaPwZH3t7AWNjaaOGZDjlyKeIZX/zi1kxlSFlVD4KKGRi446hzjdG+GPE+SXKGOTj7FrjCGBi4CubfJ8J66J2MtivBzfT2u+9Nf/P3/zB97VvfdrQXHnYi2JkwR4OdK1zx/RhD+3vayCnWliquhJtBkVJhUHAVvPGuSgwKUiHRvPYrvcvcEW6OoE7luwBqcqF+wyjEX8Yf9SXstlPYH8eC1I7wgPcd1Me+feG43M6oduKY3hBfzX25xUAJJQ79zaDAWCERyeVnOOPlZpNvcTgVcRiL4nP/Yxs+4A0Rf8jMQgMDdxmcGUGGe84xBzAoih6Fj4keGHhigwJ4LMa7BgtMQ8kwhbMAsQ3OVSVWA29NsCvAAsN2+a79oiVb6Fk+bgYsiBgxNmjaIsQ6k6VHEVq8qFJf0qpsPiV9agbLuEJk7hTUGDsecFTf0Z9ZnjHGtKBjlClE+/HMyV6WWAyGQnYbeGuGD4blo2G0Uv5mKEnaFlq3IcPFfSOrpVrcEk2Iftwf9h5X7Ex4mBOH8SrXt0QEyssYtEE0MPACoM9YEOfBfNLE9dk0MPBk+FQGRUcG6Tw4GZQLa7cmfAawX+kL2xO5UzGhL2nWczNwjjrEoAhS5hNYsE5JNZ4EvLMu2CZapKBmJRcQ1+Off7SayUmtMjm5XYpoq94AM7iVdC6J7/70jenvvvCv0y/efMcGSJB2qk9es9uQvYdMf3n4Vf3UjL8ZrSNsrBCjfPkUNsbr/ICsVS/7JWU2f2DgDiJnU3y+cMP1GRTKR/hyNiznbLAy8ftJMzDwUDCjfir0AVvIqOMhSyZ9QsR7wdi1e+ryE5yvDGtQiwmHXYsAqZsA+WQBqzzZsqc0Xn5aMfwWgYvm5alRTtRa3OoUTJWQKLnQXQA1zHdCUk9DHtosRsCUHyjb5jXgage3jbw8A8FbIF/65nenX/+t35l+9PKrHhOzjMdNjIlQTAL0Qmlz5V/WXEP1As9dTGe5ncIOSnZApAFxEaVxifgEt1WkfAMDdwk13vGUMQF8jog4L/w7IW3Hzgn0X2dDC4rmM6bNiwMD16ONpCfH1fGVQTsvNA15cl9LgwZvBuk1eCaDtZXGJ1ywLlszKoTweyzrVo8VuCLv3nbRrMPiZL476PWJL0s9IY4hTVurahOIIcLnzM/bmxqMCRskFtGxtZd/3ItbJlijMiCYAhk9O8nu/Lonz2JkciQec8IpFQXPrija5DGd4jrewMDzCY91nQs8mxYjglNLc5Qp8ZwbGPTevYMJNZQPNxcC4VhTi4zWgYGreGKDog+17jPsrYFsZ5ZjUveVYuP7atSr7mKILlTdFMiysl36KVeVuqPHWrYHZ9iYwCXtMukdQeqVFzhTT8BSX0ZFofzlYmBk0bd5IEOiHsqklZvmEF+6nM6m88296WJzX5PfLo9AaJKsX6q1CdHa11+pkG5r0QDzV1jl9u+DzKOyuS2NS1KcgYG7gBrPmmFr8MNrhjrnDDuCZYz7vC3DQudWzhAoyLk5MPDxeGKDgukYmq/PE1wgA7LYltOA5aNIfbguBq6iF6FnAp9P5Yfa1bL95l6DVuCcuFcl2/LYQncDVaf8dkeBSYnhlCHVmk7obZL2ZAprBoVkMQFsUKxkxcPY2G6nPQ9+qmNsfPCVUh7YlTAP7vpD2xJ3+2oi9DMbTh1jwn+KokSrcdqAQVFT6sDAXYDHv84XPxzdbh1ze9LnHca8rHIbFPAb4efczW8QoSMmPufF0pgYZ8nAxyEj7jFRkzPHjxtkfThmGepDVaTZfukuhG8YqRGLT0LdXRoVQeqRAl+F00CK72mS6u6Aaxq+TElvNjAh8UyCvMua0lZzuCY1/zGRxXCwDMYmIpaP/5vf+dH0u3/8V9PLr7/vSW+3O/NzLI6lCyDxPSXy2W++aWIgU0bFoh+YMFs+Dno01ogcGHj+wUj2+cV55nONIZ8zwGcW41/BD8+n6W+/8LXp77/45elchnpufSClFLbu+zmxDg0MPBxPZFAUmPjjLgdd82lFrYl6lvJl/On03UPRF+kcbwJVOk60nmuuakGvRxy4Iv1XmpQ7C2PFmVa4wnhO0WrpauYmRx9ETGRpplBaLikKhLguIn0W9I4ux7MP3/rhj6Y/+uu/m378xju+5ytrohkUNhcaKRWZHmRM7GWiSJ3Lx3GZrdCvwFLmZsrIBw0M3A34IXGRv/rL2OZU8NUSu3g5Lz48P0z/9K9fmv75S1+eHuyR0hkh4z7gnIx8Pw4MfDz6WvApUUPQ8OANJ8ttLSni26goKNyCnY1nKfP04RL6ZIKSd0pBDFfiVX5hYRTh9fOCLVz8YHkazqnvCKh0r7Vhb9oG0DaR6LwWs+BqjGAMzFyYcRk9h9296eLsc9OHu/v+GfLsP8Sg4IFN3DNx+OUOEm3g4bbB5DwSJcpfgbit8u49PjDwfCPjXMDo3src5uM6Gt3+WQPFxJ7m0WWdS5rvDjwQza8CS4YdipyD0sBOoqSW50Xpjn4OAwNX8akNiloIZmqDtqiGqcNZZUJXIClEWiiyvs68ISinnHHOcyYveDm5KrZq5M3y+USssi/9IKnuFFQ519pGRUHMVumqf9qldm56y4TL4KvbDaJmBBBCnCmNnyj/UJPeh9v707nCZVAAdifqlgYPXpKwjINInMKa50inE891aFEDA3cHMhJkYPv5CY95DXIbCs2gEJMfP9zz8PP8WzsIcjIo5HkvJ8bq9Lj+5BoYMD6dQbEaaQmurwLjx+2T9umIVAqxkjaHmzQjQJY4QL7Ju/u06PnkAsVty+BsTERyhcYqvdfKPK+g3lzhaPhkIhLURmUguIXcj26lREMnu0AVZ0mxCBHDZ7P9yxyaEC/9O/LIBB5fFkI7D2c2LdLt3/NQHN+h8HM56ETWYFR1BuXmzRHXoRmSAwN3BZwb+8PBv5dUz1CUQQG4pciXi/k9Hk4vuIkBDw+NM2XgUfh0BgXQgKwBV4vCEllUgquDMWnjExBoQjc1cGuhv1ThZ6NclAWxhRWYi+YFKbVaLJ+RE3CWVLJ3B6kzL40eN2e9npqs/CoppGDMBiR7S9igEFWbGzSdDbMKxjDBoLgnemmzk7t1GOwvD9MFn9VWus2OT2fL3iCxDQu2bmNQmMQpW9DmRCKdF5PoRfs9kFV5Bgaec/DsBJ+e56Ny/kS+cFCYX9xlxmX8+7TY8vn8M9+2LVMjZ4Jjje4bGPh4PLlBoZG2nIYZeA8bfFlYCqeTdxkVi4HecFPT/Lzs2SLSwqNA8k7MXH4XDl+TN5WE/DpYZIEeTrq7AOp79VdEWdGbUSFuPkteLRO4Fb2AY1SEg7uUwheD4nI6U/p7irinPimDonWRjAh+E6S00K4YOFAZFP1tEuA+daTyln9pUNTH1gYG7gY0mhnvMtT9VofDjPCcafgwIvKrvZxtMSiAP4bVZAPOLWhg4OPx5AaF0Qae/vuQi88Tv32EtxncDs9LUAPcmvibPoEFoGMVWOBh/I6ukWM/dTjypTgWFnYaKIdLokMvu1yfYM2/ODoFXsXPyxbME8xxdwxeoKEWvq7uhdOoapG0eIuVs2wp4mg7fyWzZISz7XY601UX36TY70XibXcyN85yuwNp94g8bvumNGH1ehtYPnIoGhi4I9jq70znA+P/cNx7t4KHNHf32PNrU77HvWY/Gea2H4oVr7A4NwcGPiGe0KDQsMtqOg87CGXLIUhsbgvkqhCOr14lFLkujVRcEerLAGlXviFFJFv911+uU6FTFB/jwYuJTq7pcC7r/ODXED8QvS/2xZw40shzMev0tvBb6VIgFaNt68vyoKzexG9VWdbDSPBOgbpRz536Y64nV/k81+CP6chvodaHc5vg9htFyNWDlQAXCdK6z2h7t39APOOHNt/p6irveDR40MQ0JEFk9WcGutRvLprGi3jsoFB+953YTWxg4LlFjWP/6q/+eEWU03HrCZfBn91BfGc6nOlcynxcZ1jOOSeyfM7N+AByRR1L7sNo4MUAY+XJoYHoARyvqQ+9xOBmQQdtADsmKOsY9KUDNAnf4JOGE2OCcIwJhwy7TQbCyQ6E/KTHoDhe+B4jBsWbH03TD159ffrlB7yUSH7RZr0K1qJIHdDFuRbFqR1LWi1IHOzGK6q/htnz/INbGX7lsrWDq4YxQVthWBCeoVjJBWk74HRe4QWxls2DHht14p4aFBuNBfLdbc7U9jIo5sg+yqJ78Z0Kc9WvWBF+JSS8MxmGZVQMDDzfyCjnuOW80vj3ecAfE5fPo5DHvg68MOrHkts8zllgg8LGRGa2mtczt+esbJIwPjEeS/rxVA/cImhuftLeq3RxGZBFdcwwPcWC6xW7cH05alEvnSA+5HsZHNIhrsJaLPiBHP9Ijv6swueJ/Fr8ziX4rR++Mv1f//k3p29/7/tOVzmQp/WYcZKbg9KhgE8yM33QsRgJ32VQdy/Wi6ou+7uzl1ywbBtPd80fEEsKS3kSVLiJ4PiNm0SKKEEhKU9R2t2nKiwErEvyjr+abGDguUPGdFDucnBntOeMC9Vu4foE6GdslwVxT2UHBjqWM/ItA8NXVvKmPfyH1WzruWJzIsz7H/PILr4IWRYR/mw4mTEdtLpwS+OdDx5M3//xT6dfvsfNj6Z4YGBgYOAT4ZPOmo81u46p+LnFLTYoZBpoYPGNgANXqvLXlWpdFmM0lAERXiP8ksWg4D4ixoQ/8ALk3x/9RMV03N33l+K8TV+6BwYGBgY+MZg6P44GXgzcboNCVHfsyq1jd0H8GBAevO2WBxQ+Hz2qqm6mzW7ntwMuFL1nt2IM+YGBgYGBgU+FW21QgFrq+5KP8SASo5kRNghy86P8JRV+UivOBkY4oHzRMzAwMDAwMPCk+BQPZd4MyhwAs6nADkQzA8LBkIgf90Cd/MyFXzI0z3x/pxkfb2hM/p6Bf0RnzmFgYGBgYGDgSeAdittqVHRDYmFMzM9KcKwdiW404OcWB/c/CF/wASTilMQfQNqGz+ukB94AET/aBgYGBgYGBp4Ut/qWB6YCb0MXxago9NCp6/euhTyMKZIFQdx2F0OD3Q0bIEQIY39iYGBgYGDg0+EWGxQxD/LbEPV5qlOUUbE2NWxI8ANScu+d7fzhN2T8GWd/yjlGhL8kZ+NjmBQDAwMDAwOfBlpPb/FiKmPCNzVwuTeBUbG0HIzrys9uBjHLOBkd1lFx9jZ9V5QODAwMDAwMPAZy7X5rjQqZE+21Tn+C2R+LyOLPnsSO3QsbHd1IoCrcHtltN9OuiVNJeFIgH8hzFNn7qNQDAwMDAwMDT4pbvEPBQp87FPl9CJGKmh/tYqcC4lv0698GiXmgREeZCpK5pwh+Qsq/j9MkALovN2fTZndPLH40Z2BgYGDgY8EtZT/Qvp41T8NPAs/LjQaeP9ziZygYVBgR+Tmx2ofIQNOxGRTQxs9YBJGAkgpTgVdE/Tt72BKixPKmh8wRWSljh2JgYGDgkyFzcIARUQSWhsZp3MDdx602KHz7wk9UsujnzQyGpp+NwKA4HmRPHKbD8TKvgYowPPINCn4LVOkkk1/FFLXdGHRAvDZ6sT/kYc2BgYGBgY8F8yjf7/E8qrm15k/shv1+Px00J4N5vv2ERsWpxMenGLhtuNUGBWBQ2ZhgUJqDwYCbmM2Wb0vwQ7wazKKLy40/p+2qaUD7TQ5kGdAyLprJ4YqfKe3ZToZHG/gDAwMDA58EzJkiXbz5Zw0wMkS73Zm4G39EcOxMvHi41QaFh2OzBezF74HcAkS2HYwPL6bplV+8N73xzvsyKHKbhOplN4OE3CIJocGxSruTQbH1vZCBgYGBgcfFfD0m1zvK3Kauj/94th14UXCrDQqG4maTZx+wfmXzehfi4GI71sSPfL3yi7en3/rd/zZ98Utf9k+dX2pgYzrkc9uMbMm2wU5IXNkWe3ExNjzyBwYGBgY+BkyX7BjzEwd+aF48XGwI+Nmp2GmuZdciRsbYBX4xcIsNCkaqTAgW/ct9Bq2Mgf20y8OUmzMNWEhhjdUPzw/TKz9/fXrznffyPMVle91Ug5kHOzEkuDUCoQugdzpc+G2QgYGBgYFPgFzHiTS/ymU+LUpE8EmfnRi4O7jFBoWAQcEXL2VU8FPk3MZ4oPH5/sV+uqDoMiZ4jwOD4iBD4bi7Nx23+Wly72SI74eH2K1gZ0Ly9YooFd9iqBzOpZs3RQYGBgYGHoVuHmT3AfIuhQ0HnmnT0Tx2LzRnD4PihcKtNij8ZoaImxTsIZxr5P7zV74x/cdf/43pR6/8zLsN7ELsNWbPD0fRYdqz74Z1IGIoE5dHMbe+NYJBkmeQlXyDfu9jNM7AwMDAwKPg2x28HtrCy/nWj07Iwy0ObnXwUPwn3aVAzRKn4YHbj9u9Q2HwdgcGhQwH0cuvvTX969e/Nb35S25t5Fc+gJ+YOF5418G7D224c0TmnQ8+mr72re9MP/nZ6+05DCBjZRtLe2BgYGDgkyGzcuZXw9sVuAkCPxDfGGOj4sXArTYoyiTAwvXnq1Taw+5zcu9P55db71iwA8FDm/fubacdD3B6L0LGhQwLD2cd2N149bU3pt/+b384/fNXvu4wuxW8L81ro/mBsIGBgYGBj0PtPvgZicYD8G1XiJb8xzEmPGc3Gnj+cMt3KPpIZIfiXEbA+eVu2m/OpiMPV0I1eI8HGRQxJraX7F3kBVPi2I041+GXHz6Y3nuw9w4FNceC3u/348NWAwMDA0JuMsdNuM2vJ/jowYPpr//6b6bPf/7zftsDlBwpc6tDPFEZGgN3H7fboNAoPDIwuS1BUEbB7nAx7WwwtIEqlx2HPPyjEPJ2U7Ua5JcbXnM65lUnha0P/YeDBr04JTgwMDDwHIIpLNNY3Y5glmMe9GwpAv1WRRkNoMdySXY2PdCV2itvvD298tb700fi7yXAvEk6biq/ryu0f/ryV6cvff2b04UuyIgDzL7ZJUaypejZGD3/UI7IVg49ZuD5wq02KPiF0c1uJ4OCr1nyZctpur85Tvc02PglUcaph53HHweYEpJ8HuUMyvUX3WScWDysaSfZcctjYGDg+UZmNI5cXHmO0yGPnGfO4605JCITWeKY/foMuPWHAd95/6PpD/78L6c/+uu/nd69mCb9z+kupPgjXdztt/f9dt35IT99AHjIvb1j51vRG8+3+Uve8XXzgT/5fFEnv1zfSqHwlhx4nnC7DQoPzxADnh/5OrtsvzDqAbdEO2mEnEAxKGbeRoNUSvwz6I3nE8nGBDQwMDDwfMNzHnOd/TW3aZqvSU+exMXYAMsZMPzt9NFxM/30jbemV97+5fSheJgIlY7n2c514XYhY4Lbz3vNoRgHxNqnOdo3mnXxlxQF8u75F/mI7Cwf7sDzh1ttULD089GpGq6nWJ4I5TkdinN8YYzVgYGBgY+BZt+6+NIkupw24/fsbF9fRkqwpCNToVMdy7DTQuTJRV6pGniucKsNCu/ZyaDwWxtteGWAZsDNsL8kKqLkG+TZXJ5u7w0MDAwMPC48r3oyfdhsmpm25mTm7Ppb45RX6R6md+A24znYoYC6QeGHND3WMgyLAvkQi6hRcZsFb2BgYGDgCdAn20y1J/Pq0hCoqbhETkSvhEt5T7PIbOC5wC02KDSkbEwcbFAQzkDj2Yh1sfsAXGMMx4GBgYHPDtfNsyujwrvKza8ZGG/REuvwVSMEnKYZuP249TsU3PKwQaGBygDzb3IQc2WrrfYwMjx7aIlT3jA5BgYGBh4HzKLZJQZrY2CGApZbUB2vwEZIpHJk9h5z8/OI2/0MhYdVPlRlA0FjLE9UxKhYg7CI/zhXkdHaYf+1kgMDAwMDj8ByOm32QOBAguwtrx+pL6HMvPOtaNzmX3gHnjM8BwZFKCFo/TrojKVd0CKL9fEmwzAqBgYGBj4t1tNwZu4+X3ffasYNyyiJLjnwPOGWGxTB6SBbDtTC0g8YsEXB2tdDAwMDAwOPh+wR18XejJqYTydk42GRa158pzIDzwOeA4NCA6vti7GTVu97+LabuR39vl5HGQ+oKP/AwMDAwJOhz6OnM3Dm5fBDJXG6V1E61peG5Q48r7j1BsVsB2cEGx52NjL6V9cs1pAUi7eba5yWewUPjRgYGBgYaPCcqoPnWNx5kl3CsY0KNZND1823Yw6+C7jlBoWG36Y/hJkhx1GGhJz4Ojx8l4xTnI7+j00wMDAwMNChmdhTJq48+r9iWMyMbkQEmWuLF4IXfuSTZuD5xO02KPihrw0/Ub6bjpcZehzrx7yWQ7E4fTCWAdLgQY6b4MDAwMDAY8KTqg4yJi6PeYeDHwErHGvWZb7N/Y95bo4To4GFJ4tPdM3xQhkVY6p+/nCLDYoMO35p1D8H1u55lPG79SiO0WDytyqQWOOUVfLBNQkGBgYGBh4KZl4u6iD8zW7wbOofW4QwOBbTK3LXT7cwiyJn2QVv4PnBrd6huOQjVtv7035zz79wB/JNiv5m8zzsFlZu9y2x5jxKcmBgYGDgYeg/ewCYej2LinG5ZVc5r/b7wk8eFpncJplTyBcyzE4cx6I6Djw/uL0GhUbjpX+oXMbE5r6fo8gO21500P9eRkbfGsMyjnWcwY1oG66fAJ9ccmBgYODFBrsPfc7kzjSAYy5zsQyLrSLONB/vYM3GQblN2q/fMW8XPxLId87A84JbvUPx6muvT3/yV389ff/lV6ejRhfG75kGIDsUGX/Zq/Ag5sg2m/3B0n8aCuBdxx8YGBgYeBi84Dcj4KgrvZqHvavsHQpdEF4ep8ujfIqwZL2q5ymXQ99ptgSGiP+a/MBzh1trUDDcfvLKq9Nv/c7vT9/87o899HYydTEodorNMxSRMzF4229+FP86lDywW6N3jOCBgYGBj0UZE1n6p2l/OEyyG9rcykUeM7TcAwZFzctIIq8lx8kibWCY2DhhOYre2QgZeK5wq3co/HbH7v502IrMkFFxeVChGaCxbmsY5s2P7FC0YWos/YUug/x1EgMDAwMD1+GoizaMBVwMgbN79zwRM0eHvIc8bXUFeLbZan5mbq6Zuvw1A0Pc3u5xGBPxDzxvuLUGBWOK5yb209l0Md3zDoXH7+VeQ80hH21oCGXk1jDMQA3Cmx8BMhJfnGXMwMDAwMD10Gyq6TIzZpt0BcLMxReNMi/LOCC67RpnDo58ED7GR76A3ONsVFSygecGt3qH4nC5mS40Mvd+OFPQANtcinHMOx+Mt/P9wXEMXL/GJOJW3el4bON+PUb7+B0YGBgY+CTwZMpcm+Vjz0PycqGL41F0qblbgZpzFcamyNy7NhzghRYXfLNn4HnDrTYops1umrjlsbnnMcb43Rz302F/rkGXTbKzs50H62GPXTx/VuXhY1Jjucfhe6jkwMDAwMB10GTsWx+aPnmjg1n0tTfenP7oj/90+srXv+F5ds/F3n7fLuZiRCxn27rhjDFxukPhiIHnDrfWoPBA42nhzZkMirPsQoj8/LCfn8iI45UkkIcyMzxrLC7HpP1ScF3cwMDAwMDjQAZA+3oxFgPuO+++O/3Tv/zL9P0f/xiuDQ4/kClZ5u4+50a+KLsbjVfMgecSn8KgqNU5g2WJ5ZhY+vPkbkKkKeoShcYV+6AB6deS5Edqe7ab7t9/yfEZiJKWOA8AnSJaTtD0DAwMDAw8ITQvM+9yi5m52XOx3L0Oe83XPEOxOzszMRH7NrSo5K7FnZiYqcQpvTh4YoMixkGMCQhFXVk4/nS2fL1Jw0Gu0nVEsnixVP05K9HBg5fByDselwrwhwlR+bokCNm/Jkeh3wXpZSac0MDAwMDAxyNPO3CTwm/bNTC1mqM5uL5l3KZjRWbX2A9tysMTF7k5nfmet0A2vF4qCpDvup8+Upar9ElxmmYZXtLdR7cBHgu1JJdpUI2VwQYvpkNCFZtUMSgqZd+1yOCapZxIQ3RznHabPDPMENuLf2hjDYMCcgk0eqNBg1Mys/5GhY1iKowxUR9nGRgYGBh4NDKfag7XJDs/+SAm0zUGBc+9OUaMXBRyUJxk9qILhQ82MBxpfZ6r4dmgiKbcKknap4tH5fFJ8i8Z3EfRiwH68lOCIQF6w+UYfjVlxZR0wcZECRmLgAZZzIRurea5CowGzIGe+6kvhsoS6BWnqU9cwtE0MDAwMPDxYBLVnMwku5g759mai7uaarE2RBgYvPlhE4T5u/1hOBx4cFNL0Rm3rcvYsFpruCGQ15KeFDdZ5tuHz8CgWIJRsF6el36wam4HIrGUm78Tb+aL3UEDAwMDtx2epXXIbI1hIT/zty8At9P3f/ST6Rvf+t700fmF4lo8fxESRd5BvoLcDJGnj+RRxlBR8EnyX8qe0ouHT29QuN2uNuCSU24GUWiGAmWC9DjbqAMDAwMDtwieozVdryhRzWUuhxpkFCDz9//4hekP//hPp3ff/0Bym2nPlzbZslDc2Vk+C3DgXnYzJHgV9aYQA2JN3aj4JFjKrvWs4+4+nrjXPLDiXeBq4604ClxurjcWsgEWOP7F6oeBgYGB5wY1/7Ob7Pn6ZFKf40U8P3EhY+HB/uA3QOBhMJg2WYL8LJvowBsiouNl5J42HpXH4+XPgnUdgXLvPj6dGTi3E03fmr95rzzDoEBJFRV4HiLSLUUl9D26gYGBgYHbgszKXMU3vw7rmToTOE++YUzwSD3PVRC2v8319QdiT0inFGFKzIbKDYG8ij4tui7aiCU29X0R8OQGhdpnbrjmrzZz89VzECtokCx3KCzYEq0aXBIKWncYAwMDAwPPGp6mF8YEWE7dbeKueBsVEAYFX9TkmYoWZ6OhrROo2Gzzg2Lb7Zn8O/FWip8aUoLPBtfp+iz133Z8uh2Kh0Et6AHSXECjhk6b15L+s9/Rkdl4h+JUfmBgYGDgWaFmZV+Bs6sg/3IWB/BqR8K7EhgTouxQgDbfAwnzlujxyOqQFaLopvBZ5PUoHTdZl2eJz8igWAwO4/rmuzJYfKsDsNXVSKGkznGldmBgYGDgGaPP5MzYnv116LN5gETtUOR1f37/I3ynMcUI4fXR4+Hgb1Hks1fRf1OoMn88qlw3V7bnCZ/CoOj26LXN662sNbdujaxjMqw64WTAcntkYGBgYOA2IvNzm7WNrArhEFsGxUGWBJ/l5tZHIJc1QgRru91Ou93WbtLf3NxfJXo0KM9pma7jvdj47G55MD6at7DsqIq72gVIcV8ttu78PMYstZYeGBgYGHjWWM/PzOJFBWIgGxSN/FErCfmtDrYreOsDo0JxWxsbSbXUc1Mgz4/Pt2oFDZziMzMoHtW8Fbfshi7fDAn5YkykS925H9+7AwMDAwPPCJ6ni3TwbN4etAT4MCgARkTtX/gHECTHLY7Lo0wNHqIgjOtUSD19VC7X5dZ5VZ9er2DNf1SJb6Y2zx5PbFC0mxKtKU/AgPLgSHxkNNAYUKuWJdB2JUQxWHkP+fAwzQMDAwMDzxiZudcoHosKVPF2Y20ImdcxPPggpj+KaU5WCnYpyui4CdQq05asDgeKcErghL90FY9xVG+uFG6qLrcBT75DkfYr78JdN2ahcxfDh4MGkI0JeesJYIwJfm3utGMGBgYGBp4tMoNn0bdf03T82Z0og6KwmsXnAIlygUm6RLA/3c2JHJ8uUv6evy+C/eQo5Mj428oUfvEaLfz2yp3L7mgzXwhsn05lo5OBga9ycEe1xo6Pv41/NMa/Igpzs53OtmeOObIVNjAwMDBwO8AcLTCH18JfCA+K0Dp2DcctF+WWhnnf/htbhJOPd1SU53G/zy0Yg3JQFC5ucTEYOoWJGLdrkmK7LYOIONIdvOv+dNbZ24cn36EQsC4fCsWx8zCD9qVRbVRkQPk1Irlf++Z3pr/9h3+Z3nnvI4UxMOAi86gMBgYGBgZuGlky13Mzs7p3lduV/KNm7sQpRb3FB8PMSjcznj5c8JQeYBBAZO9XWdtaRLg+D16UVDrit/GQ8hMNyojot3XuPp7YoKhGezjSmEbzurFFc4yUYAt+5etfn/7y7/5uevu99/xb+fsDD+kQ/aJ0w8DAwMDzhJrN+3zer9rD6RJL9Lj4lxTc/NcCsuOAieDXVrXu4PeHtsRPcVRir0eKI17Uqmn+UQEbH65Y1acZGNIZ/t3Hp9qheDiqpct1N8hS2/qhGzIlxrasGvpCnXF+OE4X6kB2KPjBmLR/Tz8wMDAwcDvAfM5fC2SmdlC+E4sAdpNcAJmiOqKopK9P9ZlDWcRAiJ+SeGdCa5GNCxsD2Y3gx1AxHOyyeGmdgogrWeJthIhimEgjwqngncenMiiqD9wPM9RyZpZlJzQBnO1Jw+aBzM20Fx1EvKdM59j8Uz+Mb1sNDAwM3CZ4gp+JKXomWCcwS5FX7nAYmfPrE97tmt4xN4dWsAVYvSiTy6dl0vsXLidf/NzMP3Z2VIUh+GVclDabE1Wdm67SM8KnfCizN9/cZsvGO21ERL2N1GXpFHfSbufvvdOHuw0/DCN+3b8aGBgYGLglYHYOMZebzA+W/i4ZlDvDkUupJnGdZfI0oMJnDRQ5ex1aebwbUXXTGuWfWi/DQcROBV8ATeqkgWx8wGv66ifaXwS4po9vVKQJQTXjFZwwCe5kMOzUuGQa6665anR2J3iegrc99rzL+wJtEw0MDAw8H6iJvWb+tniKeCTzUVP2yZIglA6ll5MdAQJxHqnsMwTZ8kYhvyXiTDECtFbZSLABsdGaNE0XItYriuWisZOOnOIJ5zkKIgSMDvkPWsf2vDny2Gvs84mnZzp5bLQBYuR+0ny/SqCJ3RGN6E46JO8BKzAwMDAwcCvBGsk0XfQo1EqwXBGyIFyf/sbWXxcoOy1ZdlqhmiFRZTM5vq9XJQrq4jgIEyOik1l3Hk/PoGhYtqN3Hfw0SzLGsCA+36Fo1p14PEOx2/K7+E+9eAMDAwMDTwimbIhZPYvxw9EuKX0kDaj0S7pZqDRaiLZab9hBd1hwOZpBwa0N2xe7tlYp7AczFZd6F2Vnw+nEgLjdcXZ2T/of3TZ3Bdt6BeazAg1Ln1wZXDRw23kgBrkiXtSth10clkS91zswMDAwcIvgabnm98zZnfq8j28dWoYbxFimvyrwlNEy9hqI1eBgCjGXR2z8v3jt7enP/vwvp+99/0fmYUz84IcvT7//h386/fTVn2NHGE2ljQkU5MNWxNx92KB4fMgIuYQSqgac20yebhoU+rZP8QimvzbTmcrBGyCE+dny+b3egYGBgYFbhbzjwNKb5bfP83B4/iDz+wwLRDpxYvgCkh2L+nNE4MWlqPYCkmcXKixkV9EL/iPIO+cCS6FCM5/PLlITzAIkfvraa9Mf/tmfT9/+wQ8c5hb9t3/44+m//uEfTz/82S8cJuWGL21q7cKeQB/PUYxnKD4RGAIeBm7IVZMpkJgOf5b0GgPGQ1ANTudZIzK79g7wwMDAwMAtQWZ6FsgyD5ilIUwCL8PsNiMqzGuCPPjrWYMs4YBUXFJmrvfOtP42GBQ2KpBsLheYJoVNTtHJztJFE/qiM3/AAiFkWpo861BSfMxABsXl3uG9OOdyD9vddKGyXhCW2GF3Nl2+9LnpgXgPFKa0pKMlXBcWNH8q8+q6dxfxmazYNH/RGgvOQ9rU7a1O3IlwCTsVwiJ3yMDAwMDALQEzdBZcpmfP4XYT0mxuieV64LAnc+JbuMk75bzjrcPGj+c/nLROlIaORXgVlUD9nfohl0j/lKTi4W1kEGzzqkCenRB3L4Nir3UJgwIjA+PifHM2PdiI79TSc8kOBenkeB3DdfDO4zMxKD4rvCBtPjAwMPDcg8VzhUesmsQ4tl1VkvY68bb+CqWdkOiSpUpEogjItZZOTXROIqcyKTMmhoS9tktsOvC05TbP8IHI2pN4y2BWcBNEZpQStscBfVt+v7+wVH6zI4q9g9PC2QFpOu84bpVBMTAwMDBwd5FdCK/VWXi9LBfKzxJewAdhTDSjgmVaipK2iKMWevEPEjk2Bd41WRgVWfDxc5uFnRTRJoaCpeXUrffkk6cokoNkpYuHLeulDXZpzhSQSeI0fgATHeJxy4P8eHvks3zx4TZjGBQDAwMDA48H1kdRFtpPhmuX1CsKOsPGgKkMiVAzC0RXjQpuihzkx82OQ9dSmI2MlhVyGCDdjHBqh7MrEVEbHzZq1iU7k8elsj4O0RONi52LFwC0x8DAwMDAwCeDFsgssI+Dkq5le431grv0I91TVL5Fa9nOXSM6YgaARQnkXYRa8sifxCgqPH/9EjkF83PnWkZ9m0NhGSd+oBRFGCoyXOrz3C8ChkExMDAwMPAZoO8XFNbLspbkORBJDIkyJuIvVCicWa+DMQ7wzvwGeNlDCJKGUCipRPo/TQeHPI++FQInocR1cPsClSVxOPDrpImDueH7B9zyYN9ig67cNnkRMAyKgYGBgYHHQl9k+7JsH4drHkBcLsr4iwplVIDOD3cmRcxSXVzevgNA2tmgELOngdNiHSk0l7cycpsDaPG/LIMCkeIHeWsjL7kiwQOXh4PyV0bJhyMUg8jmCB+kaNy7jmFQDAwMDAw8JrRQthUS++G6xTJL8seBZXeZuvvx1fMLp/BeA9aCc6mcwvMHEiFzAnSUkWDIm/gIZ+mP1KNAGhsREoMQ949e+rtJ+dgVr5fGRJFGxTexFwLDoBgYGBgYeAz0hfmazYgZp1FZwIsWOprb+bW0Z+ehCFT6HPNBrEozx8moiEEhQ8EFTGqOZTYYToDJEsIM2PLtiUu5pBW3blVEd30fI7rYrOCZCWSn48HPVZxPZ9M3X/759IWvfH165/0PLUu0y/UCYBgUAwMDAwOPiSyxD8O8aAuWWjKuoEXWgwkNcIvg20AoWQETIgYFJPj+BoS/EQcZFfkrQ6WoGRJth6KMCpMMi2C5REYGUFReFWV3gvdALg/n04XsjXPx/uZfvz79l9/7o+kXb77tcrlsC/cuYxgUAwMDAwNPiOuXyVNuD3uVj1v3A65BFvyimAJlDjwyR0RY8+fEXX5m+VjGQeeGigdI2ZfI3MSAAvYrDof9dLm/8Lco+D4WexLvX96bHlxiZsjQkfCJnXSnMQyKgYGBgYFPjVo0T92gLdi1Vi9w/W2T7Brw6WvvHsxCmBUxCWozIoHGIFc7zT/vWERf0dLQiE5IRoCsguNWhHUgHjIsklDkK7Ng/u0PCZAVtz32xxgTSJHGRXlBMAyKgYGBgYHPAFqAtXjmVsQJ6tsMWX4Nfz3SgsUJ+LT15RFDgmX+ME0HHnNk5wBhkcT55LW1SZbXNrlDIa+l+gc1I395jLmQWASbK1DSxGzyWx2bMz8HgR8DIzdU5pyTiSnhHd+hOEO2P6h5ub0/bbb3ZlGne0EwDIqBgYGBgc8ED1s8WVgNCSBD8HA4TEcZAxgWGAb5jYyswP5lai/zjSq9kD0BLeAyOvi89XbTln30KP6g9BbnEHWNMDz4CS906ng8tp8Wj3nxs9den/7gz/5s+vr3vm+DwiYHH6VqOvwApgg/sNsCKZHEFb6UUeL7HzZoWiFeEAyDYmBgYGDgM0AtnH0BrcXXELt+0yIGwdE7DSxD3kPQyu3F2ws3uwOKscGgNE7WtDmILAaFUu4UkjCLeT6hHQOBZxzQyw9/AT9oKSPEAmhQ8KAEh8vdtL88m155/e3p9//730xf/f6P/Wui/ADY5iADREYPGjbbncn5iwD1IK96G+RMae6rXGfi5qYH5Yz7IiCtMDAwMDAw8BmB9bZohUtd+WttPWphP9vtprOze2b765Ms/HLLuLB1oX8bIaRTwgu+Sik+Oxhn7dsPe1kG/H4HzzAQZoHfYyzIPfLFSjEv+ZQleXKLggyla7s9k/y9aT/tZEDspvPNven87HPTh7uXpgcSiQlwKeOg1QOrRZnUHgXxMSi8h2Lu0qDwHseGckXTiwC37cDAwMDAwOOhb/93YAFkAa04XC/DrPb4xUg4Epa2H2OCtV5HCCPAuwrclsjCjXGAHKksLS+GhHcnxLURAcGX6LGJs/Bv0DeD1DI0MGBEF1L1YLo3Xdz7lekjGRU2KJSOlFuXRf8QRUMXUYLzUuiocsHjUc77GC7srJDuBcMwKAYGBgYGHhvNBvhE8A4ECXAVZnfAOxVadFl2i9iFyPrN9b2Wp7YzccCwkMRZezTBcta0LMBxOh74hoSMALEhYq1Xug6bM/lZ8ncyNnh/ZJr2ErgQ8brnhSyQ3W437S7rtgjgjQ3KQJ7oj3FT0ehvpknPSwVMfIyehGaFdxrDoBgYGBgYeEw8/iLpXQZuWeDX31aL93bL72YQF+K2R0gL/04GwO7+tDkTeQeAhyqV2tmyhNcyDis/Ws5tkDMt6JgNyYUYpZPOo3QdtvdE+cEu/r/x3Vem/+0//bfpGz94SwbFZjpcnE+7wwPf5jC4LcKtFSnkV0W38mPRpA4xKNC2U+HLoJgf6BTYrPFuTAvfdQyDYmBgYGDg8TCvkF7dP8GCGTkv8vI6xFYDV/OEw2iGAwsyOwg77yrwIWy2GzZ8JrvtVPCwxPESg8L7EnLZR8iCBnlnwLJ+ukJ6ttNeVsHeemU4SJjYn77+1vS3//zl6ZU33/MOxfGwn+4dz2WUKNLoxkG95ZE8Wx10jGkTKW6THCTD7gfxVaZZ3R3HMCgGBgYGBh4DWUprycQu+DjEYNCCw1V+k2e3gjc9DHhSFGNimi7EP5fnw+NGLom1aOtyXyaGxCQs4jkJ0h/2PFKZmxlkdMmvf8owYJG/Z3OEBX7j5yIgPo/N9yLIJ4bG2XQuYwMjgNslLymfl/CLKB6f1HYR5novb2JoCZUV4T8lwKA4yvCxiUPAS2zR3ccwKAYGBgYGPkOwkJ6CnQktwQvrI3YBC3F47CSwEHvB3u608MuYUNRxt9PirJX9IHPgci89x4mvSUDsVJyJ7km3b2TIRd9O6bZ8c2J/PvHtCb5g+fIbH06//xf/OH39Oz9yGIOCWyHTmcwOGRTctDgT3VccxolLtRVXIhA/JHa8PIgoaUtvoyEELwYFN1mI55VUzJrEvQgYBsXAwMDAwGeGWmKXwJa4Ai38+VBUpM/PL6bXXnt9eu/9971b8Po7702vvycDQn4bI4dzeS4UvuwGhZawe6z2xB/zHIMNADx8cwKDYh+D4pU3353+6K/+fvrmd3+gtDxbwQ7FxgYLz1Wga6fw2dGPg2ZxlB7rwy/TAGOmZZVySQqyJeEw3oMoN2FidIT/IsBtNjAwMDAw8MnxsCVyfTWeZZZFmZVZV+y8JaFwnpTIYutFV4Gf/eK16Tf+39+e/vlLX55++eHF9Ef//a+nv/7HL/ojU5dOL2EWdIVJg0GA3zscB4UgFnGY/g62NU+73ZlXugsdPhLLH61CTu5eaR5cyLyQDh4QRSHlArioxmMDAkNDMty2MV/AhGGXwq+fhiUOBoWy960UGUr4xa/4+Io+DldTXcUn1fX0MQyKgYGBgYHHg9YvdgpYV+v1zLYEw3FoCZY7FnCIgA0KrdLFZ5H/5UcPpu+//NPp52/9cvrg4nL68c9em1557W0/98BzDn5ndKflWos3CzRg4Y4WkRf1LOz+cS/SbO4rs53zYM+A3DBJEgYyJGSk+C0N6eKZiov2PIXLao2R5XVQhAjvxKhawicdfD7Tdd9Gj4wX5f+tn19Mf/GFf5teffODpi9lmHg1VS5lbxzn4cPsSUxuBM21PJHXUflZH27jd2pHHgaBEG9xsw6juB3Js/6uk7iKYVAMDAwMDDwG2hLDYqZVtB6yzGqTRbcvPPFxXD5LYJ/S8zwCS+sDBaHj2b3pYns2fXTUws6HpkQYFOwuHLfw5Fca/6qn/H64knJQCMV754HyYFDsXhLvvnhlUEjOmxAyAOQFO6XZKYxBgRqMgwsZB2VQ8KaI1fmwlUwzohrh52NbpMNvg4KcLrfTh5dn0xe/8+Pp//jN/zp9V4ZSstTRBoBKPxsVyYv8fWtnSY6NSYFMURfhIM7xID/6kF8DTn1DIzqbjpkob+rvaFwcBepH2AqWaf7rMAyKgYGBgYHHRFtWmsNimmNR0E0ILVhiZzluEo6KBK9x8mCkX+00nfmbEccNn8bOLYOXX3tt+s+//dvTF7/8lemt947T7//R56e/+bsvSEbLGA9XmqKWBdMPP8g4mYuzkXEgv394TFGGhP0URDMcbGzYMLkK9LrIwlaeUku9ktrZ+xkMYi9Uh492n5vOZdTko1qSZfHHh6CTJF3p9u0br9rIFYEuZxcxPGYnNS2J4ZAQlJ0N+P5VVNpH+lHPLZyDDjbGQNSv4JimP/o+HtWsAwMDAwMDtwIsgvkoVAiD4o13z6d/+sq3pu+98vr09oPL6V//7XvTN3748vQAo0PEC6Isekkjn3cB2NvwY5Oi43RPkXxjgg9XeU2vBfVpolWCnHiVFOOjvZMiIpJyRKyw3gmIUQBKZiWPEQKZQ0Jk246DXYSRQTjx3pHAL3LKluY6XM+9HsOgGBgYGBi4fdBVegyB3N7gtzYebD43fbR5afrgcjd9OL0kuic/cfzAVx605O7HbisT5HguS+SB3Atf6LMLcW+3sUFRz0CwkLI4P020JTsBLez5aFfIexDHlcQKy6JV/HVyZTB4F0KpeGYCFoYDPxOfHQ9pszHRTBrJ8laL+UL0xswoPG7TDINiYGBgYOBWgcXNjzlqYeS5CT5G9WC6P+3PfnW62P3KdL4Tj9sJogcS+4cvfXn6q8///fT+h+9rFZT5gRFxScqDFs2jjIhLkx/A9JKexS97BI+7bD4+siOAXcMzHvkK6J7dCjH7dzjaUWG/FXMFMTzWEMfGRNPRDIcEkedWBwHpdVwMjURTJnItWuMq5+MxDIqBgYGBgVuHPE/Aq50yC+TyaMJmszOfBXErQ4FnCbgd8i9f++b091/81+mXH53L+NiK+LbEPQnx/MJ9PzR53JzlZ8391KZ0PcmK+YQgq7acT++898H08zffmT5UYQiz3vsZDpHWeNfJS36sgmsxx5Rs49TuA8HowjiR9eVIlcDxgg8IULLC0v9kGAbFwMDAwMAtQxZIftuDt0VZ6nhJgQcJL/lglRi8PMpDhbwdggHB2yEPLvmU9nY67GREnL3kHxfDwPAuh5I9uDjIQNHCzdqK0k+/hn4yNOOABf4fv/gv02/93h9Mr731ro0HHqTcXPJx8OwsUC5+XXW11s8QsxW876ygW4TxIOJtD351FQNmKTWnZaemyWZ3JPoAoU+DYVAMDAwMDNw+tHWONdBX8TIYspbmIUt+LIwFGWNhv82Dmfwmh8Oi883Z9OOfvz7997//h+mV197LmxYiXillHe2L56ddRj8edXOBnZafv/nW9MNXfja9f773ou81vS3/rp7L8zhlKnkMhJaysdiPsOZmhMAjyuWx0ULsZ4dhUAwMDAwM3C5oAWSx47czWPP4vsNLOz5CpSt5X81jZHC7gPclWMjgSVDpWCL5dsUvD9P0z9/96fS//+ffm77141enSxkdu7P7ojMZJ1pYUWKw2D49eCnXgXKFtjJ4ZPj4dz5SD0t5gW+Lvgso9jWYjYZWbuu3DzixlObn0rgd5I+G2qAQpBcfuyL7vQwa7iPNGmLQoAL3NPvT8HUYBsXAwMDAwO0C66INhvaMgVjby4tpw+95cMuDsCL4vgIGxZmX6KPCjpreeO84/faffH76k3/6t+mjl/4/fjPk4rjJtxe0iLKOZo314elD9fCCrANf8eSbG/55dmWP0ZSPXOUhygC3/GBZTvzcHunxpMQ0cP3ksjNhYwJiG4fnKNrHN+oB0d3ZTuyPNwFSkuS/LNF1GAbFwMDAwMCtg5c93+/3By6ns8u9DId8baIWNh5mZBHbKY4lmh0L8O6Dw/Sl7/xk+uorb0/v7/6n6aNJBoUWVi/FEVlc6d8cyJr3TLj9kl84halj3XpQgSxThRRoB0IzR56UO5yKy14DddxM73/4YPrWd38wvfKLN/1AKl/zdIWbMWFjRNT1RBdu+UDil+htfx2GQTEwMDAwcKvAssZnn71VzzrY+PfOzkRbGxk8nMnDh6zF/oEuLWe8BQL8Oezt2XQhE0S2xXTBlbt1aRHVVTkX7OhYXuU/TZAPdfCOhCrEsxyXlHUugyJUPpZ4XiXl2xQLm2KFlDiRy9JvqD+3OlT3X7z+xvSbv/070z/+85csZIMiWSg/jAu1j9ukGTIzlhpBL0RqADrvFMOgGBgYGBi4ZchVNW9FLLfus/y170y2xZDjcbon0lX/sT2EyPKqtZEdC55UiPGAdFtVC6fr51NC3WYga+rk11gJE1nlElnKZb1aMDjmVpR11h+pWfLRu5nOpfzdjx5M7z/Y+yFV52VDwsolob9mWFhh45saHLQv2smvx16PYVAMDAwMDNwqsIRhBeQjUHlrA5erdxY2GwnmRPawwaDgmQTFtPWPxQ+DYmOjIsstEX0BDt0EKq8yIrzwzwaSYEsjpaHcuSXRZBu/0Bf1pKl4jujzmx0YY9t7vrVyoQhaKj+xXkQe/s1X+Tqcd6OeU/Ix1uJXMAyKgYGBgYHbBS1cLGE8T7hchOOKWOBKwGAp2058enq1qFkuqfpS2g2KOj599HzmklyzOLtcre6PA6drFKNChlU9/Dnrk6f5Ey5XxzIYhB6fI8VctDysh2IYFAMDAwMDtxAsXlxvB1nOshizWNYWPvH1SW1+05OnKPJypFIr3s8syG+ODtGQhbK03ixannO2Kol3JFKiJVzOa/hL5AbGGtSQF2l5kyQGhngSSs2DOfvyLIv0hBgGxcDAwMDALcNsOrRwEG67geEHMLWYahX02x7NqAg3NzbyAGQ06TBrgMCN/NroCVjSizrWocfCIim1gXzbg10KU/EjWLUv6um5fdJ4DUS1F2eEk8hrMAyKgYGBgYFbiKxeXtTsC7wgioFbV+chcbQilh9UqNB9ibkxVGZ2KVtRHUETEuPTl82tkWcpFOp5gHXoOjxc4qq2JYZBMTAwMDBwC5FllSPEYpXvThzksk/hRw0d2R/TDDc3SiLjXY5maCw0taUx3JsCuWXvID9ePpeJ2zcttkpU7sMxp57dniaL/rLWtS9Rxtbs9y5NnisBDjYkpiAtvv3ScznFMCgGBgYGBm4p+oKICQDtuLVxiVGRpyNY8GJI8EnrvGaahVRHZJocWrKEJpSF8tEL5GcOZUruuWkTgyK568h/nGtRZV4u+IVeIxECqvMpkl9ugJDHKh+n4ZYHOoJZ6mOMiCWGQTEwMDAwcGvBUpY9Bb6YmcV4+XQAS2BCtUsBt6XbiMNro6yL5uVIfIjw08d8a8bl6OVP7jDxPXw5dtp4Xe6Z43RVkzJS+lMTKzRDY137U7nKBV/y6BItz0dgGBQDAwMDA7cLl1rIvIrVslaLFcslOxH3povNPRkPeYshi6MWSy2YyGUZBEnvnQ2k/eNikp3X0I9fJD8TtCwqtyz8KcS8WF8pRpe+JtKsdWx01o7MMkVkaB/iE+f4uR1KfmY0lGRiPw7DoBgYGBgYuF3Q+sXrkiYFWagwCgDvcVyIfyGjwj9JLl4WZy2K7Eg4XFfpieP2yJmMCcyPWvRaiiZ1U0iORTNUSTgrtOi0wBKESRB+jk2fjYkyKESKTHuIbEiEsssjni2rKseiPEIPKTWKoGgy9zpU2w4MDAwMDNwi9MUrvixxPCvB56TPN/f9G6NeV7UwEp9bIsj22yG43F7IK6UYFMuF8+GL49OCF/V54a+F+2HlKP6jy0lsjIWruxBF9ZwEcSDlsFdYtkkPXaPlkfiUBsW6EB3iLypkwIrzkFQMgDTwTBLsFR4YGBgYeBFQc79JYZaBLMEgC+G2Hsy0XNabXEnj5rPSG79fCk9mRBFyM9ahp4a2m9AKtyCOza+yexUMW6BOeSKEUvK+yoXoAwm9e7icHkh+b/OoJXA7ZCcnGq+vW3Fx+UaH826mQKUpbsKh/D0aT2hQSG3LsTIp8oGPqauj/aPzQg0Kw2kYHCGnkcBmK1IcZAtz7oCBgYGBgRcRGAq1XvAJaa8ocs+0SOSrmP1DVqwmlhPxOxn8AmlWka1/44PFdy+e1x1FELfe8n9aoCwtF1w880JeSHkPKhy/SIqIf4pdRtOliDKzK/OhPH/9hS9Ov/H7fzj95M13pgfi+TLcGYi09saoAF1/LfSXygDdkNsBpuVOyuNCRoK2Pf17GJ7QoABVrMD5zywdxKAgJ8XsIg3xh9vvf7U/en1gYGBg4IWD1w6WErlQ7VDAx4jg9dG8LQGvrSRlMDRudgayEvnVUi3kfQdAsEFx08B40NFGheAipJwYQ/WWSn6XfS/ZY9udmKaPFPGdV16dvvTt701vfvhgOhcv+/qlgUW9GVJk4oW5QW2RPNNaoaRYmBwnsWV2fBJzQlpOf8nsSVGV6b7OOUVxV7EKVFUGBgYGBl5cePVoi8HSqAjis5nQ1q9aOdZy0QOytoQ69ybRFnkd/PPl8qQsoO0EqKJe2sV2fdouf/+OhkB6HfgCZn0F02xUKTxtz6YjRDzpm7nhX2AFu53Eku/cTiRuhkZAWRIqzidFmSVPiGTnjCmAiZDUurJphrngQjUjGTudiHhvUc3ycuVZphsYGBgYGHguIWMh61yIZzlmM8EWE6+zHqYzLYhnYvFwKcZAVkFWxNzagbZaY7MLwTFrKAsm+g7b3XQhKXY0pq3im1XmZZkDcmRnLnDqwDLQgncNHhX7KQyKUhvLq8jHZlSsH4BZyy0JoRgRajb5q8JJa4mBgYGBgYHnDstbBWUiePH3RXTD5V50mHYyAGw0INmuqlmk69YOmwtZtFlPa01FDv25rXOu9ZcvhiK8XIFZl5N/ytJS2l0SxyWKW/k9Ck9oUFxVu+Yo9BArB+6SDMtWZROmcQYGBgYGBp538GgBa9uWFXe38y0JmRAm7z14xyJyCPLchFdIEigO08AGBVzLSB+uwLGMCfRdKJnf/rAcT2Q0SNd2d6bltZb9pHc+rMGmxjIIdMYq6iF4wmco0jirlC1gpxkEa6Pg+nxKIvpiMXXJsqAGBgYGBgaeTyzXuaPWXJZ5dhG+//Kb05/+7T9Mr7zx7rTf3p/2GBYSZne/jIk8PtD3GryuljEhh90OjJJXX39r+vO/++fp+z992wYFeWBmkDfSzru5VR580QSn70Gs9yJ6iDsoy5hTlKnyBKhtk14cQx4bBhgV9i+xDi3NhbUB0tK30MDAwMDAwPOKDc8zyOW10L2sAJOW369/+3vTr//W704/+Okb00GGw7yf0AyJacuHu3iioq2HXiI5EOoX9nwD9Ecv/2z6jf/6e9PXv/sj68Zw4bdMuIUCeB31oAPytdIGhDqtjYr4sVzmb308AjYonmyX4iqWmZXGzgtnndNpvmm0mftxpR8YGBgYGLjt8Jsa+X7Gzm9acIuDhyjPpsPuJf8uSW5/QDxgySpIilxo185C1kYda3HXwXy56NpLj3XZINH/8paHlvsNeSdlOwJ8Vy/g1+EufUVwARsUT4pFFoFr5oOLF0omllVUuEFekgmyldIaySipgYGBgYGB5xNe8bQustp10krXljhe47zUAkgw6+VyHUyIuDIqrEvkz4yLgSzErv5hw++c3JPsbtrKqODDX11X7T5YulHQfYWkSklKQ7kPR1/RnxDOblU2iqBKbKhIikMm+C2mw1Lcrg5V7NAqdmBgYGBg4DlFbj1kn0Hu8WhDIOuiIIOCHQlWO3h5ywNk9SyDolbDeV2ddUiv9BNvg+LyzG+QbLfb6Z4EkLE+GRzHo/LRIlw6MDBKb8FlMiIRyLVgj70O2/pFt8dF2TorKMPwqsDtK2ZiVhb1bEQRIApK4xQqdmBgYGBg4PmE1zfvUOR5BpsIrJVticOUOLZA1sLEVwgQLIJVRkLWzBgqHDEouO3BysubIpsjT1eUFslv2bnI6p2nOtY45azyJbYK8BDYoHgyJIslknFlnx2KuCpCsypiZmT7BirwIy8m+ZGIZOkaGBgYGBh4HlGrWdt72GBSsLKFT7wfgmjwurepFTIr6hJOJ3HeBjEpbAPCz03wEGd2NfigU62pACOlPoqVdZbSXLMxcII5fwQ/RrjyemywbZJ3ZYWWkTPmnobNqzxacvRDIaqeZdKApIJbBoXLaAsOSqHcqKgibmBgYGBg4DmEV0MteHwNmvXMexVe3lgXtbjLCOjLetbOuEt/50Csn3v58iAnq2VWz1pBswcRw2FJXoZFIG50X4ceI0n9V96PAnk8GVqp8r3wBWxMhLzToPClWvN4lIEhNtwu0VHNgdqYHXEHBgYGBgaeX7Aga6mVY/OAZU1+3/6X/+Bf5WbFA5gZZUSUmzh8vPppA4LnLpq+XLKLtjyC2YyKZrzw8KZdkbVYUH74zf8o9OiUwVh4T/HEBkVZVJd+yMPexuEYHxXny+T+ghctISyNBHzLUAyJ0DJmYGBgYGDg+cTGX6gEe1kArJfeQ9Cif3G5nd4/7qa3LzbTe/tpOlcMT1p49cPQOO4VwmxouxL2Xk47La3oYIfiQ/neVuT7F6y5GBPICHbbSo2/+Av01Tp4iFjg2wyPxhMbFLRK3fbAqDCUH77D8SAXsyCfAr3kk59n98RRw0qgMp0LrwPW0mnlFhIDAwMDAwPPHVjBDlojvRYqgCFwpsWZv/3mbHrvsJv+6O/+afrDv/rC9PZHx+niuJUciyn3SS6QkiEhUtrdTpfoZztdpmexvRC99dE0/d5ffGH647/8u+kjWxzkCK6uqPOSapGSOwW7JA+LezSe3KAQXNxmtXDng8aCiKFaWEv+DXr7s++QHYiAcIotnpjRF9cxJTgwMDAwMPCcovbdWXHrwponHI7b+9OHm/vTN1/+xfRvP351+kBWB3sSXiW9qMqguORpieN0qPVQi2wetuS7E5MMkmn6xo9+Nn37xz+VMWIBUjfE18MLuEBZgXs84fC6+8nx5AYFFtZ2M+22PLkqg0EVgbgvNG3vyYjIz6hilcnomh7IvIp1lqdOqwK9OtLHfaYWE0OlpAYGBgYGBp4/sIppqfTPkt+Ti2lxPGAk6I/18+ylaS+jgg9SXWgN5Me95pc9/Yzi0V/YJD3r5fHiwXTca3Xd5QfDjjocteb6LQ9J5HIe+ClGp/E6O3sKq8C1oOyPA0rwhGiFUY5+FUWa4FABTAasrB+++vPpN373T6evf/fnrjBGyHUGRTTlkcyEiRUNo2JgYGBg4LkGN//Zq7dXF94X04HbGVraWOu4lcFvb+xlMpyL90DkHwljMZThMV2cK+Y4vaSgVlFJcuW+lx4eLQh4gwQ/R8eLuGvCr5oSstxyKcXv9fXjsZZ6dJonNygoYbvHQbmwwAAGBdYVBsWrr789/fe/+8fp+6+8FgtKcXkOdV2sGBJpCqslVkofXfSBgYGBgYHbjaxurHtyvY2fhwC84Iu3l+VA7LsPLnQR/u70xgeyISTh3X5kDxfTTq53OETzT4Xx/KLCLJR2/byBVmDrz1MQ8w7FNYtppW2+hbten2dcFbuCJzQopNH3d2bbZy4XVaU6F1J9sTnzT7Ke82MlvOMiYC+1z3vMhUZDKt4qb1IsDVpCAwMDAwMDzyO82Gvd05X3vbOtSGaB1s+9DIyLw+V00AX3j376i+k//eZ/nb78bz/2owKXu/vTdCYTgh/9uswLDqyt/LDY2S7ktXReSHN/wJ/h3mCkSK/W0JgXDciKsr4u+NegiQaPElzgyXcoAI1kiwvDgsaSVyWgAtBRBsVx95IaQgYFWzKSZ4eCRiijIogxMVtTrSplYAwMDAwMDDyPYA3LT5NrjdMC71/3PnKTQxwummU07De76d0H++nlX7w5vf3++XSuNDxTMW1fmg5nvzqdb39l+kg86DidKa2MCenxhbnUeffDqz+55UK/vqIJp2iGZX1oqNjT9zt6yG9iriOv4MkNilYWPlplw0Jhni+BjSX1/v44vX9+sOXFt8UxKMD2MveS3BCNQBkUaYo8T7GWGBgYGBgYeL5QaxvrIuubP6tw4IsTWunOdtPmHj9ffiYjYuefMt9rzbRBcalVcqPw7lf8jYq3RbzgsL/ky5paQ3Ux79VRPK+pWu35Uc7aoWDtx4AhT6hsgbjLtbXHdHMCd53ik+DJDQoKs93699VdkAOf2U7WvBv7Z3/xN9Of/sVfTx/t2c45UwXzfIQborm9OhUKBzloYGBgYGDguQZbB+xMyMvCnrcjeasRA0BxfOFyk6cLQ/mUla/BZWh8cHGc/vgv/2H6o7/6yvTLB9N0fuAtEUkpnucqcC3qlTTmCyto5Qd11MqaFB3rFbeH1vyPwxMaFNQAwoKCyJSbHCn8ubzf/9Gropeniz13cvSHfKsu0kvqDYG/woDYgYGBgYGB5xP+pVFZByz+LLi+oK4HH7TEsXxutXDudEV+djxM9y55SKAW5+O0Pxym7/34J9O3f/LT6UPJ7pWUJyRskEjCSyvWh3RYl/x8oyK/Kipeo3oKwz+HIU6tsllnWblx6wgqJY5y3HIbhbU8rOuQMj8BXKCF5o1ahIKWQXHc/cp0ub0/XfAEK7dEhPx0eR4SQQ4qoKkaO4VSGpK1tAMDAwMDA88bWNvYx8egsFEhRi6yRZe64N4f/KGrxB+n+yIbFF7/Dl43D9vddL67N11ocTxyZ0AutzfQbYPC67EcLaqsnzsxdxLCsMjaqsgNjyfIqKj1uNHpCxYpsZW21CXL+p4Ngocha/djIxlyG8MPmahh6udWySoGg5qFhzItR+PFmAhVATusAprDkajwwMDAwMDAc4e2rrHYssYRbk7iRBgPPGS5Ox79iqhlidcKehCftybPdYG+l2Vy8O0RrbUYI5ZBdidDZecPTfpzV0Swhuo/ebM+y5jwOh2ToNIGnVO+ZfzMawvyMm6JJzQoBgYGBgYGBj4WvpjOkh7KhXWW+qzQHFmkicOc4OYEtzbefPdi+s4rb0xvfLSZXv9oN333VfE+OCjuJRkWfJG6XcBvdfEug+OwkdExwedVU57NyLOL7X0QEf7lRf31ZTFZgEPF4JbvegyDYmBgYGBg4CmBBTuGghZ+rcde5NuOPZgXb/nglUHBmx5f/tYPpv/4X/7b9K2X35y++fJb03/4L38yffU7P5kuz37VBgRyD6SY71T45y6O2+lchsTFEWOClyG4kZIy2IRoBkKH+CpLSgHKBbYoGmfpX0stMQyKgYGBgYGBpwSWYWjeobiMgVFLO4tzFmjxZGzMOxSitz88TD9+7d3pnYv70zv7z00/fv2j6Z0Hm2nP9ynYhZAMPxB2kOHAp7u9a7Fhp0IuRoYoNzk6yh8ToZVvYVTYtzI8lv5HYxgUAwMDAwMDTxExKvoCnjU6i7iPOuACosoIYJeBnzjnA5G86MAPiV1udi0yP2PBA58bP08hA2J7f/pgv5nee3CYzo8YFNkZcXa4zYOzpF6WKgWhq7HlfxiGQTEwMDAwMHADyPIM+uJsaiu9HREORgU7DNzOuOA2hr84fTYdZCEcdGDBZwE/kwK+RYFVwsewPv/PX53+4E//cnr7vQ+nS/+GVnSBzS5LfnILagfFhs4pKJApwWskVhgGxcDAwMDAwI0hy/JycZ79XrizN2CDwrdA+LFNdiruT/zIpvcltMhvRexOeBG/PPhWCrc6Xv7FW9N3f/jK9OE574Isb3kol3Zro9kHD3VdngUzqXJssddiGBQDAwMDAwNPDf36nwWXJT5Levi1ckcGIr4v3U6nA8T3JbbbneyCXXvuIfH8BMbheOkdCd8e4ScveFZDqmt3wqgtkAXWoejsWMReTXoFw6AYGBgYGBh4SmCJxkio3QQMCl7mrG8tgVqn8/XL3MqAeDaCHxLjyxNn00Hhg4R5XkJSPEuBHIaGDvwMBr/qzZse3CZxvGg2EXzrgpRXF/5ekmAu1ZLplLO2azEMioGBgYGBgaeEGAjdSMgORTMqvGJ38g6FjYq2dGNAYFDIPRPZoIA9awz4WfSNPzTJGyKYHi1e4W4GYCB0/R+LK8bEx2MYFAMDAwMDA08NzVCQj+9N5JZGf7IBxJyocFzLc4sDj42JvfzZmeCnzc9lOORXSadpf7xk/2La7PjJ8/wY50F8NM2mQO2I2H06GAbFwMDAwMDAU0UW8fZMZFvkMSH4w0jonDr62QdkY1GIwee2+YLm2fT6e+fTX/zjl6avfP/D6YF4fJq7PpiFEeJfMUWPEqArwBdKbtehS8+FpXw68tlt6FEYBsXAwMDAwMBTA4t6Fur1Et12Kdoina9ndiOgiF2J/IDXwSn2m3vTz999MP3BX35++uJXvzU9MG/nN0J406N/pEr+MiisbKm1nOyeFL/FtCKVnjVK5joMg2JgYGBgYOApY16IT9ZoL+U2Asq/NiigimX558fBLjYvTeeiC97mUKR/pFMS/LL30TsZl9N2uzWB2cYg7iDD5HjwrZQ8YXHVbHjUHsajMAyKgYGBgYGBpwQW53pqwnsS7CJ4wS630CU7t0yKWvSJZTfiTEbEbpGehzWVjp80ZzeDGFkRS+0FeJ3QcLUUwVryk2AYFAMDAwMDA08JLNCYCCz5bdk3ZeEuKsOhGxAzHGzLvJ+TwKAI1c5EafWuAwQXw0L+0u4DWxXsXOC2WyAYAadGRVLhrLkfh2FQDAwMDAwMPDVkua4dCn/p0gv2dYt1SfbYrOlzqElgTPQdim6ixLBoJoRthviAZA+K43aIlJrMJV00VS5JU6GljkdjGBQDAwMDAwNPESzIndoSvrj1AXVfFualC01+zUJ+GQR8l2J3me9T5INZvDS6/PBVnsPAtGBXBD+7G6U1+cM8hXMKFt5oCK3YJxgGxcDAwMDAwNPE8n1L+eefMC9+W9wJnZJhORG7C5BSb2U8YEiwiPtjWe1NkJgRMSlqvwKatjI97r1kF2OCHxjjAc7CnFfDbG8oInFlTMwxVzAMioGBgYGBgRuCdwe8NIdiVKx3KDohWQ9XloyMiSM7FKEyKLY8kCl5fnmU2xl+40NrP8u/jQqMGH7vA55k+LJmae64zliAl1JfH98xDIqBgYGBgYGnBBZiFnxuTeT2BAt/xSyJBy5ZkheLvMNKwUOY05m1IFuLPK+b2ljgeQpkFeZDWLzhgeFAXJkBB1kRF/ujv6CJhnyue2lQIFVHUClB+Ze8qxgGxcDAwMDAwFNCMxUWBgWkhZxtAtFsTKyoL902GMTLWx0xKDADIPxHeXiSAhnCh8N+OhwPMiyUC7c5LIdtcjbtzu7JiEBHY1oLcKCj2HaJSymh4ES+YRgUAwMDAwMDTwuXGBP8WmgZEyzMgCMEN8t13BgUILsM2aE4tm9PsGtRGwukweCwseG0AS5xP/vZL6YvffVn09vvHmW77Kbt9p7SK3ETtJoILz0NFV5Tz+UqnsigWKo/RfFw0zyt0EY12tW0fB1sggw1kf3FK36Dgle4CkRF5dAR2eI2F9kWE6rjGvDoMOCU1i+uAssyExe7kSbFAsywWedbtETSc4yvJCJb/JWU8syfQhILt8vXNhcoDae5Rn+TY4CxRWZOEG0lFcx54Tb/qWJycv6OJ/JEQOGUCJnUYY1ejtK/LlnH9dyO1jWtBGipPgnmnw8+KUcvcaRXNVCgdISI7VcMS1qjp+iQlNu964NX5Uyoo9q0a5L/pN+W6HIdpQ93I4V2F35QLrhOxylyHjQZJ6ZM8jCuBKdv8VX+gPjIgOJHptdtmSYprH3u36W+kp3l5enjoGsqGcpl3nLeWPQJiGzxIpVyFOIrnda4qHu5jDLOjfn8qL5TAUvXrKOldwhZ+6LX8aco8YcCgVBEU5uW20OxliAthdHR48Uho+So13L+6UtMFs2OuSWu6Ec38PxgSsrSQLlxSUlc8swiXHHMQkUpTWRBzw+0NtUiXfz1GhJujpQg9SldAHlS9xqmBMhGU09nRabW/oomyPckKvVCWkgbl5ZILNSIwzQWbdRDMjtJ7u75V0e/9I3vTP/Pb/7O9ONXfuZ0fDnTOsi6lOG2/FPerjtIXC9B0VX0cn8KzAVzMYQKp1SdTjoOdD/Dg9ddQA22PhiqClu1WDVxYgI3hdg0F5WqipWMG3smF0U+4GGpTunaPAkRUl4uQVXQPRc70NI12JkQnDTpyeNwlFXZRp2/p87DMA6tmzw/5IIvsYFyUDAP0SxawSJpl2qry029IqQ0atvEwieN/pQI9VANB2vLf4Vm1/5FPZMmZYcOOvLLdi5BlDWQD5KthKhwop6/S+D+T7v6oSFSrPQEJI1OK1noSFylrfqa2RDZpNvKSVhH5X1QY7t9zOdVq6OfdKZe6a4oot7uKQQhvI6TZsnhC1dQPP1f7dtbgTZKGasFt4wV+dIWZXhGV1JRIjQ4dyPyipdA1XeWF5O/JQ/BOb5Rwo5t5cxZVIIpd84dEK1X8/MradTXKVo+CmcUNhmeIvegjjbGAq+/8/z5XhL9OfQGezwSkp885EDd5lfe2hG11qo4ymKvj3IVWf4ONPVxTNgllR6XwTp4oG2RkjG6HKeQorNopb+C+JrGLgu5TSIRyljg1xjcDoo80JaMB+fdW9Ah0rd2Td6dIlWQz21RqSFVLpMKvpk4zj3c6m3vknSgODzUZxUKMAdVHMlsTDQqzY6TG63LfiukBywuomZVm2gQms6t/nxvn/60bJLtFNjJ12qgOM7alqf6CymS1XMKUM6mjDjy5LhEXt2MdAqmkIj8oByCPDyJXHYIEsqI4Exe3s5wKdF9uZQIas5Pv6vf5E9LKF+xkqKALvHU8H6rQ5QLIcpNTGBVhNUO/gnzzdl0vrk3fXj50vTR8UxjTflL5qgTMXmQhkTkHBBCZ1xB6mJsuQQE0l5uh+vRy/3EaMpTow7YIjstKoVNgdeoKqS7a7DViZa46FrCsolq+bQcxHODia5qWGvxYm8ldKdc/bsLk8BOpXcHtDzA0atV/EZraDhOQ5gOaX/ukFX++Ht4oUlc8T0Yl+VPqNrHWpU/2aTju3xiQV+enJvr4AgDb8rUy2FOqydfXSspjv3ULG5LKQ8uqSyjgPU2vmU4enC2iZqyy03+FrU/FCDeQwGpqn5FHKiaNUWdnSKOMbjSRoBQLZBZxEJVb5fE7ZUUOeJGY8JVunBDSZM/2otY4qvVmjT95fERbmSdu3w5NZc5oaM0uP2SUyiClsl4XsrJ3wRdPh08HjxwGl9+88SyKvFIM6eHh1uKQBOMGv4qJnWodpoXRClf6iMedUkZzHHItnRVTI4Zx0rZ6tiTLtqiEeD0pBRQpSW2l7ekac1C9ctC5xzu/VLy1U6zrGJ6PRKXcybE+ZHzKPwoqtikK0ORkMMLItwRuSWPsoLmNBAI5Uh92wjiP45dPHlYj9hWbsuI14jR0o2KwEkVZJmnnMCxROBD51yotEKVPEe1rea8XDQKOjC/Na9bfqdg9Qq52GBXpL8YKULOfc4CrPh8n0E10IUX9chfEC2M0yLqQ1p8lU8QHyUQ6bwtII8BshO1WLgmjxfmcM/j3JKoPCmnYy267FN46IoGgQZFjDz4/Q0bgq0OrY8sByJqfXvlt99+brrY/aqMi5emPQZFy6jyzie6QTir+cRUmpOPa6e6xH89ess8NpJJNQ0VXxamfBgFuSpLV6ZTS2ZZtCavY5qo6bWrP0VDFrPT9JC13K633KD8nSqm/JRRuUDkR5YzegBf+q9KB3VdRhPHcbPLYzknxJN2MI/wqlKdP5PlF+Emij9pgoqvzpxjnKDkSy4641uiy5Z8xwlHwbTFchJetkvIn4CF5AdejFqms9xpm9i/KPe6kO5v4LZtVIxq5wx5Ep4kFiglUj1daA5fg+viSjtkFe7H+K9HpOskdvlaGlDprIs/eeIXtXGSdkoa6ph6iprsjEXA8TO19PlvmiqmhXUouWXaGc4MzjJe/jZWA51Zi7oBx4uYC6rsVf7SwnGuE/WdFc6lW6Dl58M6fi2J3KJsp2rMUPxpeRV0ORqBurKcy9h0Vx4g/GacLWgJwnVeLOWWkuHVX4+/yivZZfnXdalwUnUsdRTc5ifMaosl1vkpB6dTO8hdj4UF1MbZEWrxVlxlg9bpbOiLh4SldIj02nXX1cRwglofrmBWEE8Ml9C6HH3FmCWoxxxWCV2vJQ/imDqBHOVaMbH9r7dD0QKST3kgzbdqP+ts9XJ6i8k9stta35bQGLz30rQ5+9x03N2bLpTxhUQutzJu3EkS8VUTHoBb/kKzQFob2YD038PBeH5sOGvlwQW6Q7Ja/CnQtq2T7Kk4hIUo0uJTy36XCWiMnFxVVPTkEZZ0beO3jJcaOLZqL6541xQk5IZvoaVr1Tokp3jME9VJ77LkjAlfDY0+dOSKPHAchKfRvHBu8t4wbCcQZYssOiFb1pY7+J3ivpUmNAt+TuP0sl7VvryHXHLRxV+1YfGS6boVg2obS7fDOj55RWOuAKJZ8JlLebDFq7z0e/reZWIy0X/0hGp7knqEL3npiHzaDHD0CPIJkAm7rgpcBjV2v0JJuwCc0hC91Rrm6NjSnPCTRpz8N1pqaz57kqLSlzR/Vb4iEsQfDd7KbDxkc1VVVOkoN20kHu+ez7JFvcQgV9NJS3zkq011aOBio3VbLjwaMqaSpvJCl0uMJ75WLmSgjAWrYdJTOZGZyyEeX/Y7U/9yZqPXqgq66qv0frfetGyDHOfiO1htCRKTkrXQlX4RPEbqb1YjJH1kqQvpUifI7UcdFjyPT/dJI8VVu5Ub2VYOZeH6QfLTboTTqH0WqN2iyPU+KPkVIWu9y7FGXVKfjuI1vtLxR3u0RGEviGO/ZQgRaGS/5nMooXZk3upt1BGpXrYenvWX7nXCGe4VRWc3saWaxeXxMTkgmx5Rq3lHwbWdCdj1IdKpXzSVtkJ4bdZ0/QPC8y6JwlmLIj3rtXxvp9ITI6ZSheDnuJBdyqm9I1d+4ih2au6x4vvkypfx6f7Nrd4LeQ9qCn6ddC/pveIPomgA0aFoUdrDBoyp8nk0aOknQjINMcxrSkkjAI5w1K1aVDz45PcWveM7cgL2wZsp6szuaRErLedgaXJOTa8X9lawWZaD4h9mOTfx0PIEw6vEMZwSnvlyPGG4oZN3iVHiDOEQsFq1QQysVivS6p88SjbpmjFht/RV62bCYfowXzpy6iRNyUefM22h4qED6uWNL21jyUU79ZgqB0R/5XSdkQ5pcZkwNWRF1JeyIxNym8qbiZA2rHbBmJBeT87ISaC1EcAp69p5iHCNNHC8RSSVpyUXTyNKAesWUS/HKVBpgPOBGr9rEFDawvHliNxcFivUFN/SV34lF1LbuZ4pBTJpu2rb8BLX2mhum7QnfAxOt6fHQS8XiAxxpTv6iEDGtyBkiJnkdzr0NVmncdroAstcMmFJBqo+Ux/OX+uj78yDmNoxJrpBkXp1CYCOneuZhWmddyP3cxaIQNzTfok3mmdBPNEYDSFSlJ9YEqc+1Q6i1u69HaG0Bv1CnZkBI59+SftFxnObiIWfursNXE/0SLhtJVcZYii0/CVTY730zXKmbkwEkcFdo/gluzxG2ufLglFlNouDKRH541ZCSyufx6j6mPIA+EGXKvWg6hKe0rsfSzLHHmYUJUWFW8nmY2TQlFJUj0VWEjpUGlApPG6dUpp7tJD8QS/PgidZ6AApHA35s27Vx/pbvYDXQFEMh8q/QjYVTM7J62byrFq7/S0vKRsVIDVlnGCEYlBcQvJzvhw0H32wn6bXfvnB9P7FwcYFOxaUuTQH0Q2HsZb5d0ELyetQ/f5kmPXTA1DPbpnto4qQVIKE1nLRmb9MzjPcSYu0QjpWh4wY6yoywjbNJ59k14MrqDSOFTODrqCQBCzjBl7ngxxUwzi8pK4BcwViVboCA4GI4mdxhaWQqJebsP4dj0BQscE6BKyqUUBeDKQeqkZfyvTTM+EOOJSKeA3u1keg6mx1tDmuWHZaPUE0iMTrQzy+Ci2B3KLKXUae3NuFii+dC70cl1cu8S3i7FOM1UTG8a28JRO5nhb0mpdbPqSaDz1eiJZ1LSw1B3P+EGlKxGI+XIukW6RtuC7FmpdyVfrroRQqi6vSxkq0UK9MSk6vA7t1GTsZY5HW0ek6BzjkdqmYlIxjfCeyc0zvl4h0PsEce+pyo6FCkm/9YhK6XOnrcMrWGS5ziSxEnV4HRhF/jLVQL5GHq3011oJlOxScByi3oeSqvYIqSFHp0rHNI3RBpQWeYlpdIJ8bFmgM6XFLy0+onj8iTN4xegLHNxekdh1V1nAZS22hrQRLuKChOHH7udsSiddKMpNRdSKW9BZFMgt60kPEXIfiL+onT1IvStDawcZ2c5NPQKslNxeml6UJlB7rMhKyfHNrvBB2WruK19jd6WQ72ylnGRT7/X56IGKH4js/fmX6//2f/3H66je/5ZTb3U55YoK0/EnfqPuFKiBorIehtfTjw9mlFPqnOWOVwkpR+KpXrkcO0z0NumZjK7IlMwGaHfuqOgWkgXDbX5SG19zKz3p6C1+L0lPWdkga3ItJ6w5b5FGB+XYGB0ZCeeFXnOB0JtJJsA0k4plwbTWrA8uSjXR3Sr03Vje0G20Sfl2VGfL3Lq+2C8FrUg3rECmSLnnh2ldXlQUl46QuWZASEOJIflyTtVTIq77VaylfZLLXApu4aOOYExEd1BW3beq2uqIjYwJqsKfFuR0a1BExIvBWnAiBIh96HZ2XZPI3C80IJzoBpUn63oZ1smVbcgmYs8960q/UMeFC4tIeLrPbDaq48JMXpH6Wk7aNfL2VQG756/AYtXzLo8rFBIvb/AAn/dLTFWZZAhKMLGP6bLqY7ruPCZOokpVb9aqxULLVBwVK4XHgiW555d3KN/vQV5BvMX5LJvHLI+4yHUjb5T3+xBdKNm1RfVL9UvHIixhvq36RXOuTpQxI2iD6+/Vx8kIXrsK4/gPJ2VvshFq8STrgGRau0hfwFwElcus2r1Axayn9tXhz7U+d8rBhjV1QfZ9+A4wRkzhcP8eI75S2KUTvEb0uQMZRp0ivU4RONfUU5NPL1Ere/CJlFDdhN3p8OsY/x7e4/OED0kZ/4TosNF21u5ddqJInOvKJLX35sz7TEoStSW7tVYnnjmmpnKBpFiN9lpFDFPPEm+++N33j29+Z3njrHfMQidasitEUuHxWJAnqJ/cgQ4XbJfM4uwbo+9RgSLElODeDHE+ezZjYX8r1ayvVZJ0Ahc/kgkx4xbGcO7LL46az+oTTJUpqjQwItoOSJhXX0SeFi9zyTp6FxLUTugnmBGknsmiOK8yTG8xEuI7qlLRL4y6KW5JQjIkssGX9L0uV9oKQxUUO6t1ZLX2adoZYlV9qZ22dp3YiHf6Oik3v0L9JFR1z2pYf/Um/Q5bxAI1M0qG/TebiRyYLieGBnHYjjUG5FPAk7Pjo88H8pse6W+RMHIgtVo0wcowPmkUbJ7soQGnpW65ghegIPRzR7wWJk3Luf/GVMOnJXdp1SLsWtbq4LzqQh882puXsdtTkmLos+oUsk61R50QRwFnKhXrbWK4RfPrBT5RveO8dXsagpycSNMBP/beWg1w38TxpWV94jOflOFjW3ufeoj3iKpV3FdIK8Mxf5L9G6ZUc48t9ojwJExGldlweeTxWq72LD6/JBumXqmf6psnJv2xTkKtx5EtfxUueJrE8MiH/qQNKR80yy9kGuHXSUPY7vCKOFUMrhLNCY7sf4+1wx3LurNvD/SI1uSUboDVxkfcc75iq4Fp/ZKITQeKKgpNyIq3I0p66BgkxHpMHxZ7lZt0Ku53kN0++uUz4Sy5x3R8K0o7kXLkTR87L21ZzGurd0phT+cmdeSuE53NCY4txWHL+k7dS5ZxrJVHG251WyTPOT56hULqz++4z/4q5aD6f3UnRUXAeSmdjQq6fvZA7r3nXgLo+GVDq3HuJGAZm+ZCTNHTmQtEY6x2CgCavSRFNaVb5SjUZ4Raavw8Kh3xshboKy+qvpTEsGyr1dpsM/jqJTwEn5ZUkA6GlSbmJEcnN6R8519PtQbij/LjE5amDDP0O0isHOji5RF4HwtX6pauDUgWJ68ei5JpSlXT43UVP6lfIRDzHK2LZ9LRHJuE+WVtIbWk/8tZBmdP3vQRRhFzq2hWXL3EhgwwbepplmcOtFPHRvolNioUOsVEZtSXTS5n0S1RP46tcky5IfzLOI1dxkbM+eWkPkwKVG0Zj1wcl77Rb7/fKPxKgONGdxXMt5/MBCstxlmGcdUVCUjmNfUHKiZEQ47J047uqlyvxRb3M762Oa2KukE5SE1t6Sg4kXbRHQ1ohfwssChv5BcNQKk+SC4PC6LJzv7iuvfwuA33j/gFVkkz4y35Z5s0xvJS1dHbZBUm4zz9yNSArHZQ8lB65xkMmOXck95QiaKFZrMtbD/nYU2lBZMKGk35qYhLyDKvFs593bh7H9T4NKhwU1+NuDoXfQ8nJBr4zPIlzgQuVsvSpTK1dOkdUPCVNqUHcOs7ND8cd0oJGtC37evbMFM+s3eNFK6HahDwJ1UVz6SusfVDGVqhBnoqNvNYd6qUA7oFbH+JeKHYv2cstX8xssijx4FvWE3SN1A2j1RcB6JT7MPQefWKgvhNFyLApcyKbnDyA5IeQzItMUYpcp2gwa1RFr+TgDinJgsLulDTMUoJ0xuyJt64MFmyDcHg6OhBNp3KxxE/LpyMDqA0ikCOg9NT1KroMeiWntipZk40U0FNXGuQ9zEjXeB29HKAWCiRPYkw5Ehd6FMhvhkUrNXHqW9ejlc0iC/kZJdPHghPbv05vyAOfHTHey87Dn2Cdd+XHUImftlREi0teuWGQtJEKBWirWCi4PpQaBD3VEtG2vL+8zAtf2kDniPueU3ihxUUjlHpEPtfBq34Qeij652M6fo6nt33FCzWujxzqXCJsdN+cvp0XcJZj1WV0mUqygbq3+ncKD/T0Cs8BSTTXkIOGaG+8FgriVnzJgkoVVFpBrGUZ5qMcfFD6jXoxZko/iGxCzG+LfllI4E9c1+mQKteG+8yPTA+xp5qQyuA27LIzLfpiPoqF29QLPS7UWqQLzPpmmWI0VLATWlJmztPQ4iFSSALp91b2ypRxXnyxcHOuI9DRQxmlUM3bSYlnnYpyrzXjVolaGsHGpHi5oO0lSGQjIVpyBKu8Gt88H5LfVQrw1Xm+pLltJFGoNM7FbdXk7RJb5VG9alvLUyjyxMa48EfixODh0drlImmlToumBUL4xau8xHOfugwPB637hKAQSwLJDEqla+O+GRUtvOzW+FN4Cp3Soi+a+sCQq0NV9woYUBFu4ZWzgnWZorfyapnPTiGdjEcRPjsiwADzIFOYrDuUgMLa1yIQU2gxXM1buUK81bHd+KoSF+Yi+RjZehAyvD78oUqNxKIEc3wOXT9Yh8As3QZ315TN256Dm0mhDEbqAyo+oITV/31LMDLAelr6Gi8AP+OIa+Lc+uIM8lnk+OSbtLBYnOPv8e5K55Oy4StawrVp/T2XS8E5jVmEliW/HinLQqKphRcNvdx14lqE8YXrzOCnPVwnwk3PdWgjdD5Gayu7vLNBgd8xyaFSlq/QZQSx0xatrWH5lhDGEFTSkbGrvJBL+cOf43wUqKfmD9ilodxCUs0pBIVo4AZ8IZfK/oehyrDUZijRXFbpTt+URg464ln0S+Rbv6CgIWlI39IaCrXOK17kROSdDloQEl1H0RqVa9XoVCKxHFPCHr+WVEj/VYuWtUPImdyXIvOpDX6VT2G3GbTwlxxkZYxxFtKmM3NG/JFJ/nFDPjYB4kIlF4qcXGR87hS/ZNaIDpXeu4dLHeCq/JoXf8nPZSFfjJSFThAfuXEOtxtjXitdAstEoumiEjOkiTZbuZVnRoX/YBx1/og8j0gF7+Lw7M10Ro6ZrdvQU2LOtcyf1mlCInzO6TJi2MdL6a4HpXgCpAqnlMaqQVQF6ORCuWDJuDc1vK4jWnB69RwrdoWtoYkZks3Elyoto67DXGrnAZSCRNXKDubaoDQ7rsnYcV7x8R89gjoxbnciRckz6QQRKPFCybkNJey2chZdS+RCkQk3MQ3otfKeQQ28ZZYJLWUqj5W2GRWTQVeIjkrB2K2TxOUX+aM2rTyW0yF6JNPkGcD9OqSVhJMi4lZMvgzsM8licLn888mQvEK0n3TzLQz5LYeoDuSXNiafgnOYkd2cOeeG5LFEz3kBlTn1cK5uD0u2ugTVo8syp81q4QVLX+W2rF9yqFhRz8ApQ/VHSuRiRIhhyrkVPctRXyIzLBeqmF5uOPQxRkX1dU+fVqqyh5+dt2h0GFKdvK1tPigNQUn2c7fLriUrxyW3y3KMprSlpcyMPE6P5wot52RiEV3mn/GVuvV+KVlLHxMuyrMj63aeaeZndwK9zkbEWIoMYcksdMDCY1eIO8cYLdncfonp8UgD18ByCVvaCZIKdupYfS9XcSaFZ5J45OTKT9g61Pce69dSIT4fdUjOIWMWxDMHGpYaU5pT7fjpuZSkaK0n7Wxfo1OEP5fJ/mXNyr+I1TnC91ZChFUKt2vSgK6v52By+1Li8IPUz2NBCd3O4iRXGBqh9LfdnOlQjpyDoWoNp/M5rHPZhgnl1Hyr9Ot81yDuCYC6q1SFzCBUI252eXBM5LcbtrjYZbl+qfupsQxVlDqR5z8aUBK++nSUgF+5iNdzVkXcyGnoWVSoeErmj2tBDXwLPvoSrvwNKuL8OzvOsjmrnOEUzTI+YVu7tEi3DSLAETowmFzu1tGSOfJFM9Hq3ujcPslhWZJa/Khd5JPvEgk3vvKttB3FwW31kjAEorOdHIp0nQScXFFHEJ9vJ7UyuaCOUHzLN6Sj/l1fEb2RsiWWhMmrNMOVwUE9PbbuZQuPDCqJkJJExg+ttl/pS84g+tJmZXOnNa1Gkaf1DsoNliG3R/N3X8oB3A747eKjp9TnLROOaQf1eX3NTuDIGZMSB66b3GWdXF5c+5eyRYpBZwk1J+M39TYqnraRp9LPmAO9bpGfQwtEuPKvOeEKXN5+XoI5TXPJpGXTuEJzWgHibcxellk6cF6Rx1e6q/Q+MpEu6yOP+8XjiTEZOeYaKIgO66SOkrOUGI5BZ2KbDDVm3KKpShECOQWUsvUZaYzqw4aFd5ZZuyWBWxT4OlVBD0FnuJBqShwVb2Rmfsaga9PY+HO+pVXg4WYO0x+uiHDqgSx62nhuaVonGxaNV65ydb9YaoXOoa1RgauzGtexafcZUlrc/KUE+VYQVBB/LgQybc2YUfK5FVZy6EuOOqpArXkbRxIeT209bO2ADGXNCtlUtbbIx7MiV22c86lqB1ESxifzAq+E5sLAkB+qeain4QCP8Uq/ldmcMJQWTHoXpnReA7W3VT4BotgPBc4lawVVlBtLhYAuRHzi6Lg9m/aaLM8lcyGKUUHzp3EofBXXkyILLQ0qqaZeIvDmoTfL50M4dSUaVFx4lYaOrtQMlnT8WlvgvlSwcwSHq5yJodYupuC2cKLcrHA14ItsGTq/ln9r+xr8lc9B7Bo4SNQQdl/BkFvdTXjjLYqcxEXAA0r8Avproap+Nw+PB1UfaFXvcmEme9c2EQ2JV66yZH2/TkHIspLja2yEI5e6LkHIBgg+yfPQEjzS5z3p1AFePUvCpH0hQ4GHjKrHiQfU26el6pSPt2R8JWWQ8kkvspZXnsnU2rwjBBESL7qJiZxlCOER/MBek2ustJco+aYv/O48waN69XIvSklIZx/ldFnTBnB9es+DET7lVYzawGVXJuGSd1IVSm/eVBCqwIrJeAplPECCZJZpGncF86o81IFz1RHORfzeZ85Cbs7CTJcQyPmNQM4L62hFTK1IL4Y8iKLVP1xloaptak6AlnSMDowDPNUvIO1POqQAMvRLzmmXn35JCzid2wA9PscqT4+wpGkHdDqVdKU1WlmaS7j0edxKZ52POQZVVrvkO/s5CPRX88LLQ35LUOdZQrL4kely5jhtwrm90vzK0NKwRMxHpSEy8imSh/1ooS2XrQJ+n+8it4OIvN3+6FI68xGHaM8m6znO9UJHKwh+8aJd8ByvsOJnnjBLN9lQzhvczK8W8VgEc3p5MlRdUrtZXwS7Wns0JjLFqobHC01zjI8AWfi5JZaRiJ5LruxxnXGIY3IQtTFikr8uGTbb5D/Xg/SipI0sLi0xaT21HiINdBCfCw346NjyY33yk87zKR3b4PHnsNJephzoduvRMMgrPY2EzlCrQzXmAm7KT4OcnotC6UijpfIMLgrJr581Ep/uqEml/FVYFKCplTieNsIzKPPTMyGncCXomtxOyUlelJJUM9DRbbAYXVe0LdACOVkXMSoEIZPKx8dDXAYdep46Ulh7W86S9YMxzqkhStqAT10sK6r2KcMrAxG9Uimizl5qYSnMol0Lt9U2ApQAf+lg8twqYdotlGMNB3o0i99ShnzykKxC1IuBLl7S0/7W7ryWRpHb1nJWYGrnSdOTOpIaVuto51W9B3zUiYqMx9Qkg8L+gFoS5ywUj0x9Da5ujvCPTBZL8uZEyUlaJ6brLH/qTq7JP275I+yQ6oCvupw4L1zUzSFzQi2PxPTewldlotzzJK7xmucSCAlyqI+JvlA4/YR2ZOPObSFCL27Gcofbv5H9C1TZK22ofID4tJAnFpWzy5jNfyBPK12jaClNaQdiwqm4mcxGQ3SaVnWRv4XneBFlqfInT44JF49ckXYW9oVbUvjoi1yqZHaB59qrX/rOQ1LRL3tNzBiYSHFc9g2VQdqpNPYiUy1ZueaPOjlMMrmWQEiIXIN45U90jtVuhGdv+TnWwml5lQOWKLcoROQvRvQkTEyrhs7tqGzR8atOtCnzVuooripHcyBfY9e9qTlovbA2eYVc/8q4wedC8R2XspkiIj8yOXdpd5bWmptddtcp8iGVsuWLP8ZEtQslJX4RZrGXbPSRscLOE1k4iiO+6bSMdfMnbTpUDhiVHk9lWFlpZiPK75DG2FH63X6qiA2KRqRFJ/BIc1sSdyY/32KlEOhQ3uTbiNKTrigWFWnh47JLkV2O7OCqJSVT6Wz4ad27DlXuJ4YHGVfBHmwunlvLJ0+rATFYwPxoSZWjpD1xiudBIVl4oE5UV1HClkcGPQpxwkZzYAsbafMlp+BCg91D099TkbE6C76UUz5cxoFJ0jt5klqwYv1LhrJgqR4PMpEUoPv6IIhbkwpwB4g2rQHM9ajzvxHJpEdsr8bZa5wmHu2SoPOVDlmItuEkOhwOIsqPbEvDwZ7Ic1FMnc7UX/d3O5cZvnVjiTY5DLM2nNwOy3rRpVapQCbI0qGjx0BCjlL9GR8xpsIL0p41hPMXbp2aDqscR9ULLmVwC0jJ3F8SSh+3gyj5oqHFOBIop3biGIreeJcgieJEuGrhCcn9T6mA0rZ28uSDT2kg+oEYYC30kfJrXSzdkhflgUWiFeG+7Ccq74an1GqD1pee1Ft9FdK4yDi2wSaXtnU5RK0SimjUUN5c2VNeaoKfv6TFZ57ikEEWLNQk4Dok6CpwUJ75zC9e0qWdU7LoR9jnLjLmXkXrGetDiiPtQR2B85Nb/VLjM1y1vtpyp1j3kPiXGjuX6mPvPdC2Cke3/ITxUh/6krEg9H5xS5nnMkMKew6Rn/bKGESJ5FW3/CQ5usVfnOc1X9A0XtAcE9QODXKW1R8LiCftVjZnARZlK/lKSz1cH4CMuB43osRbxCDWY1qMvkhHn+PkaRqcJcAhV1zXW/WrnzhnDkQB4R1faJSUm7qlSX4iCkC7KIJcPfYha+36XWHJkf9s3MC2LNFpm8w/lAUn7QoLUBbyZGnkRxxcJxE5IEtv+xVKkfXLk7EU4MVgp+Tky7nJObnV3MkVv8tjXeiIItK43yXvr1AqHE3OQSWh3iLp5TxOuVNWa2t1StsH9ClzO7XLQ+hckpMz6TM23LZKYDXEyWVJdmtJ/ri/0LlABVRGTzKkt2jIobR+/nr+yQuiP0KcU4d2vixBO1CWxwZlyCJBI1JoCtkmfwXrB62gMzpWPBqKk70mKnRALjwyJuSIoLDoyqDKhCo25GaK5UTnVLW2CvOVCzS6zeRDFeE0CZN7rC3iQE4A7jW5FAqjgQZNw+RBmf5mCtXEjMR4oax84tQPqVBexWWAoyonCeOR9kG784Ksv4F8RSSpsgJSeBeBxcs6gDzeelrKy1W7k8r1Z6BHRUcThK1z3QbNJRMAhlDjBykzyESNoUTdiUE/2aNAntYZ7EicOUnCaHO9YcG3rNL5JJRXdYpM9LkH3ajhpV+U4xYLm+RpX5dHMZcy4HzCOS6ERkONzZ/lJYBG5M6aQMok3ZzM8lIV5y+dnhDQ5bHQ9TL+tjpxKn+XT1ef6n2d3NvpHno0YJFj/CODt6x3FgbGInANldc8ljw4nEvKJtBGLohot1MO8hKKDBObyr+7p+FlQaOtR/GbEmC8EXYoShzn8eoIyi1S+Uy0QWtbZOZSyY+PJNapAP60MEkoGe0V+a3KTRm9qEnecUrAubXR+KT2NEmRW5YGt9+ziTXvVMfUAFU5R5OPwmpXDIC5LRFyW5KGfmXeCeF3P+JX/1a5mpMclrqsTD7pq0XKMu24U1nSLwlTfrfAln45M7eoKQvEQDZzpoIRsEzOvIwf61Vk2iKt5O52+iRJuwUpIfVL3wXUj/mgzbeIcH6o0tQJMRtkOr8zxzpL5+O+UhhiMFfbOV9nTD9EL2OBuX0nve5/6sYKKI3owhfDCFXSI133pIy8XDPKo5T4ASVDJ312TwrQS9aoTJ0VMg+5tDzxzshlom84WyWvPqXsvFrOWMlcThFp17QaiW2kSDnzMmOUiPQGcTJF1K8HxoJkPYY9Jlo8Olq+tApl8e0F6sTiLYFaE3wRgDh6tvc1Fu+lvGJ4TqM+JS/l6ILQ7zZRIdmPPeNHI+WPYYA8EoLaF8OOxd4VIpL5W/57anCfD9J4NueZdE5ruFX1F15qKSG7jBHOD7WlXM+d7ZykPecLcYW7vsdEOiYZFqUQGRA0kBvJA6l1WKM0VMDgoiBxG6kRUgklRAdyTbZvwXg58GCTiOKVqycBBqmb024n0iUtmHU2CuLrjS0Pg1EzbiYmHaSfGjhejNw74+SknimrxSgsIQKC5eVHDxSI2ypd6UCubInDDS8651KZkxxwVR7FZWA3WUQKCsCP8UOfMChpjfBbbdR28fmqXIORgUs4AyvgxHKqlh6dBUoyt2+TI+Xc456xRIpEKu1LPwfIpt9Sx7QzZWnlaO1r+QgkH/wUTJR45JImkz/A4+syy9vwIKT8qQsqCshnYlW8jarUykYAbezye8TpJJWc0teERdqUxWqtF57LJJlZFwWvsZxUC6ge7usGyyIneW9lhrWQaHlUSydz8jaZCY82af2uIJPj/IdfPOLc+pIlTauKyRUSnJcKkDzxpz298KCBidhulwHVe2ip87PHEo6E82+wr4u0ePptn3HhOB089umVtIv7RoEqV8YBsaD7KIlfi9Nk6fZs5xiUc1isEqaNFE9wLjv9Qj+2fjGr0vmvwo5wewKyqZbIPXNNyqam2XLhc8pUqHY4ojc6PFeq85pqITlXH5Eg8wltlHPPPaSLBo9bUlRiZCH0MgZo45Z/gF61jhoUNlQXSvhZF0Dpi+GMTukRIUtUalbjH62Q2pZzSRz3m3jMmRYAbmtxFYe8LRzFpW9baYgXqAN6XL823zmN+PhY3BmDSEXWubu81ZJkWz+VAIv2dJxlEp+RllYlFVTndP4IZ2TPaegHjZetyBK0jWKcSgJ8GKyj+kwGxeWFDCT6jPpQZnbjMg95HoOoVRtPNa6zm8f5gEHR+srpU94C/vCrLAq4P7suGxUShGwDNCq49ZcRn5Ryn0h+/Vm7LBauqu7Je0+sly4fTC/tP5zuPXh3+nfHD6d/tz1M9zWAd6o0lePqDuI03B3VUIdzW2AMJB4ydBEZCPuL6XOqxK+opJ9T3H0qKx3ziaD2808BS5bG9rcuJEvFipwH8rLgOJFeUhi6L/nNxQPHMdC9bQu5fqRVXoeL6cx6qSaKdSVCGZ3nnl8paROXup0CCUouJIDf5WDQqI4vqa7kDc8y0pmTnWGTWycvMQBavi9JhHZC3oNPcrUzRA5cgbMVdk8dDkWv8lW7pBji4KG8cjiFbe06XXgYItkVYIjCl4zy9j1ikpKf2oWt3OhRfoq/fzxXfxCWFJa569IX2jP1yT3Xg8dyKb+Oyoerm8Rzgihe+RB2XvqjfoC+PDs+kA71kcJnXGFqdvPEJN7nDh85f8ZczXp4rZPxJHc5ztJ/Zx5j90UvXZ5LVsQgEryd3caAVdKe6PKJJLifNAl4Yq6TFKLfWpgsVJaMIbUFScRn8r6n/O5PjHPJ0OYblUwu2lxGpaHP3S7eIUrbo89Xv2pjugB9HsMbxl/GNNOZFy5I4KqB/qIlKTttNqkv/Jpa47k+0mlqfU8cMsh6zCqMjr6Nn3p5kVYoY0/jdOLXPCgbA49yeNpyWanHBn179aXauo/nAqHIouO+6rRV/+aKqOd92i+pOxCXflE9HC9yPVTWe8qcKzTKcNRVXb99hF4Vdc840XmpvnG5aD+d45SfFvE4lbjnAPpFxKTLbTXG07b6xTmn/J9TuZjraJssjLSXyiZ5zmHKRl7WRX/Tfz5heQCQK0zFqRy8Tsg5VGMrPaSj9KSfFKKPVBF20ihBShGsxjLnB/1MCdCvfBhjlNxzn3hSIXkSkov6WQy22GmDGGbKV3rwU37mvnuSg3weirYH+gbdSqPwmQaKzxHld0/1pW9TCg6MkNbGkDKf53HmDdF9LaLMgYx3txPtpTK5fTVGiP81JWYMbtWXnpMl/zkVgH546fjRdG//gfqXdURpWps7fwF5yvQ5xaMrcwa7Aa2MqgcufV7looypfyuz6mxqdYZ/X438EvkzrpgnNe5db7XvVmvOvf1H068q7tcu5e7fE72r+ezD6XOSpS7Vnuj/nOR+9fDe9O8u3px+9fyN6d9J9n+aPpr+ndbYX9N88qsq4K/gStevHd/Xevve9D8dte7+/ys7870oliQKn15pLoiIInABWcTL3oDjvIQP54NdRWmaTWRXWURQQQR6ne9E4f3NnzPVpt1dlRkZGXFiyaxsqn6pVtOtQp+6hZBZQt868diS8s+Hu/Jfp304geJz8t1xMrHHxB8w5rtV/vB5r169ara1tcWF//Wwm4psGqFFFsM3v1tk1VRB1/WMXi+t6uDwSDeVumbn5tX/uFPvy2/V97BdU1OTdwqFKZqX1zZ0dv5dc8VZdd1rDcDYMR2cnGtxeV2j49MaGhoA0E3t7W5pb3tHC9Tt637M+Mjdmmmdf7vQSnlZfY+7NDU+BkzNX5gFn1I6+/ZdS6Wyenr7NDY5GRtED46PtLa0pIWpcY0N9AUgkhlA0mYf/heXy5ouzulpfx/gTAJphcSpggPbOTrRSumdns9MaaS/l/ZulbwiCJsWxbuej85/6PXyqnqejGrm6RMUDMAJliFLhOENOd61X2tm9OPqRkvLK7rX3qbizAwGjGMxcO0EALN/fttAifH32WsNlahbrTY0D59thXw4mMrNFdpoKE+EszOppnH5qRaV1j/o9OSzns/P6EFnO3RtCDYg5IUjdeg+vbiG5rJ6HnRofmoi6oQsLWvGdnb5S2+W19T+qEfz4yNqTQFWkkbfG6ynbJ6J29je29Pmzo6KxaIGujs56+ShBt85PuX0fuejdnc24XtavejNji1cLnSMpQ2ub+5+UnF+XgOP2jHOa9pXdPz9Wn8vb6qzd0gzzwajf19r+HkS4O+E60tLJQ30PgILI1BKEgIbkfVyC4+YtFa3D3R0sKcXc/Tf1Uk9A8AjbESLtQ872v18rOJcUX1d9yOxTWPwxo5/sVSFz8uf1tWaWtvua2FmQi1pO50bVW5viEl5ZXIt5A0FbX0ESytrmplf0Ghvl1rRfQEjr6HzKgVXqCoBr1Quo9N64LuthQQdfhxAfYTRwt0t2LttZlV+v6XvX470YnZa3ffboMBh/o09dO7ZlenX4HN7b18bm1uaYyyDjx8mDpli200O/63+BNcfv5ypVFrWxF9jejo8lCRMgROCFthKniGSSPXrxYUWsbsHPb2aG3+qVmg6abYUa2k0Hs/4SGlre1vbu7tgwXb7COn/TsKS5MFJ2222TVe4xq2j79jVkp5P/6WxQduVg2UyLruwvcMTvSmtaCrsspeJhoNVJTbgXiO7OrrJIvN3pTVd/aro+dys7hUyyBJ0MxYnC2FrjbQOscvF8pp6h0c1OzoYOikQhIz1RC9JWvN+84MOj0/A6qy6H9yHViKPkBx68VFhrDfY7za63lxb0b9mpzTU9zjGaV9n3Xg1w/j7VU+Dm1WC4LVeFCf0h6MgfYY/o79rVLNYXkfPGXA1qfv5JpK5hUwNfph6oSckp6OTUzCzorFn+LDhJ5FAOQmwY024smYpyM7v/rPLt/D7s1rTO3xbns/PkWML/iTSFYuHupdM5P5Gr/VcTguzM7oHngr4HtM1/q8qVb3FR2TzGc0tFBlXQ2dfvuvN6yUNDozQZgrcgBD8HK5JS6sb+oatzBVn1NmWwxcgWdr4p9/xrCeQ8O38XCXbbX+//hwaxfeuKNfarvnZSfis6PLsCJ0u6+HAsLoHR1RaWVdHS0Hz09Na43zl9pcW0HVrIacf1/BXfq8v3356QJqdmVYL9rReXtKzJ39qamwIYYDLT1/0ZnVLk8UF/UHmuFFe1LOhfo0/HQXz4BMdG+e2o6Ov5+FXRkeHNfZ0JExn/+BA6+sb4HpOvX09SLChjfcbOvz6QxPFF/r641q7G2v6d3FSQ/g4J41rGxs6OTvVxOyCji/wH5v79oxqiQlnTfMTzzSCLl13f39bi5sf9TPTpst0eyRrrfhA+w/b5BD2OQw/rxff0ueFMoUOeM3Bt32tJxDEGbCzMDPOJOFaG8vvNDcxjgwGYnyBC4pRkmz6TGJWnItrXAr8UgzRQJEvJTHO2P9d4vvLly+bcW/x/zno5Z9fW0AkIe5OCAcYs3AkNZzj5eWVTk9P9aCrS12dHcpxKQza7XBM4R5gxGzCCli9O8+7M+GYNdvVUC3uiYH2OE2bRs3mRBaXy6se96vSynk6iDNr4qCsjJglefZg/iwKEgHPdirmmTE3qe8loBTGk6kTCKhrYdqgvbkqBOvA7b0hFN/Xc7C2g2yaFvVdOzJejNh/uMb3/VzqODYrJ0UflpSdu5yIMBZn0i2MJQK1X5Zn6Im6id9RNuv8lPP0F5fMM5+91Gi+nYD4bzBYhA7CyZ2xROGVSkWfPx4oj8B7CB7ZLLxmnC87kDOjAmT+rU2yT8KhIcms0/R5Cz2PL0MbJxpeobGc47494002BNITY3GgSuHI7Tjs3tx7A6ac4FnW1m0kVbzsCK0T6z/CCP2kSGCyzuIwpPj9D3KL+5bxQDHL3/ozBqiLEbkvh7GoY0eEEKxrRgxdzJ4A3mBeQBplwHDOdEnaoO8lxgwyMBaS0dMXPHq25c17Hr9nU3EPkrawF0lD/NTZK1vIogURNONRwFw0LiwLeEgHXSh4xpQmmbv6ocPDz2rv6FTXw27lC613CQhV0GPMopBFJHHQqtKf5RR7VHxwzmYS3ywH+PNh3VsPln+FNtaH8esdcLGk60ac9ynr0o7QdY0g0zdFb6Zy/04SjNtk459VlSRJ1qkDsm0BYvBBPWuM+k5QbXehG59FP4FdGK17BkbfnllZVr7v7KDnJ5HaaH8v69exNSMiC/3g2XZ6x08tW9BNAxsh+fXG4RS2HCs7jDuMAt5pAn/wlsmpgrGk0U0LX/1+bdwfHSuTz6uvfzB04rTFGPfzUMPBWofwHjLxO7RcjHnTsNRsl14lrdKfpROze8vP/+g/kaSxDu+Wj/XCdScht/DkZC7L59AFJWEfSvBhu3CyXSGZyeC7It1yQsU4Hezt8yzfqrENni2/Zo2EGf5twZZX6MhcUBeC0S78G/TDv1qvxvRdkhArVfBp2aWxa+PXD3oyv66OoOCIF+ciwMBrFabrtK+4XpWgxHuLadz5teSWs3XvMUEPP3H181YnR1/V2fFQfT3dcAS/6NDjSYFHt6kjY9t6JsU7dGx5NRhKoU9PKMykNeOEL/AbkqYuAdTpnbHkn4tX8R2ZbB7fTcC/Rj7wmpiP4wcyonaDOORJknVZA3e+Rv4T+vXqkDXpdSlPbsyHNWNfZn3YERt3IT9zFPbhbwmPLn65RqxIug50GxQLNRIliic5Tp5TXp2jT69gJhZpHunfEz1w74mk7ScLTPyOAqHFuKnfyLeKqZRuIlFoxsq6k3br2xtL/XjyTyS79n/9T4ZpZ70yKnRjKbqvpv0n9BKLcOxJ5Ox/UTy+KD5Lp3HedRhvfImRR0n+47AM7krYiKT/ANPMqEv3+YAxAAAAAElFTkSuQmCC;" vertex="1" parent="1">
          <mxGeometry x="73" y="-394" width="532" height="348" as="geometry" />
        </mxCell>
      </root>
    </mxGraphModel>
  </diagram>
</mxfile>
